<?xml version="1.0" encoding="utf-8"?>
<!-- Generator: Adobe Illustrator 19.1.0, SVG Export Plug-In . SVG Version: 6.00 Build 0)  -->
<svg version="1.1" id="Layer_1" xmlns="http://www.w3.org/2000/svg" xmlns:xlink="http://www.w3.org/1999/xlink" x="0px" y="0px"
	 width="310px" height="200px" viewBox="55 0 310 200" style="enable-background:new 55 0 310 200;" xml:space="preserve">
<style type="text/css">
	.st0{fill:#F7F7F7;}
	.st1{opacity:0.3;}
	.st2{fill:#0081BA;}
	.st3{fill:none;stroke:#0081BA;stroke-width:2;stroke-linecap:round;stroke-linejoin:round;stroke-miterlimit:10;}
	.st4{opacity:0.15;fill:none;stroke:#0081BA;stroke-width:2;stroke-linecap:round;stroke-linejoin:round;stroke-miterlimit:10;}
</style>
<g>
	<g id="Layer_1_1_">
		<rect x="55" class="st0" width="310" height="200"/>
	</g>
</g>
<g>
	<g>
		<g>
			<g class="st1">
				<path class="st2" d="M205.1,129.8l-3.7-10.3h-26l-3.8,10.3h-14.7l23.5-60.7h16.2l23.4,60.7H205.1z M188.4,82l-9.5,26.1h18.9
					L188.4,82z"/>
			</g>
			<path class="st3" d="M205.1,129.8l-3.7-10.3h-26l-3.8,10.3h-14.7l23.5-60.7h16.2l23.4,60.7H205.1z M188.4,82l-9.5,26.1h18.9
				L188.4,82z"/>
		</g>
		<g>
			<g class="st1">
				<path class="st2" d="M251.6,129.8v-4.5c-3,3.5-8.2,5.6-13.9,5.6c-7,0-15.3-4.7-15.3-14.6c0-10.3,8.3-14.2,15.3-14.2
					c5.8,0,11,1.9,13.9,5.4v-5.9c0-4.5-3.8-7.4-9.6-7.4c-4.7,0-9.1,1.7-12.8,5.2l-4.4-7.7c5.4-4.7,12.3-6.9,19.2-6.9
					c10,0,19.2,4,19.2,16.6v28.4H251.6z M251.6,119.2v-5.5c-1.9-2.5-5.5-3.8-9.3-3.8c-4.5,0-8.3,2.4-8.3,6.6c0,4.1,3.7,6.5,8.3,6.5
					C246.1,123.1,249.7,121.8,251.6,119.2z"/>
			</g>
			<path class="st3" d="M251.6,129.8v-4.5c-3,3.5-8.2,5.6-13.9,5.6c-7,0-15.3-4.7-15.3-14.6c0-10.3,8.3-14.2,15.3-14.2
				c5.8,0,11,1.9,13.9,5.4v-5.9c0-4.5-3.8-7.4-9.6-7.4c-4.7,0-9.1,1.7-12.8,5.2l-4.4-7.7c5.4-4.7,12.3-6.9,19.2-6.9
				c10,0,19.2,4,19.2,16.6v28.4H251.6z M251.6,119.2v-5.5c-1.9-2.5-5.5-3.8-9.3-3.8c-4.5,0-8.3,2.4-8.3,6.6c0,4.1,3.7,6.5,8.3,6.5
				C246.1,123.1,249.7,121.8,251.6,119.2z"/>
		</g>
	</g>
	<line class="st4" x1="120.4" y1="84.8" x2="299.6" y2="84.8"/>
	<line class="st4" x1="120.4" y1="130.9" x2="299.6" y2="130.9"/>
</g>
</svg>
