<?xml version="1.0" encoding="utf-8"?>
<!-- Generator: Adobe Illustrator 19.1.0, SVG Export Plug-In . SVG Version: 6.00 Build 0)  -->
<svg version="1.1" id="Layer_1" xmlns="http://www.w3.org/2000/svg" xmlns:xlink="http://www.w3.org/1999/xlink" x="0px" y="0px"
	 width="1477.9px" height="399.2px" viewBox="-1883.9 2998.8 1477.9 399.2"
	 style="enable-background:new -1883.9 2998.8 1477.9 399.2;" xml:space="preserve">
<style type="text/css">
	.st0{fill:#F7F7F7;}
	.st1{fill:#007199;}
	.st2{opacity:0.18;}
	.st3{fill:#86888A;}
	.st4{fill:#007AA5;}
	.st5{fill:#0980BA;}
	.st6{fill:#67B4D6;}
	.st7{fill:#0081BA;}
	.st8{fill:#FFFFFF;}
	.st9{opacity:0.3;}
	.st10{opacity:0.7;}
	.st11{fill:#DFEEF2;}
	.st12{opacity:0.51;}
	.st13{fill:#99CBE1;}
	.st14{fill:none;}
	.st15{fill:#E7E7E8;}
	.st16{fill:#F4F4F4;}
	.st17{opacity:0.82;}
</style>
<g id="Layer_1_1_">
	<g>
		<rect x="-1883.9" y="2998.8" class="st0" width="1477.9" height="399.2"/>
	</g>
</g>
<g>
	<g>
		<g>
			<path class="st1" d="M-564.8,3168l-3.6-0.3c0,0-0.2,3.3-0.2,4.4c0,1.1,0.5,4.5,0.5,4.5l1.3,0.1c0,0,1.1-3.2,1.3-4.3
				C-565.2,3171.3-564.8,3168-564.8,3168z"/>
		</g>
		<g>
			<path class="st1" d="M-566.6,3177.6C-566.7,3177.6-566.7,3177.6-566.6,3177.6l-1.4-0.2c-0.4,0-0.7-0.3-0.7-0.7
				c0-0.2-0.5-3.4-0.6-4.6c0-1.2,0.2-4.4,0.2-4.6s0.1-0.4,0.3-0.6c0.2-0.2,0.4-0.2,0.6-0.2l3.6,0.3c0.2,0,0.4,0.2,0.6,0.3
				c0.2,0.2,0.2,0.4,0.2,0.6c0,0.2-0.3,3.4-0.6,4.5c-0.2,1.2-1.3,4.3-1.3,4.4C-566,3177.4-566.3,3177.6-566.6,3177.6z
				 M-567.3,3175.9L-567.3,3175.9c0.3-1,1-2.9,1.2-3.7c0.2-0.7,0.3-2.4,0.5-3.5l-1.8-0.2c-0.1,1.1-0.2,2.8-0.2,3.5
				C-567.7,3172.9-567.5,3174.9-567.3,3175.9z"/>
		</g>
	</g>
	<g>
		<g class="st2">
			<g>
				
					<rect x="-567.8" y="3098.6" transform="matrix(-0.996 -8.937636e-02 8.937636e-02 -0.996 -1402.778 6187.8818)" class="st3" width="9.9" height="53.5"/>
			</g>
		</g>
		<g>
			<g>
				<path class="st4" d="M-560.2,3153.1L-560.2,3153.1l-10-0.9c-0.2,0-0.4-0.2-0.6-0.3c-0.2-0.2-0.2-0.4-0.2-0.6l4.7-53.2
					c0-0.4,0.4-0.8,0.9-0.7l9.9,0.9c0.2,0,0.4,0.2,0.6,0.3c0.2,0.2,0.2,0.4,0.2,0.6l-4.7,53.2
					C-559.4,3152.8-559.7,3153.1-560.2,3153.1z M-569.1,3150.7l8.2,0.7l4.7-51.6l-8.2-0.7L-569.1,3150.7z"/>
			</g>
		</g>
	</g>
	<g>
		<g>
			<path class="st5" d="M-560.2,3152.1l-9.9-0.9c0,0-0.7,8.2-0.5,11c0.2,2.7,1.6,11.1,1.6,11.1l3.7,0.3c0,0,2.9-8,3.6-10.7
				C-561,3160.3-560.2,3152.1-560.2,3152.1z"/>
		</g>
		<g>
			<path class="st4" d="M-565.2,3174.5L-565.2,3174.5l-3.8-0.3c-0.4,0-0.7-0.3-0.7-0.7c-0.1-0.3-1.5-8.5-1.6-11.2
				c-0.2-2.8,0.5-10.7,0.5-11.1c0-0.2,0.1-0.4,0.3-0.6c0.2-0.2,0.4-0.2,0.6-0.2l9.9,0.9c0.2,0,0.4,0.2,0.6,0.3
				c0.2,0.2,0.2,0.4,0.2,0.6c0,0.3-0.8,8.2-1.4,11c-0.7,2.7-3.5,10.5-3.6,10.8C-564.5,3174.3-564.8,3174.5-565.2,3174.5z
				 M-568.2,3172.5l2.5,0.2c0.7-1.9,2.8-7.8,3.3-10c0.5-2.1,1.1-7.8,1.3-10l-8.2-0.7c-0.2,2.2-0.6,7.8-0.4,10
				C-569.6,3164.4-568.6,3170.5-568.2,3172.5z"/>
		</g>
	</g>
	<g>
		<g>
			<polygon class="st5" points="-552.6,3083 -548.5,3088.4 -550.9,3115.1 -554.6,3114.8 -554.3,3110.1 -552.2,3109.1 -551,3095.3 
				-553.4,3092.1 			"/>
		</g>
		<g>
			<path class="st4" d="M-550.9,3116C-551,3116-551,3116-550.9,3116l-3.7-0.3c-0.4,0-0.7-0.4-0.7-0.9l0.3-4.7c0-0.2,0.2-0.6,0.4-0.7
				l1.7-0.8l1.2-12.9l-2.2-3c-0.1-0.2-0.2-0.3-0.2-0.6l0.8-9.1c0-0.3,0.2-0.7,0.6-0.7s0.7,0,0.9,0.3l4.1,5.4
				c0.1,0.2,0.2,0.3,0.2,0.6l-2.5,26.7c0,0.2-0.2,0.4-0.3,0.6C-550.6,3116-550.8,3116-550.9,3116z M-553.7,3114.1l2,0.2l2.3-25.6
				l-2.6-3.4l-0.6,6.7l2.2,3c0.1,0.2,0.2,0.3,0.2,0.6l-1.2,13.7c0,0.2-0.2,0.5-0.4,0.7l-1.7,0.8L-553.7,3114.1z"/>
		</g>
	</g>
	<g>
		<g>
			<path class="st5" d="M-555.2,3105.7l-11.6-1.1l2.7-29.3c0,0,0.6-6.3,6.3-5.7c5.8,0.5,5.2,6.8,5.2,6.8L-555.2,3105.7z"/>
		</g>
		<g>
			<path class="st4" d="M-555.2,3106.5L-555.2,3106.5l-11.6-1.1c-0.2,0-0.4-0.2-0.6-0.3c-0.2-0.2-0.2-0.4-0.2-0.6l2.7-29.3
				c0.2-2.5,2-7,7.2-6.5c1.8,0.2,3.3,0.9,4.4,2.2c1.9,2.2,1.6,5.4,1.6,5.6l-2.7,29.3C-554.3,3106.2-554.8,3106.5-555.2,3106.5z
				 M-565.8,3103.9l9.9,0.9l2.6-28.4c0-0.2,0.4-5.5-4.5-5.9c-4.9-0.4-5.4,4.8-5.5,5L-565.8,3103.9z"/>
		</g>
	</g>
</g>
<g>
	<g>
		<g>
			<path class="st6" d="M-681.8,3286l-153.2,8.9c-3.4,0.2-6.2-2.3-6.5-5.7l-10.7-186.2c-0.2-3.4,2.3-6.2,5.7-6.5l153.2-8.9
				c3.4-0.2,6.2,2.3,6.5,5.7l10.8,186.2C-675.8,3282.9-678.4,3285.8-681.8,3286z"/>
		</g>
		<g>
			<path class="st7" d="M-835.3,3295.8c-1.7,0-3.4-0.6-4.6-1.8c-1.3-1.3-2.2-2.9-2.3-4.8L-853,3103c-0.1-1.8,0.5-3.6,1.8-5
				c1.3-1.4,2.9-2.2,4.8-2.3l153.2-8.9c1.8-0.1,3.6,0.5,5,1.8c1.3,1.3,2.2,2.9,2.3,4.8l10.8,186.2c0.1,1.8-0.5,3.6-1.8,5
				c-1.3,1.3-2.9,2.2-4.8,2.3l-153.2,8.9C-835.1,3295.8-835.1,3295.8-835.3,3295.8z M-692.9,3088.5c-0.1,0-0.2,0-0.3,0l-153.2,8.9
				c-2.9,0.2-5.1,2.7-5,5.5l10.8,186.2c0.1,1.4,0.7,2.7,1.8,3.6c1,0.9,2.3,1.4,3.8,1.3l153.2-8.9l0,0c1.4-0.1,2.7-0.7,3.6-1.8
				c0.9-1,1.4-2.4,1.3-3.8l-10.7-186.2c-0.1-1.4-0.7-2.7-1.8-3.6C-690.4,3088.9-691.6,3088.5-692.9,3088.5z"/>
		</g>
	</g>
	<g>
		<g>
			<path class="st8" d="M-676.7,3282.1l-155.9,9.1c-2.6,0.2-4.9-1.8-5-4.4l-11-188.9c-0.2-2.6,1.8-4.9,4.4-5l155.9-9.1
				c2.6-0.2,4.9,1.8,5,4.4l11,188.9C-672.1,3279.7-674.1,3281.9-676.7,3282.1z"/>
		</g>
		<g>
			<path class="st7" d="M-832.9,3292c-2.9,0-5.4-2.3-5.5-5.3l-11-188.9c-0.1-1.5,0.4-2.9,1.4-4s2.3-1.8,3.9-1.8l155.9-9.1
				c3.1-0.2,5.7,2.2,5.9,5.3l11,188.9c0.1,1.5-0.4,2.9-1.4,4c-1,1.1-2.3,1.8-3.9,1.8l-155.9,9.1C-832.6,3292-832.7,3292-832.9,3292z
				 M-688,3084.6c-0.1,0-0.2,0-0.3,0l-155.9,9.1c-1,0.1-2,0.5-2.7,1.3s-1,1.8-1,2.9l11,188.9c0.1,1,0.5,2,1.3,2.7s1.8,1,2.9,1
				l155.9-9.1l0,0c1-0.1,2-0.5,2.7-1.3s1-1.8,1-2.9l-11-188.9c-0.1-1-0.5-2-1.3-2.7C-686,3085-687,3084.6-688,3084.6z"/>
		</g>
	</g>
	<g>
		<g class="st9">
			<g>
				<path class="st7" d="M-695.9,3257.4l-112.8,6.5c-0.5,0-0.9-0.3-1-0.8l-0.5-8.8c0-0.5,0.3-0.9,0.8-1l112.8-6.5
					c0.5,0,0.9,0.3,1,0.8l0.5,8.8C-695.1,3256.9-695.4,3257.4-695.9,3257.4z"/>
			</g>
		</g>
		<g>
			<g>
				<path class="st7" d="M-808.8,3264.8c-0.4,0-0.8-0.2-1.2-0.4c-0.3-0.3-0.6-0.8-0.6-1.2l-0.5-8.8c0-0.5,0.2-0.9,0.4-1.3
					c0.3-0.3,0.8-0.6,1.2-0.6l112.8-6.5c0.5,0,0.9,0.2,1.3,0.4c0.3,0.3,0.6,0.8,0.6,1.2l0.5,8.8c0.1,1-0.7,1.8-1.7,1.8l0,0
					L-808.8,3264.8L-808.8,3264.8z M-696.5,3247.6L-696.5,3247.6l-112.8,6.5l-0.1,0.1l0.5,8.8l0.1,0.1l112.8-6.5l0.1-0.1
					L-696.5,3247.6L-696.5,3247.6z"/>
			</g>
		</g>
	</g>
	<g>
		<g>
			<g>
				<path class="st4" d="M-850.8,3106.1c-3.4,0-6-1.3-6.1-3.2c-0.1-1.3,1-2.4,2.9-3.2c0.4-0.2,0.9,0,1.1,0.5
					c0.2,0.4-0.1,0.9-0.5,1.1c-1.3,0.5-1.8,1.2-1.8,1.6c0.1,0.8,2,1.8,5.1,1.6c1.4-0.1,2.8-0.4,3.8-0.9c0.8-0.4,1.2-0.8,1.2-1.3
					c0-0.3-0.3-0.6-0.7-0.8c-0.4-0.3-0.5-0.8-0.3-1.2c0.2-0.4,0.8-0.5,1.2-0.3c1.2,0.7,1.4,1.6,1.5,2.2c0.1,1.1-0.7,2.1-2,2.9
					c-1.2,0.7-2.8,1-4.4,1.2C-850.3,3106.1-850.6,3106.1-850.8,3106.1z"/>
			</g>
		</g>
		<g>
			<g>
				<path class="st4" d="M-850.2,3115.6c-3.4,0-6-1.3-6.1-3.2c-0.1-1.3,1-2.4,2.9-3.2c0.4-0.2,0.9,0,1.1,0.5
					c0.2,0.4-0.1,0.9-0.5,1.1c-1.3,0.5-1.8,1.2-1.8,1.6c0.1,0.8,2.1,1.8,5.1,1.6c1.4-0.1,2.8-0.4,3.8-0.9c0.8-0.4,1.2-0.8,1.2-1.3
					c0-0.3-0.3-0.6-0.7-0.8c-0.4-0.2-0.5-0.8-0.3-1.2c0.2-0.4,0.8-0.5,1.2-0.3c1.2,0.8,1.4,1.6,1.5,2.1c0.1,1.1-0.7,2.1-2,2.9
					c-1.2,0.7-2.8,1-4.4,1.2C-849.7,3115.6-850,3115.6-850.2,3115.6z"/>
			</g>
		</g>
		<g>
			<g>
				<path class="st4" d="M-849.7,3125c-1.4,0-2.7-0.3-3.8-0.7c-1.4-0.6-2.3-1.5-2.3-2.6c-0.1-1.3,1-2.4,2.9-3.2
					c0.4-0.2,0.9,0.1,1.1,0.5s-0.1,0.9-0.5,1.1c-1.3,0.5-1.8,1.2-1.8,1.6c0,0.3,0.5,0.8,1.3,1.1c1,0.4,2.4,0.6,3.9,0.5
					c1.4-0.1,2.8-0.4,3.8-0.9c0.8-0.4,1.2-0.8,1.2-1.3c0-0.3-0.3-0.6-0.7-0.8c-0.4-0.2-0.5-0.8-0.3-1.2c0.2-0.4,0.8-0.5,1.2-0.3
					c1.2,0.7,1.4,1.6,1.5,2.2c0.1,1.1-0.7,2.1-2,2.9c-1.2,0.7-2.8,1-4.4,1.2C-849.2,3125-849.5,3125-849.7,3125z"/>
			</g>
		</g>
		<g>
			<g>
				<path class="st4" d="M-849.2,3134.4c-1.4,0-2.7-0.3-3.8-0.7c-1.4-0.6-2.3-1.5-2.3-2.6c-0.1-1.3,1-2.4,2.9-3.2
					c0.4-0.2,0.9,0,1.1,0.5c0.2,0.4-0.1,0.9-0.5,1.1c-1.3,0.5-1.8,1.2-1.8,1.6c0,0.3,0.5,0.8,1.3,1.1c1,0.4,2.4,0.6,3.9,0.5
					c1.4-0.1,2.8-0.4,3.8-0.9c0.8-0.4,1.2-0.8,1.2-1.3c0-0.3-0.3-0.6-0.7-0.8c-0.4-0.3-0.5-0.8-0.3-1.2c0.2-0.4,0.8-0.5,1.2-0.3
					c1.2,0.7,1.4,1.6,1.5,2.2c0.1,1.1-0.7,2.1-2,2.9c-1.2,0.7-2.8,1-4.4,1.2C-848.6,3134.4-848.9,3134.4-849.2,3134.4z"/>
			</g>
		</g>
		<g>
			<g>
				<path class="st4" d="M-848.6,3143.9c-3.4,0-6-1.3-6.1-3.2c-0.1-1.3,1-2.4,2.9-3.2c0.4-0.2,0.9,0.1,1.1,0.5s-0.1,0.9-0.5,1.1
					c-1.3,0.5-1.8,1.2-1.8,1.6c0.1,0.8,2.1,1.8,5.1,1.6c1.4-0.1,2.8-0.4,3.8-0.9c0.8-0.4,1.2-0.8,1.2-1.3c0-0.3-0.3-0.6-0.7-0.8
					c-0.4-0.3-0.5-0.8-0.3-1.2c0.2-0.4,0.8-0.5,1.2-0.3c1.2,0.7,1.4,1.6,1.5,2.2c0.1,1.1-0.7,2.1-2,2.9c-1.2,0.7-2.8,1-4.4,1.2
					C-848.1,3143.9-848.4,3143.9-848.6,3143.9z"/>
			</g>
		</g>
		<g>
			<g>
				<path class="st4" d="M-848.1,3153.3c-1.4,0-2.7-0.3-3.8-0.7c-1.4-0.6-2.3-1.5-2.3-2.6c-0.1-1.3,1-2.4,2.9-3.2
					c0.4-0.2,0.9,0.1,1.1,0.5c0.2,0.4-0.1,0.9-0.5,1.1c-1.3,0.5-1.8,1.2-1.8,1.6c0,0.3,0.5,0.8,1.3,1.1c1,0.4,2.4,0.6,3.9,0.5
					c3.1-0.2,5-1.4,5-2.2c0-0.3-0.3-0.6-0.7-0.8c-0.4-0.3-0.5-0.8-0.3-1.2c0.3-0.4,0.8-0.5,1.2-0.3c1.2,0.7,1.4,1.6,1.5,2.1
					c0.1,2-2.7,3.8-6.5,3.9C-847.6,3153.3-847.8,3153.3-848.1,3153.3z"/>
			</g>
		</g>
		<g>
			<g>
				<path class="st4" d="M-847.6,3162.8c-1.4,0-2.7-0.3-3.8-0.7c-1.4-0.6-2.3-1.5-2.3-2.6c-0.1-1.3,1-2.4,2.9-3.2
					c0.4-0.2,0.9,0,1.1,0.5c0.2,0.4-0.1,0.9-0.5,1.1c-1.3,0.5-1.8,1.2-1.8,1.6c0,0.3,0.5,0.8,1.3,1.1c1,0.4,2.4,0.6,3.9,0.5
					c1.4-0.1,2.8-0.4,3.8-0.9c0.8-0.4,1.2-0.8,1.2-1.3c0-0.3-0.3-0.6-0.7-0.8c-0.4-0.3-0.5-0.8-0.3-1.2c0.2-0.4,0.8-0.5,1.2-0.3
					c1.2,0.7,1.4,1.6,1.5,2.1c0.1,1.1-0.7,2.1-2,2.9c-1.2,0.7-2.8,1-4.4,1.2C-847,3162.7-847.3,3162.8-847.6,3162.8z"/>
			</g>
		</g>
		<g>
			<g>
				<path class="st4" d="M-847,3172.2c-1.4,0-2.7-0.3-3.8-0.7c-1.4-0.6-2.3-1.5-2.3-2.6c-0.1-1.3,1-2.4,2.9-3.2
					c0.4-0.2,0.9,0,1.1,0.5c0.2,0.4-0.1,0.9-0.5,1.1c-1.3,0.5-1.8,1.2-1.8,1.6c0,0.3,0.5,0.8,1.3,1.1c1,0.4,2.4,0.6,3.9,0.5
					c1.4-0.1,2.8-0.4,3.8-0.9c0.8-0.4,1.2-0.8,1.2-1.3c0-0.3-0.3-0.6-0.7-0.8c-0.4-0.3-0.5-0.8-0.3-1.2c0.3-0.4,0.8-0.5,1.2-0.3
					c1.2,0.7,1.4,1.6,1.5,2.1c0.1,1.1-0.7,2.1-2,2.9c-1.2,0.7-2.8,1-4.4,1.2C-846.5,3172.2-846.7,3172.2-847,3172.2z"/>
			</g>
		</g>
		<g>
			<g>
				<path class="st4" d="M-846.5,3181.6c-3.4,0-6-1.3-6.1-3.2c-0.1-1.3,1-2.4,2.9-3.2c0.4-0.2,0.9,0,1.1,0.5
					c0.2,0.4-0.1,0.9-0.5,1.1c-1.3,0.5-1.8,1.2-1.8,1.6c0.1,0.8,2.1,1.8,5.1,1.6c3.1-0.2,5-1.4,5-2.2c0-0.3-0.3-0.6-0.7-0.8
					c-0.4-0.3-0.5-0.8-0.3-1.2c0.2-0.4,0.8-0.5,1.2-0.3c1.2,0.7,1.4,1.6,1.5,2.1c0.1,2-2.7,3.8-6.5,3.9
					C-845.9,3181.6-846.2,3181.6-846.5,3181.6z"/>
			</g>
		</g>
		<g>
			<g>
				<path class="st4" d="M-845.9,3191c-3.4,0-6-1.3-6.1-3.2c-0.1-1.3,1-2.4,2.9-3.2c0.4-0.2,0.9,0.1,1.1,0.5
					c0.2,0.4-0.1,0.9-0.5,1.1c-1.3,0.5-1.8,1.2-1.8,1.6c0.1,0.8,2.1,1.8,5.1,1.6c3.1-0.2,5-1.4,5-2.2c0-0.3-0.3-0.6-0.7-0.8
					c-0.4-0.3-0.5-0.8-0.3-1.2c0.3-0.4,0.8-0.5,1.2-0.3c1.2,0.7,1.4,1.6,1.5,2.1c0.1,2-2.7,3.8-6.5,3.9
					C-845.4,3191-845.6,3191-845.9,3191z"/>
			</g>
		</g>
		<g>
			<g>
				<path class="st4" d="M-845.3,3200.4c-1.4,0-2.7-0.3-3.8-0.7c-1.4-0.6-2.3-1.5-2.3-2.6c-0.1-1.3,1-2.4,2.9-3.2
					c0.4-0.2,0.9,0.1,1.1,0.5c0.2,0.4-0.1,0.9-0.5,1.1c-1.3,0.5-1.8,1.2-1.8,1.6c0,0.3,0.5,0.8,1.3,1.1c1,0.4,2.4,0.6,3.9,0.5
					c1.4-0.1,2.8-0.4,3.8-0.9c0.8-0.4,1.2-0.8,1.2-1.3c0-0.3-0.3-0.6-0.7-0.8c-0.4-0.3-0.5-0.8-0.3-1.2c0.3-0.4,0.8-0.5,1.2-0.3
					c1.2,0.7,1.4,1.6,1.5,2.2c0.1,1.1-0.7,2.1-2,2.9c-1.2,0.7-2.8,1-4.4,1.2C-844.8,3200.4-845,3200.4-845.3,3200.4z"/>
			</g>
		</g>
		<g>
			<g>
				<path class="st4" d="M-844.8,3209.8c-1.4,0-2.7-0.3-3.8-0.7c-1.4-0.6-2.3-1.5-2.3-2.6c-0.1-1.3,1-2.4,2.9-3.2
					c0.4-0.2,0.9,0.1,1.1,0.5c0.2,0.4-0.1,0.9-0.5,1.1c-1.3,0.5-1.8,1.2-1.8,1.6c0,0.3,0.5,0.8,1.3,1.1c1,0.4,2.4,0.6,3.9,0.5
					c1.4-0.1,2.8-0.4,3.8-0.9c0.8-0.4,1.2-0.8,1.2-1.3c0-0.3-0.3-0.6-0.7-0.8c-0.4-0.3-0.5-0.8-0.3-1.2c0.3-0.4,0.8-0.5,1.2-0.3
					c1.2,0.7,1.4,1.6,1.5,2.2c0.1,1.1-0.7,2.1-2,2.9c-1.2,0.7-2.8,1-4.4,1.2C-844.3,3209.8-844.5,3209.8-844.8,3209.8z"/>
			</g>
		</g>
		<g>
			<g>
				<path class="st4" d="M-844.3,3219.3c-3.4,0-6-1.3-6.1-3.2c-0.1-1.3,1-2.4,2.9-3.2c0.4-0.2,0.9,0.1,1.1,0.5
					c0.2,0.4-0.1,0.9-0.5,1.1c-1.3,0.5-1.8,1.2-1.8,1.6c0.1,0.8,2.1,1.8,5.1,1.6c3.1-0.2,5-1.4,5-2.2c0-0.3-0.3-0.6-0.7-0.8
					c-0.4-0.3-0.5-0.8-0.3-1.2c0.3-0.4,0.8-0.5,1.2-0.3c1.2,0.7,1.4,1.6,1.5,2.2c0.1,2-2.7,3.8-6.5,3.9
					C-843.7,3219.3-844,3219.3-844.3,3219.3z"/>
			</g>
		</g>
		<g>
			<g>
				<path class="st4" d="M-843.7,3228.7c-3.4,0-6-1.3-6.1-3.2c-0.1-1.3,1-2.4,2.9-3.2c0.4-0.2,0.9,0,1.1,0.5
					c0.2,0.4-0.1,0.9-0.5,1.1c-1.3,0.5-1.8,1.2-1.8,1.6c0.1,0.8,2.1,1.8,5.1,1.6c3.1-0.2,5-1.4,5-2.2c0-0.3-0.3-0.6-0.7-0.8
					c-0.4-0.3-0.5-0.8-0.3-1.2c0.3-0.4,0.8-0.5,1.2-0.3c1.2,0.8,1.4,1.6,1.5,2.1c0.1,2-2.7,3.8-6.5,3.9
					C-843.2,3228.7-843.4,3228.7-843.7,3228.7z"/>
			</g>
		</g>
		<g>
			<g>
				<path class="st4" d="M-843.1,3238.2c-1.4,0-2.7-0.3-3.8-0.7c-1.4-0.6-2.3-1.5-2.3-2.6c-0.1-1.3,1-2.4,2.9-3.2
					c0.4-0.2,0.9,0,1.1,0.5c0.2,0.4-0.1,0.9-0.5,1.1c-1.3,0.5-1.8,1.2-1.8,1.6c0,0.3,0.5,0.8,1.3,1.1c1,0.4,2.4,0.6,3.9,0.5
					c1.4-0.1,2.8-0.4,3.8-0.9c0.8-0.4,1.2-0.8,1.2-1.3c0-0.3-0.3-0.6-0.7-0.8c-0.4-0.2-0.5-0.8-0.3-1.2c0.3-0.4,0.8-0.5,1.2-0.3
					c1.2,0.7,1.4,1.6,1.5,2.1c0.1,1.1-0.7,2.1-2,2.9c-1.2,0.7-2.8,1-4.4,1.2C-842.6,3238.2-842.9,3238.2-843.1,3238.2z"/>
			</g>
		</g>
		<g>
			<g>
				<path class="st4" d="M-842.6,3247.6c-1.4,0-2.7-0.3-3.8-0.7c-1.4-0.6-2.3-1.5-2.3-2.6c-0.1-1.3,1-2.4,2.9-3.2
					c0.4-0.2,0.9,0,1.1,0.5c0.2,0.4-0.1,0.9-0.5,1.1c-1.3,0.5-1.8,1.2-1.8,1.6c0,0.3,0.5,0.8,1.3,1.1c1,0.4,2.4,0.6,3.9,0.5
					c1.5-0.1,2.8-0.4,3.8-0.9c0.8-0.4,1.2-0.8,1.2-1.3c0-0.3-0.3-0.6-0.7-0.8c-0.4-0.3-0.5-0.8-0.3-1.2c0.3-0.4,0.8-0.5,1.2-0.3
					c1.2,0.7,1.4,1.6,1.5,2.1c0.1,1.1-0.7,2.1-2,2.9c-1.2,0.7-2.8,1-4.4,1.2C-842.1,3247.6-842.4,3247.6-842.6,3247.6z"/>
			</g>
		</g>
		<g>
			<g>
				<path class="st4" d="M-842,3257c-3.4,0-6-1.3-6.1-3.2c-0.1-1.3,1-2.4,2.9-3.2c0.4-0.2,0.9,0,1.1,0.5c0.2,0.4-0.1,0.9-0.5,1.1
					c-1.3,0.5-1.8,1.2-1.8,1.6c0.1,0.8,2.1,1.8,5.1,1.6c3.1-0.2,5-1.4,5-2.2c0-0.3-0.3-0.6-0.7-0.8c-0.4-0.2-0.5-0.8-0.3-1.2
					c0.3-0.4,0.8-0.5,1.2-0.3c1.2,0.7,1.4,1.6,1.5,2.1c0.1,2-2.7,3.8-6.5,3.9C-841.5,3257-841.8,3257-842,3257z"/>
			</g>
		</g>
		<g>
			<g>
				<path class="st4" d="M-841.5,3266.5c-3.4,0-6-1.3-6.1-3.2c-0.1-1.3,1-2.4,2.9-3.2c0.4-0.2,0.9,0.1,1.1,0.5
					c0.2,0.4-0.1,0.9-0.5,1.1c-1.3,0.5-1.8,1.2-1.8,1.6c0.1,0.8,2.1,1.8,5.1,1.6c3.1-0.2,5-1.4,5-2.2c0-0.3-0.3-0.6-0.7-0.8
					c-0.4-0.3-0.5-0.8-0.3-1.2c0.3-0.4,0.8-0.5,1.2-0.3c1.2,0.7,1.4,1.6,1.5,2.1c0.1,2-2.7,3.8-6.5,3.9
					C-841,3266.5-841.3,3266.5-841.5,3266.5z"/>
			</g>
		</g>
		<g>
			<g>
				<path class="st4" d="M-840.9,3275.9c-1.4,0-2.7-0.3-3.8-0.7c-1.4-0.6-2.3-1.5-2.3-2.6c-0.1-1.3,1-2.4,2.9-3.2
					c0.4-0.2,0.9,0.1,1.1,0.5c0.2,0.4-0.1,0.9-0.5,1.1c-1.3,0.5-1.8,1.2-1.8,1.6c0,0.3,0.5,0.8,1.3,1.1c1,0.4,2.4,0.6,3.9,0.5
					c1.5-0.1,2.8-0.4,3.8-0.9c0.8-0.4,1.2-0.8,1.2-1.3c0-0.3-0.3-0.6-0.7-0.8c-0.4-0.3-0.5-0.8-0.3-1.2c0.2-0.4,0.8-0.5,1.2-0.3
					c1.2,0.7,1.4,1.6,1.5,2.1c0.1,1.1-0.7,2.1-2,2.9c-1.2,0.7-2.8,1-4.4,1.2C-840.4,3275.9-840.7,3275.9-840.9,3275.9z"/>
			</g>
		</g>
		<g>
			<g>
				<path class="st4" d="M-840.4,3285.4c-1.4,0-2.7-0.3-3.8-0.7c-1.4-0.6-2.3-1.5-2.3-2.6c-0.1-1.3,1-2.4,2.9-3.2
					c0.4-0.2,0.9,0.1,1.1,0.5c0.2,0.4,0,0.9-0.5,1.1c-1.3,0.5-1.8,1.2-1.8,1.6c0,0.3,0.5,0.8,1.3,1.1c1,0.4,2.4,0.6,3.9,0.5
					c1.5-0.1,2.8-0.4,3.8-0.9c0.8-0.4,1.2-0.8,1.2-1.3c0-0.3-0.3-0.6-0.7-0.8c-0.4-0.3-0.5-0.8-0.3-1.2c0.3-0.4,0.8-0.5,1.2-0.3
					c1.2,0.7,1.4,1.6,1.5,2.1c0.1,1.1-0.7,2.1-2,2.9c-1.2,0.7-2.8,1-4.4,1.2C-839.8,3285.3-840.2,3285.4-840.4,3285.4z"/>
			</g>
		</g>
	</g>
	<g>
		<g>
			<g class="st9">
				<g>
					
						<rect x="-815.7" y="3140.6" transform="matrix(-0.9983 5.803988e-02 -5.803988e-02 -0.9983 -1397.1741 6361.6753)" class="st7" width="49.5" height="39.9"/>
				</g>
			</g>
			<g>
				<g>
					<path class="st7" d="M-814.5,3182.7c-0.2,0-0.4-0.1-0.6-0.3c-0.2-0.2-0.3-0.3-0.3-0.6l-2.3-39.9c0-0.5,0.3-0.8,0.8-0.9
						l49.4-2.9c0.4,0,0.8,0.3,0.9,0.8l2.3,39.9c0,0.3-0.1,0.4-0.3,0.6c-0.2,0.2-0.3,0.3-0.6,0.3L-814.5,3182.7
						C-814.4,3182.7-814.4,3182.7-814.5,3182.7z M-815.9,3142.9l2.2,38.2l47.7-2.8l-2.2-38.2L-815.9,3142.9z"/>
				</g>
			</g>
		</g>
		<g>
			<g>
				<path class="st7" d="M-765,3179.9c-0.2,0-0.3-0.1-0.5-0.2l-51.8-36.9c-0.3-0.3-0.5-0.8-0.2-1.2c0.3-0.3,0.8-0.5,1.2-0.2
					l51.8,36.9c0.3,0.3,0.5,0.8,0.2,1.2C-764.5,3179.8-764.7,3179.9-765,3179.9z"/>
			</g>
		</g>
		<g>
			<g>
				<path class="st7" d="M-814.5,3182.7c-0.3,0-0.4-0.1-0.6-0.3c-0.3-0.3-0.3-0.8,0.1-1.2l47.2-42.7c0.3-0.3,0.8-0.3,1.2,0.1
					c0.3,0.3,0.3,0.8-0.1,1.2l-47.2,42.7C-814.1,3182.7-814.2,3182.7-814.5,3182.7z"/>
			</g>
		</g>
		<g>
			<g>
				<path class="st7" d="M-749.1,3174.7c-0.4,0-0.8-0.3-0.8-0.8s0.3-0.8,0.8-0.9l40.6-2.3c0.4,0,0.8,0.3,0.9,0.8
					c0,0.5-0.3,0.8-0.8,0.9L-749.1,3174.7C-749,3174.7-749,3174.7-749.1,3174.7z"/>
			</g>
		</g>
		<g>
			<g>
				<path class="st7" d="M-749.5,3166.9c-0.4,0-0.8-0.3-0.8-0.8s0.3-0.8,0.8-0.9l48.9-2.9c0.4,0,0.8,0.3,0.9,0.8
					c0,0.5-0.3,0.8-0.8,0.9L-749.5,3166.9L-749.5,3166.9z"/>
			</g>
		</g>
		<g>
			<g>
				<path class="st7" d="M-750.8,3143.4c-0.4,0-0.8-0.3-0.8-0.8s0.3-0.8,0.8-0.9l48.9-2.9c0.4,0,0.8,0.3,0.9,0.8
					c0,0.5-0.3,0.8-0.8,0.9L-750.8,3143.4L-750.8,3143.4z"/>
			</g>
		</g>
		<g>
			<g>
				<path class="st7" d="M-750,3159c-0.4,0-0.8-0.3-0.8-0.8s0.3-0.8,0.8-0.9l44.8-2.6c0.4,0,0.8,0.3,0.9,0.8c0,0.5-0.3,0.8-0.8,0.9
					L-750,3159C-749.9,3159-749.9,3159-750,3159z"/>
			</g>
		</g>
		<g>
			<g>
				<path class="st7" d="M-750.4,3151.2c-0.4,0-0.8-0.3-0.8-0.8s0.3-0.8,0.8-0.9l40.6-2.3c0.4,0,0.8,0.3,0.9,0.8
					c0,0.5-0.3,0.8-0.8,0.9L-750.4,3151.2L-750.4,3151.2z"/>
			</g>
		</g>
	</g>
	<g>
		<g>
			<g>
				<path class="st7" d="M-792.3,3123.9c-0.4,0-0.8-0.3-0.8-0.8s0.3-0.8,0.8-0.9l20.3-1.1c0.4,0,0.8,0.3,0.9,0.8
					c0,0.5-0.3,0.8-0.8,0.9L-792.3,3123.9L-792.3,3123.9z"/>
			</g>
		</g>
		<g>
			<g>
				<path class="st7" d="M-792.7,3117.6c-0.4,0-0.8-0.3-0.8-0.8s0.3-0.8,0.8-0.9l28-1.6c0.4,0,0.8,0.3,0.9,0.8
					c0,0.5-0.3,0.8-0.8,0.9L-792.7,3117.6C-792.6,3117.6-792.7,3117.6-792.7,3117.6z"/>
			</g>
		</g>
		<g>
			<g class="st9">
				<g>
					<circle class="st7" cx="-810.1" cy="3120.9" r="7.9"/>
				</g>
			</g>
			<g>
				<g>
					<path class="st7" d="M-810.1,3129.6c-2.1,0-4.2-0.8-5.8-2.2c-1.8-1.5-2.8-3.7-2.9-6c-0.2-2.3,0.7-4.5,2.2-6.3s3.7-2.8,6-2.9
						c2.3-0.2,4.5,0.7,6.3,2.2s2.8,3.7,2.9,6c0.2,2.3-0.7,4.5-2.2,6.3c-1.5,1.8-3.7,2.8-6,2.9
						C-809.8,3129.6-810,3129.6-810.1,3129.6z M-810.1,3113.9c-0.2,0-0.3,0-0.4,0c-1.8,0.1-3.6,0.9-4.9,2.3
						c-1.3,1.4-1.8,3.2-1.8,5.1c0.1,1.8,0.9,3.6,2.3,4.9c1.4,1.3,3.2,1.8,5.1,1.8c1.8-0.1,3.6-0.9,4.9-2.3c1.3-1.4,1.8-3.2,1.8-5.1
						c-0.1-1.8-0.9-3.6-2.3-4.9C-806.8,3114.5-808.4,3113.9-810.1,3113.9z"/>
				</g>
			</g>
		</g>
	</g>
	<g>
		<g>
			<g>
				<g>
					<path class="st7" d="M-811.5,3233.7c-0.2,0-0.4-0.1-0.6-0.3c-0.2-0.2-0.3-0.3-0.3-0.6l-1.9-33.8c0-0.5,0.3-0.8,0.8-0.9l31-1.8
						c0.4,0,0.8,0.3,0.9,0.8l1.9,33.8c0,0.5-0.3,0.8-0.8,0.9L-811.5,3233.7L-811.5,3233.7z M-812.6,3199.8l1.8,32.1l29.3-1.7
						l-1.8-32.1L-812.6,3199.8z"/>
				</g>
			</g>
			<g>
				<g>
					<path class="st7" d="M-812.9,3209.9c-0.4,0-0.8-0.3-0.8-0.8s0.3-0.8,0.8-0.9l31-1.8c0.4,0,0.8,0.3,0.9,0.8
						c0,0.5-0.3,0.8-0.8,0.9L-812.9,3209.9C-812.8,3209.9-812.9,3209.9-812.9,3209.9z"/>
				</g>
			</g>
		</g>
		<g>
			<g>
				<g>
					<path class="st7" d="M-769.7,3231.2c-0.2,0-0.4-0.1-0.6-0.3c-0.2-0.2-0.3-0.3-0.3-0.6l-1.9-33.7c0-0.5,0.3-0.8,0.8-0.9l31-1.8
						c0.3,0,0.4,0.1,0.6,0.3c0.2,0.2,0.3,0.3,0.3,0.6l1.9,33.8c0,0.5-0.3,0.8-0.8,0.9L-769.7,3231.2
						C-769.6,3231.2-769.6,3231.2-769.7,3231.2z M-770.7,3197.3l1.8,32.1l29.3-1.7l-1.8-32.1L-770.7,3197.3z"/>
				</g>
			</g>
			<g>
				<g>
					<path class="st7" d="M-771,3207.5c-0.4,0-0.8-0.3-0.8-0.8s0.3-0.8,0.8-0.9l31-1.8c0.4,0,0.8,0.3,0.9,0.8c0,0.5-0.3,0.8-0.8,0.9
						L-771,3207.5L-771,3207.5z"/>
				</g>
			</g>
		</g>
		<g>
			<g>
				<g>
					<path class="st7" d="M-727.8,3228.8c-0.4,0-0.8-0.3-0.8-0.8l-1.9-33.8c0-0.5,0.3-0.8,0.8-0.9l31-1.8c0.3,0,0.4,0.1,0.6,0.3
						s0.3,0.3,0.3,0.6l1.9,33.8c0,0.5-0.3,0.8-0.8,0.9L-727.8,3228.8C-727.7,3228.8-727.8,3228.8-727.8,3228.8z M-728.9,3194.9
						l1.8,32.1l29.3-1.7l-1.8-32.1L-728.9,3194.9z"/>
				</g>
			</g>
			<g>
				<g>
					<path class="st7" d="M-729.2,3205.1c-0.4,0-0.8-0.3-0.8-0.8s0.3-0.8,0.8-0.9l31-1.8c0.4,0,0.8,0.3,0.9,0.8
						c0,0.5-0.3,0.8-0.8,0.9L-729.2,3205.1L-729.2,3205.1z"/>
				</g>
			</g>
		</g>
	</g>
</g>
<g>
	<g>
		<g class="st10">
			<path class="st7" d="M-559.5,3345.1c-0.2,1.6-1.6,2.7-3.1,2.5l2.7,0.4l37.5,7.5c1.6,0.2,5.4-3.4,5.6-4.9l0.2-1.6l4.9-38.4
				l-42.7-5.4l-3.1,2.4L-559.5,3345.1"/>
		</g>
		<g>
			<path class="st7" d="M-522.3,3356.4c-0.1,0-0.2,0-0.2,0l-37.6-7.5l-2.7-0.4c-0.5-0.1-0.8-0.5-0.8-1s0.5-0.8,1-0.8l0,0l0,0
				c1,0.1,1.9-0.5,2.1-1.6l2-37.6c0-0.3,0.2-0.5,0.4-0.6l3.1-2.4c0.2-0.2,0.5-0.2,0.6-0.2l42.7,5.4c0.3,0,0.5,0.2,0.6,0.4
				c0.2,0.2,0.2,0.5,0.2,0.6l-5,39.9C-516.1,3352.5-520.1,3356.4-522.3,3356.4z M-559.4,3347l37.2,7.4c0.9,0.1,4.4-3,4.5-4.1l4.9-39
				l-41.4-5.2l-2.5,1.9l-1.9,37.1c0,0,0,0,0,0.1C-558.7,3345.9-558.9,3346.6-559.4,3347z"/>
		</g>
	</g>
	<g>
		<g>
			<path class="st11" d="M-562.6,3347.5c-0.2,1.6-1.6,2.7-3.1,2.5l2.7,0.4l38.1,4.9l1.8,0.3c1.6,0.2,2.9-0.9,3.1-2.5l0.2-1.6
				l4.9-38.4l-42.7-5.4L-562.6,3347.5"/>
		</g>
		<g class="st12">
			<path class="st13" d="M-562.9,3349.9c0,0.2-1.3,0.2-2.8-0.1l2.7,0.4l38.1,4.9l1.8,0.3c1.6,0.2,2.8,0.2,2.8,0.1v-0.2l0.5-4.2
				l-42.7-5.4L-562.9,3349.9"/>
		</g>
		<g>
			<path class="st7" d="M-522.7,3356.3c-0.2,0-0.3,0-0.5,0l-42.7-5.4c-0.5-0.1-0.8-0.5-0.8-1s0.5-0.8,1-0.8l0,0c1,0.1,2-0.6,2.1-1.6
				l5-39.9c0-0.3,0.2-0.5,0.4-0.6c0.2-0.2,0.5-0.2,0.6-0.2l42.7,5.4c0.5,0.1,0.8,0.5,0.8,1l-5,39.9
				C-519.2,3354.9-520.8,3356.3-522.7,3356.3z M-562.4,3349.4l39.6,5c1,0.2,2-0.6,2.1-1.6l4.9-39l-40.9-5.2l-4.9,39l0,0
				C-561.8,3348.3-562.1,3348.9-562.4,3349.4z"/>
		</g>
	</g>
	<g>
		<line class="st14" x1="-514.8" y1="3312.9" x2="-511.8" y2="3310.6"/>
		<path class="st7" d="M-514.8,3313.9c-0.3,0-0.5-0.1-0.7-0.4c-0.3-0.4-0.3-1,0.2-1.3l3.1-2.4c0.4-0.3,1-0.3,1.3,0.2
			c0.3,0.4,0.3,1-0.2,1.3l-3.1,2.4C-514.4,3313.9-514.6,3313.9-514.8,3313.9z"/>
	</g>
</g>
<g>
	<g>
		<g>
			<path class="st11" d="M-1580.7,3031.9c-0.2,1.6-1.6,2.6-3.2,2.4l2.7,0.4l38,5.2l1.8,0.3c1.6,0.2,2.9-0.8,3.2-2.4l0.2-1.6
				l5.2-38.4l-42.7-5.9L-1580.7,3031.9"/>
		</g>
		<g class="st12">
			<path class="st13" d="M-1581,3034.3c0,0.2-1.3,0.1-2.8-0.1l2.7,0.4l38,5.2l1.8,0.3c1.6,0.2,2.8,0.3,2.8,0.1v-0.2l0.5-4.2
				l-42.7-5.9L-1581,3034.3"/>
		</g>
		<g>
			<path class="st7" d="M-1540.8,3041c-0.2,0-0.4,0-0.5,0l-42.7-5.9l0,0c-0.5-0.1-0.8-0.5-0.8-1s0.5-0.8,1-0.8l0,0
				c0.5,0.1,1-0.1,1.4-0.4c0.4-0.3,0.6-0.7,0.7-1.3l0,0l5.5-39.9c0.1-0.5,0.5-0.8,1-0.8l42.7,5.9c0.3,0,0.5,0.2,0.6,0.4
				c0.1,0.2,0.2,0.5,0.2,0.6l-5.5,39.9C-1537.3,3039.6-1539,3041-1540.8,3041z M-1580.5,3033.8l39.5,5.4c1,0.1,2-0.5,2.1-1.6
				l5.3-38.9l-40.9-5.6l-5.3,38.9l0,0C-1579.8,3032.6-1580.1,3033.2-1580.5,3033.8z"/>
		</g>
	</g>
	<g>
		<path class="st5" d="M-1556.6,3014.1l-2.7-0.4l-0.5,3.1c-0.1,0.4-0.4,0.6-0.7,0.5c-0.4-0.1-0.6-0.4-0.5-0.7l0.5-3.1l-2.7-0.4
			c-0.4,0-0.5-0.4-0.5-0.7s0.4-0.5,0.6-0.5l2.7,0.4l0.4-3c0.1-0.4,0.4-0.6,0.7-0.5c0.4,0.1,0.6,0.4,0.5,0.7l-0.4,3l2.7,0.4
			c0.3,0,0.5,0.4,0.5,0.6C-1555.9,3013.9-1556.2,3014.2-1556.6,3014.1z"/>
		<path class="st5" d="M-1551.8,3020.3c-0.5-0.1-1-0.6-0.9-1.2l1.1-8.2l-1.6,1.3c-0.2,0.2-0.4,0.2-0.6,0.2c-0.5-0.1-0.8-0.5-0.7-1
			c0-0.3,0.2-0.5,0.4-0.6l3-2.3c0.3-0.2,0.5-0.3,0.9-0.3c0.6,0.1,1.2,0.6,1.1,1.4l-1.3,9.8
			C-1550.7,3020-1551.3,3020.4-1551.8,3020.3z"/>
	</g>
</g>
<g>
	<g>
		<g>
			<g>
				<g>
					<path class="st11" d="M-1033.5,3333.6c0,1.6-1.3,2.7-2.8,2.7h2.8l38.4,0.5h1.8c1.6,0,2.8-1.2,2.8-2.7v-1.6l0.5-38.7l-43.1-0.5
						L-1033.5,3333.6"/>
				</g>
			</g>
			<g>
				<g>
					<path class="st11" d="M-1033.5,3333.6c0,1.6-1.3,2.7-2.8,2.7h2.8l38.4,0.5h1.8c1.6,0,2.8-1.2,2.8-2.7v-1.6l0.5-38.7l-43.1-0.5
						L-1033.5,3333.6"/>
				</g>
			</g>
		</g>
		<g class="st12">
			<g>
				<path class="st13" d="M-1033.5,3336.1c0,0.2-1.3,0.3-2.8,0.3h2.8l38.4,0.5h1.8c1.6,0,2.8-0.1,2.8-0.3v-0.2l0.1-4.2l-43.1-0.5
					L-1033.5,3336.1"/>
			</g>
		</g>
		<g>
			<g>
				<path class="st7" d="M-993.2,3337.8C-993.3,3337.8-993.3,3337.8-993.2,3337.8l-43.1-0.5l0,0c-0.5,0-0.9-0.5-0.9-0.9
					c0-0.4,0.5-0.9,0.9-0.9l0,0l0,0c0.5,0,1-0.2,1.4-0.5s0.5-0.8,0.5-1.4l0,0l0.5-40.2c0-0.5,0.5-0.9,0.9-0.9l0,0l43.1,0.5
					c0.3,0,0.5,0.1,0.6,0.3c0.2,0.2,0.3,0.4,0.3,0.6l-0.5,40.2c0,1-0.4,1.9-1.1,2.7C-991.4,3337.4-992.3,3337.8-993.2,3337.8z
					 M-1033.1,3335.5l39.9,0.5c0.5,0,1-0.2,1.4-0.5c0.4-0.4,0.5-0.8,0.5-1.4l0.5-39.3l-41.2-0.5l-0.5,39.3
					C-1032.6,3334.2-1032.8,3334.9-1033.1,3335.5z"/>
			</g>
		</g>
	</g>
	<g>
		<g>
			<path class="st11" d="M-1003.9,3341.2c0.1,1.6-1.1,2.9-2.6,3l2.8-0.2l38.3-2.7l1.8-0.1c1.6-0.1,2.7-1.5,2.6-3l-0.1-1.6l-2.7-38.6
				l-43,3L-1003.9,3341.2"/>
		</g>
		<g class="st12">
			<path class="st13" d="M-1003.7,3343.7c0,0.2-1.2,0.4-2.7,0.5l2.8-0.2l38.3-2.7l1.8-0.1c1.6-0.1,2.7-0.4,2.7-0.5v-0.2l-0.3-4.2
				l-43,3L-1003.7,3343.7"/>
		</g>
		<g>
			<path class="st7" d="M-1006.5,3345.1c-0.5,0-0.9-0.4-0.9-0.8c0-0.5,0.4-0.9,0.8-1l0,0c1-0.1,1.8-1,1.7-2l0,0l-2.8-40.1
				c0-0.5,0.4-0.9,0.8-1l43-3c0.3,0,0.5,0.1,0.6,0.2c0.2,0.1,0.3,0.4,0.3,0.6l2.8,40.1c0.1,1-0.3,1.9-0.9,2.7s-1.6,1.2-2.6,1.3
				L-1006.5,3345.1L-1006.5,3345.1L-1006.5,3345.1z M-1003,3341.1c0.1,0.7-0.1,1.4-0.4,1.9l39.8-2.8c1-0.1,1.8-1,1.7-2l-2.7-39.2
				l-41.1,2.9L-1003,3341.1z"/>
		</g>
	</g>
	<g>
		<circle class="st7" cx="-980.6" cy="3334" r="2.7"/>
	</g>
	<g>
		<circle class="st7" cx="-970.3" cy="3333" r="2.7"/>
	</g>
	<g>
		<path class="st7" d="M-998.4,3312.3c-0.5,0-0.9-0.4-0.9-0.8c0-0.5,0.4-0.9,0.8-1l28.2-2.1c0.5,0,0.9,0.4,1,0.8
			c0,0.5-0.4,0.9-0.8,1L-998.4,3312.3L-998.4,3312.3z"/>
	</g>
	<g>
		<path class="st7" d="M-996.6,3319.7c-0.5,0-0.9-0.4-0.9-0.8c0-0.5,0.4-0.9,0.8-1l16-1.1c0.5,0,0.9,0.4,1,0.8c0,0.5-0.4,0.9-0.8,1
			L-996.6,3319.7L-996.6,3319.7z"/>
	</g>
</g>
<g>
	<g>
		<path class="st5" d="M-1801.5,3144.5l-0.7-4.2c0,0,19.5-10.7,23.4-13.9c5.6-4.5,14.8-16.6,14.8-16.6l17.3-3.1
			c0,0,10.5,7.5,16.6,9.4c5.5,1.8,29.9,5.8,29.9,5.8l0.7,4.2L-1801.5,3144.5z"/>
		<path class="st4" d="M-1801.5,3145.2c-0.3,0-0.6-0.2-0.7-0.5l-0.7-4.2c-0.1-0.3,0.1-0.5,0.3-0.7c0.2-0.1,19.5-10.8,23.4-13.8
			c5.5-4.4,14.6-16.4,14.7-16.5c0.1-0.1,0.3-0.2,0.4-0.3l17.3-3.1c0.2,0,0.3,0,0.5,0.1c0.1,0.1,10.5,7.4,16.4,9.3
			c5.4,1.8,29.5,5.8,29.8,5.8c0.3,0.1,0.5,0.3,0.5,0.5l0.7,4.2c0,0.2,0,0.3-0.1,0.5c-0.1,0.1-0.3,0.3-0.4,0.3L-1801.5,3145.2
			C-1801.4,3145.2-1801.4,3145.2-1801.5,3145.2z M-1801.5,3140.7l0.5,3l100.8-18.1l-0.5-3c-3.5-0.6-24.4-4.1-29.5-5.8
			c-5.7-1.9-14.9-8.3-16.5-9.3l-16.8,3c-1.3,1.7-9.5,12.3-14.8,16.5C-1782,3129.9-1798.5,3139.1-1801.5,3140.7z"/>
	</g>
	<g>
		
			<rect x="-1830.3" y="3189.2" transform="matrix(-0.1769 -0.9842 0.9842 -0.1769 -5194.4038 2052.05)" class="st15" width="182.3" height="17.6"/>
		<path class="st4" d="M-1731.7,3290c-0.3,0-0.6-0.2-0.7-0.5l-32.2-179.6c-0.1-0.3,0.2-0.7,0.5-0.8l17.3-3.1c0.2,0,0.3,0,0.5,0.1
			c0.1,0.1,0.3,0.3,0.3,0.4l32.2,179.6c0,0.2,0,0.3-0.1,0.5c-0.1,0.2-0.3,0.3-0.4,0.3L-1731.7,3290
			C-1731.7,3290-1731.7,3290-1731.7,3290z M-1763.2,3110.4l32,178.2l16-2.9l-32-178.2L-1763.2,3110.4z"/>
	</g>
	<g>
		<circle class="st16" cx="-1725.2" cy="3276.2" r="3.2"/>
		<path class="st4" d="M-1725.2,3280.1c-0.8,0-1.5-0.3-2.2-0.7c-0.9-0.6-1.4-1.5-1.6-2.5c-0.2-1,0.1-2,0.6-2.9
			c0.6-0.9,1.5-1.4,2.5-1.6c1-0.2,2,0.1,2.9,0.6c0.9,0.6,1.4,1.5,1.6,2.5c0.2,1-0.1,2-0.6,2.9c-0.6,0.9-1.5,1.4-2.5,1.6l0,0
			C-1724.7,3280-1724.9,3280.1-1725.2,3280.1z M-1725.1,3273.7c-0.1,0-0.3,0-0.5,0.1c-0.7,0.1-1.2,0.5-1.6,1.1
			c-0.4,0.6-0.5,1.2-0.4,1.9c0.1,0.7,0.5,1.2,1.1,1.6c0.5,0.4,1.2,0.5,1.9,0.4l0,0c0.7-0.1,1.2-0.5,1.6-1.1c0.4-0.6,0.5-1.2,0.4-1.9
			c-0.1-0.7-0.5-1.2-1.1-1.6C-1724.1,3273.9-1724.6,3273.7-1725.1,3273.7z"/>
	</g>
	<g>
		<path class="st4" d="M-1727.6,3263.1c-0.3,0-0.6-0.2-0.7-0.5l-25.4-141.4c-0.1-0.3,0.2-0.7,0.5-0.8c0.3-0.1,0.7,0.2,0.8,0.5
			l25.4,141.4C-1726.9,3262.6-1727.2,3263-1727.6,3263.1L-1727.6,3263.1z"/>
	</g>
</g>
<g>
	<g>
		<g>
			<path class="st8" d="M-1319.7,3472l-173.1-9.2c-4.4-0.2-7.8-4-7.6-8.4l7.1-134.8c0.2-4.4,4-7.8,8.4-7.6l173.1,9.2
				c4.4,0.2,7.8,4,7.6,8.4l-7.1,134.8C-1311.5,3468.9-1315.4,3472.2-1319.7,3472z"/>
		</g>
		<g>
			<path class="st7" d="M-1319.4,3473c-0.2,0-0.3,0-0.5,0l0,0l-173.1-9.2c-5-0.3-8.8-4.5-8.5-9.5l7.1-134.8c0.1-2.4,1.1-4.6,3-6.2
				s4.1-2.4,6.5-2.3l173.1,9.2c2.4,0.1,4.6,1.1,6.2,3c1.6,1.9,2.4,4.1,2.3,6.5l-7.1,134.8C-1310.6,3469.2-1314.6,3473-1319.4,3473z
				 M-1319.7,3471.1c3.9,0.2,7.3-2.8,7.4-6.7l7.1-134.8c0.1-1.9-0.6-3.7-1.8-5.2c-1.2-1.4-3-2.2-4.9-2.3l-173-9.2
				c-1.9-0.1-3.7,0.6-5.2,1.8c-1.4,1.2-2.2,3-2.3,4.9l-7.1,134.8c-0.2,3.9,2.8,7.3,6.7,7.4L-1319.7,3471.1z"/>
		</g>
	</g>
	<g>
		<g class="st9">
			<g>
				
					<rect x="-1496.2" y="3332.5" transform="matrix(-0.9986 -5.267928e-02 5.267928e-02 -0.9986 -2979.0332 6677.6665)" class="st7" width="189.4" height="91.2"/>
			</g>
		</g>
		<g>
			<g>
				<path class="st7" d="M-1309.4,3429.5L-1309.4,3429.5l-189.1-10c-0.6,0-1-0.5-0.9-1.1l4.8-91.1c0-0.3,0.1-0.5,0.3-0.7
					c0.2-0.2,0.5-0.3,0.7-0.3l189.1,9.9c0.6,0,1,0.5,0.9,1.1l-4.8,91.1c0,0.3-0.1,0.5-0.3,0.7
					C-1309,3429.4-1309.2,3429.5-1309.4,3429.5z M-1497.5,3417.7l187.2,9.8l4.7-89.2l-187.2-9.8L-1497.5,3417.7z"/>
			</g>
		</g>
	</g>
	<g>
		<g>
			<g>
				<path class="st7" d="M-1480.7,3322.8L-1480.7,3322.8c-1.4-0.1-2.4-1.1-2.4-2.5c0.1-1.3,1.2-2.3,2.5-2.3c0.7,0,1.2,0.3,1.6,0.8
					c0.4,0.5,0.7,1.1,0.6,1.7l0,0C-1478.4,3321.7-1479.5,3322.8-1480.7,3322.8z M-1480.7,3319.9c-0.3,0-0.5,0.2-0.5,0.5
					c0,0.2,0.1,0.3,0.1,0.3c0,0.1,0.2,0.2,0.3,0.2c0.2,0,0.3-0.1,0.3-0.1c0.1-0.1,0.2-0.2,0.2-0.3l0,0c0-0.2-0.1-0.3-0.1-0.4
					S-1480.5,3319.9-1480.7,3319.9L-1480.7,3319.9z"/>
			</g>
		</g>
		<g>
			<g>
				<path class="st7" d="M-1474.8,3323.1L-1474.8,3323.1c-0.8,0-1.3-0.3-1.7-0.8s-0.7-1.1-0.6-1.7c0-0.7,0.3-1.2,0.8-1.6
					s1.1-0.7,1.7-0.6c1.3,0.1,2.3,1.1,2.2,2.5l0,0c0,0.7-0.3,1.2-0.8,1.6C-1473.6,3322.9-1474.2,3323.1-1474.8,3323.1z
					 M-1474.8,3320.2c-0.2,0-0.3,0.1-0.3,0.1c-0.1,0-0.2,0.2-0.2,0.3c0,0.2,0.1,0.3,0.1,0.3c0.1,0.1,0.2,0.2,0.3,0.2
					c0.2,0,0.3-0.1,0.3-0.1c0.1,0,0.2-0.2,0.2-0.3l0,0c0-0.2-0.1-0.3-0.1-0.3C-1474.5,3320.3-1474.6,3320.2-1474.8,3320.2
					L-1474.8,3320.2z"/>
			</g>
		</g>
		<g>
			<g>
				<path class="st7" d="M-1468.9,3323.4L-1468.9,3323.4c-1.4-0.1-2.4-1.1-2.4-2.5c0-0.7,0.3-1.2,0.8-1.6s1.1-0.7,1.7-0.6
					c1.3,0.1,2.3,1.1,2.3,2.5l0,0C-1466.6,3322.4-1467.6,3323.4-1468.9,3323.4z M-1468.9,3320.5c-0.2,0-0.3,0.1-0.3,0.1
					c-0.1,0-0.2,0.2-0.2,0.3c0,0.3,0.2,0.5,0.5,0.5c0.3,0,0.5-0.2,0.5-0.5l0,0C-1468.4,3320.8-1468.6,3320.6-1468.9,3320.5
					L-1468.9,3320.5z"/>
			</g>
		</g>
	</g>
	<g>
		<g>
			<path class="st13" d="M-1375.6,3392.8l-53.5-2.9c-2.7-0.1-4.8-2.4-4.6-5.2l0,0c0.1-2.7,2.4-4.8,5.2-4.6l53.5,2.9
				c2.7,0.1,4.8,2.4,4.6,5.2l0,0C-1370.6,3390.9-1372.9,3393-1375.6,3392.8z"/>
		</g>
		<g>
			<path class="st7" d="M-1375.3,3393.7c-0.1,0-0.2,0-0.3,0l-53.5-2.9c-3.2-0.2-5.6-2.9-5.5-6.1c0.1-1.5,0.8-3,1.9-4
				c1.1-1.1,2.7-1.5,4.2-1.5l53.5,2.9c1.5,0.1,3,0.8,4,1.9c1.1,1.1,1.5,2.7,1.5,4.2c-0.1,1.5-0.8,3-1.9,4
				C-1372.4,3393.2-1373.9,3393.7-1375.3,3393.7z M-1428.8,3381.2c-1,0-1.9,0.4-2.6,1c-0.8,0.7-1.2,1.6-1.2,2.7
				c-0.1,1.1,0.3,2,1,2.9c0.7,0.8,1.6,1.2,2.7,1.2l53.5,2.9l0,0c1.1,0.1,2-0.3,2.9-1c0.8-0.7,1.2-1.6,1.2-2.7c0.1-1.1-0.3-2-1-2.9
				c-0.7-0.8-1.6-1.2-2.7-1.2l-53.5-2.9C-1428.7,3381.2-1428.7,3381.2-1428.8,3381.2z"/>
		</g>
	</g>
	<g>
		<g>
			<g>
				<path class="st7" d="M-1367.2,3354.7C-1367.2,3354.7-1367.3,3354.7-1367.2,3354.7l-66.1-3.4c-0.6,0-1-0.5-0.9-1.1
					c0-0.6,0.5-1,1.1-0.9l66,3.4c0.6,0,1,0.5,0.9,1.1C-1366.2,3354.3-1366.7,3354.7-1367.2,3354.7z"/>
			</g>
		</g>
		<g>
			<g>
				<path class="st7" d="M-1373.2,3368.1L-1373.2,3368.1l-55.6-3c-0.6,0-1-0.5-0.9-1.1c0-0.6,0.5-1,1.1-0.9l55.5,3
					c0.6,0,1,0.5,0.9,1.1C-1372.3,3367.7-1372.6,3368.1-1373.2,3368.1z"/>
			</g>
		</g>
		<g>
			<g>
				<path class="st7" d="M-1350.9,3362.4L-1350.9,3362.4l-99.5-5.3c-0.6,0-1-0.5-0.9-1.1c0-0.6,0.5-1,1.1-0.9l99.5,5.3
					c0.6,0,1,0.5,0.9,1.1C-1349.9,3362-1350.3,3362.4-1350.9,3362.4z"/>
			</g>
		</g>
	</g>
</g>
<g>
	<g>
		<g>
			<g class="st17">
				<g>
					<path class="st5" d="M-1060.2,3044.8l-163.4,17c-4.2,0.5-8-2.6-8.3-6.8l-13.3-127.3c-0.5-4.2,2.6-8,6.8-8.3l163.5-17
						c4.2-0.5,8,2.6,8.3,6.8l13.2,127.3C-1053,3040.7-1056,3044.4-1060.2,3044.8z"/>
				</g>
			</g>
			<g>
				<g>
					<path class="st4" d="M-1224.4,3062.9c-4.3,0-8.1-3.3-8.5-7.6l-13.2-127.4c-0.3-2.3,0.5-4.5,1.9-6.2c1.4-1.7,3.4-2.9,5.7-3.1
						l163.5-17c2.3-0.3,4.5,0.5,6.2,1.9c1.7,1.4,2.9,3.4,3.1,5.7l13.2,127.3c0.5,4.7-2.9,8.9-7.6,9.3l0,0l-163.4,17
						C-1223.8,3062.8-1224.1,3062.9-1224.4,3062.9z M-1074.2,2903.3c-0.3,0-0.5,0-0.7,0l-163.4,17c-1.8,0.2-3.3,1.1-4.5,2.4
						c-1.1,1.4-1.6,3.2-1.4,4.9l13.2,127.4c0.4,3.7,3.7,6.3,7.3,6l163.5-17c3.7-0.4,6.3-3.7,6-7.3l-13.2-127.3
						c-0.2-1.8-1.1-3.3-2.4-4.5C-1071.2,2903.8-1072.7,2903.3-1074.2,2903.3z"/>
				</g>
			</g>
		</g>
	</g>
	<g>
		<g>
			<path class="st13" d="M-1212.6,3002.6c-0.5,0-0.8-0.4-0.9-0.8c-0.1-0.5,0.4-0.9,0.8-1l62-6.3c0.5-0.1,0.9,0.4,1,0.8
				c0.1,0.5-0.4,0.9-0.8,1L-1212.6,3002.6L-1212.6,3002.6z"/>
		</g>
		<g>
			<path class="st13" d="M-1208.6,3042.2c-0.5,0-0.8-0.4-0.9-0.8c-0.1-0.5,0.4-0.9,0.8-1l28.7-3c0.5,0,0.9,0.4,1,0.8
				c0.1,0.5-0.4,0.9-0.8,1L-1208.6,3042.2L-1208.6,3042.2z"/>
		</g>
		<g>
			<path class="st13" d="M-1171.6,3038.5c-0.5,0-0.8-0.4-0.9-0.8c-0.1-0.5,0.4-0.9,0.8-1l9.8-1c0.5-0.1,0.9,0.4,1,0.8
				c0.1,0.5-0.4,0.9-0.8,1L-1171.6,3038.5L-1171.6,3038.5z"/>
		</g>
		<g>
			<path class="st13" d="M-1152.2,3036.5c-0.5,0-0.8-0.4-0.9-0.8c-0.1-0.5,0.4-0.9,0.8-1l23-2.4c0.5-0.1,0.9,0.4,1,0.8
				c0.1,0.5-0.4,0.9-0.8,1L-1152.2,3036.5C-1152.1,3036.5-1152.1,3036.5-1152.2,3036.5z"/>
		</g>
		<g>
			<g>
				<path class="st13" d="M-1192.8,3008.3c-0.5,0-0.8-0.4-0.9-0.8c-0.1-0.5,0.4-0.9,0.8-1l27-2.8c0.5,0,0.9,0.4,1,0.8
					c0.1,0.5-0.4,0.9-0.8,1L-1192.8,3008.3C-1192.7,3008.3-1192.7,3008.3-1192.8,3008.3z"/>
			</g>
			<g>
				<path class="st13" d="M-1159.6,3004.9c-0.5,0-0.8-0.4-0.9-0.8c-0.1-0.5,0.4-0.9,0.8-1l13.5-1.4c0.5,0,0.9,0.4,1,0.8
					c0.1,0.5-0.4,0.9-0.8,1L-1159.6,3004.9C-1159.5,3004.9-1159.6,3004.9-1159.6,3004.9z"/>
			</g>
			<g>
				<path class="st13" d="M-1139.1,3002.9c-0.5,0-0.8-0.4-0.9-0.8c-0.1-0.5,0.4-0.9,0.8-1l13.5-1.4c0.5-0.1,0.9,0.4,1,0.8
					c0.1,0.5-0.4,0.9-0.8,1L-1139.1,3002.9L-1139.1,3002.9z"/>
			</g>
		</g>
		<g>
			<g>
				<path class="st13" d="M-1172.4,3029.5c-0.5,0-0.8-0.4-0.9-0.8c-0.1-0.5,0.4-0.9,0.8-1l25-2.6c0.5-0.1,0.9,0.4,1,0.8
					c0.1,0.5-0.4,0.9-0.8,1L-1172.4,3029.5L-1172.4,3029.5z"/>
			</g>
			<g>
				<path class="st13" d="M-1190.7,3031.4c-0.5,0-0.8-0.4-0.9-0.8c-0.1-0.5,0.4-0.9,0.8-1l12.5-1.3c0.5,0,0.9,0.4,1,0.8
					c0.1,0.5-0.4,0.9-0.8,1L-1190.7,3031.4C-1190.6,3031.4-1190.6,3031.4-1190.7,3031.4z"/>
			</g>
			<g>
				<path class="st13" d="M-1209.5,3033.4c-0.5,0-0.8-0.4-0.9-0.8c-0.1-0.4,0.4-0.9,0.8-1l12.5-1.3c0.5-0.1,0.9,0.4,1,0.8
					c0.1,0.5-0.4,0.9-0.8,1L-1209.5,3033.4L-1209.5,3033.4z"/>
			</g>
		</g>
		<g>
			<g>
				<path class="st13" d="M-1191.2,3023.6c-0.5,0-0.8-0.4-0.9-0.8c-0.1-0.5,0.4-0.9,0.8-1l13.5-1.4c0.5,0,0.9,0.4,1,0.8
					c0.1,0.4-0.4,0.9-0.8,1L-1191.2,3023.6C-1191.1,3023.6-1191.2,3023.6-1191.2,3023.6z"/>
			</g>
			<g>
				<path class="st13" d="M-1170.7,3021.5c-0.5,0-0.8-0.4-0.9-0.8c-0.1-0.5,0.4-0.9,0.8-1l13.5-1.4c0.5,0,0.9,0.4,1,0.8
					c0.1,0.4-0.4,0.9-0.8,1L-1170.7,3021.5L-1170.7,3021.5z"/>
			</g>
		</g>
		<g>
			<g>
				<path class="st13" d="M-1192,3016c-0.5,0-0.8-0.4-0.9-0.8c-0.1-0.5,0.4-0.9,0.8-1l39.9-4.1c0.5-0.1,0.9,0.4,1,0.8
					c0.1,0.5-0.4,0.9-0.8,1L-1192,3016C-1191.9,3016-1192,3016-1192,3016z"/>
			</g>
			<g>
				<path class="st13" d="M-1144.8,3011.2c-0.5,0-0.8-0.4-0.9-0.8c-0.1-0.5,0.4-0.9,0.8-1l44.2-4.5c0.5-0.1,0.9,0.4,1,0.8
					c0.1,0.5-0.4,0.9-0.8,1L-1144.8,3011.2C-1144.7,3011.2-1144.8,3011.2-1144.8,3011.2z"/>
			</g>
		</g>
	</g>
</g>
</svg>
