<?xml version="1.0" encoding="utf-8"?>
<!-- Generator: Adobe Illustrator 19.0.1, SVG Export Plug-In . SVG Version: 6.00 Build 0)  -->
<svg version="1.1" id="Layer_1" xmlns="http://www.w3.org/2000/svg" xmlns:xlink="http://www.w3.org/1999/xlink" x="0px" y="0px"
	 viewBox="376.1 197 1477.9 400" style="enable-background:new 376.1 197 1477.9 400;" xml:space="preserve">
<style type="text/css">
	.st0{fill:#F7F7F7;}
	.st1{fill:#007199;}
	.st2{opacity:0.18;}
	.st3{fill:#86888A;}
	.st4{fill:#007AA5;}
	.st5{fill:#0980BA;}
	.st6{fill:#67B4D6;}
	.st7{fill:#0081BA;}
	.st8{fill:#FFFFFF;}
	.st9{opacity:0.3;}
	.st10{opacity:0.7;}
	.st11{fill:#DFEEF2;}
	.st12{opacity:0.51;}
	.st13{fill:#99CBE1;}
	.st14{fill:none;}
	.st15{fill:#E7E7E8;}
	.st16{fill:#F4F4F4;}
	.st17{opacity:0.82;}
</style>
<g id="Layer_1_1_">
	<g>
		<rect x="376.1" y="197.8" class="st0" width="1477.9" height="399.2"/>
	</g>
</g>
<g>
	<g>
		<g>
			<path class="st1" d="M1695.2,367l-3.6-0.3c0,0-0.2,3.3-0.2,4.4s0.5,4.5,0.5,4.5l1.3,0.1c0,0,1.1-3.2,1.3-4.3
				C1694.8,370.3,1695.2,367,1695.2,367z"/>
		</g>
		<g>
			<path class="st1" d="M1693.4,376.6C1693.3,376.6,1693.3,376.6,1693.4,376.6l-1.4-0.2c-0.4,0-0.7-0.3-0.7-0.7
				c0-0.2-0.5-3.4-0.6-4.6c0-1.2,0.2-4.4,0.2-4.6c0-0.2,0.1-0.4,0.3-0.6c0.2-0.2,0.4-0.2,0.6-0.2l3.6,0.3c0.2,0,0.4,0.2,0.6,0.3
				c0.2,0.2,0.2,0.4,0.2,0.6c0,0.2-0.3,3.4-0.6,4.5c-0.2,1.2-1.3,4.3-1.3,4.4C1694,376.4,1693.7,376.6,1693.4,376.6z M1692.7,374.9
				L1692.7,374.9c0.3-1,1-2.9,1.2-3.7c0.2-0.7,0.3-2.4,0.5-3.5l-1.8-0.2c-0.1,1.1-0.2,2.8-0.2,3.5
				C1692.3,371.9,1692.5,373.9,1692.7,374.9z"/>
		</g>
	</g>
	<g>
		<g class="st2">
			<g>
				
					<rect x="1692.2" y="297.6" transform="matrix(0.996 8.937655e-02 -8.937655e-02 0.996 35.7788 -150.3905)" class="st3" width="9.9" height="53.5"/>
			</g>
		</g>
		<g>
			<g>
				<path class="st4" d="M1699.8,352.1L1699.8,352.1l-10-0.9c-0.2,0-0.4-0.2-0.6-0.3c-0.2-0.2-0.2-0.4-0.2-0.6l4.7-53.2
					c0-0.4,0.4-0.8,0.9-0.7l9.9,0.9c0.2,0,0.4,0.2,0.6,0.3c0.2,0.2,0.2,0.4,0.2,0.6l-4.7,53.2
					C1700.6,351.8,1700.3,352.1,1699.8,352.1z M1690.9,349.7l8.2,0.7l4.7-51.6l-8.2-0.7L1690.9,349.7z"/>
			</g>
		</g>
	</g>
	<g>
		<g>
			<path class="st5" d="M1699.8,351.1l-9.9-0.9c0,0-0.7,8.2-0.5,11c0.2,2.7,1.6,11.1,1.6,11.1l3.7,0.3c0,0,2.9-8,3.6-10.7
				C1699,359.3,1699.8,351.1,1699.8,351.1z"/>
		</g>
		<g>
			<path class="st4" d="M1694.8,373.5L1694.8,373.5l-3.8-0.3c-0.4,0-0.7-0.3-0.7-0.7c-0.1-0.3-1.5-8.5-1.6-11.2
				c-0.2-2.8,0.5-10.7,0.5-11.1c0-0.2,0.1-0.4,0.3-0.6c0.2-0.2,0.4-0.2,0.6-0.2l9.9,0.9c0.2,0,0.4,0.2,0.6,0.3
				c0.2,0.2,0.2,0.4,0.2,0.6c0,0.3-0.8,8.2-1.4,11c-0.7,2.7-3.5,10.5-3.6,10.8C1695.5,373.3,1695.2,373.5,1694.8,373.5z
				 M1691.8,371.5l2.5,0.2c0.7-1.9,2.8-7.8,3.3-10c0.5-2.1,1.1-7.8,1.3-10l-8.2-0.7c-0.2,2.2-0.6,7.8-0.4,10
				C1690.4,363.4,1691.4,369.5,1691.8,371.5z"/>
		</g>
	</g>
	<g>
		<g>
			<polygon class="st5" points="1707.4,282 1711.5,287.4 1709.1,314.1 1705.4,313.8 1705.7,309.1 1707.8,308.1 1709,294.3 
				1706.6,291.1 			"/>
		</g>
		<g>
			<path class="st4" d="M1709.1,315C1709,315,1709,315,1709.1,315l-3.7-0.3c-0.4,0-0.7-0.4-0.7-0.9l0.3-4.7c0-0.2,0.2-0.6,0.4-0.7
				l1.7-0.8l1.2-12.9l-2.2-3c-0.1-0.2-0.2-0.3-0.2-0.6l0.8-9.1c0-0.3,0.2-0.7,0.6-0.7s0.7,0,0.9,0.3l4.1,5.4
				c0.1,0.2,0.2,0.3,0.2,0.6l-2.5,26.7c0,0.2-0.2,0.4-0.3,0.6C1709.4,315,1709.2,315,1709.1,315z M1706.3,313.1l2,0.2l2.3-25.6
				l-2.6-3.4l-0.6,6.7l2.2,3c0.1,0.2,0.2,0.3,0.2,0.6l-1.2,13.7c0,0.2-0.2,0.5-0.4,0.7l-1.7,0.8L1706.3,313.1z"/>
		</g>
	</g>
	<g>
		<g>
			<path class="st5" d="M1704.8,304.7l-11.6-1.1l2.7-29.3c0,0,0.6-6.3,6.3-5.7c5.8,0.5,5.2,6.8,5.2,6.8L1704.8,304.7z"/>
		</g>
		<g>
			<path class="st4" d="M1704.8,305.5L1704.8,305.5l-11.6-1.1c-0.2,0-0.4-0.2-0.6-0.3c-0.2-0.2-0.2-0.4-0.2-0.6l2.7-29.3
				c0.2-2.5,2-7,7.2-6.5c1.8,0.2,3.3,0.9,4.4,2.2c1.9,2.2,1.6,5.4,1.6,5.6l-2.7,29.3C1705.7,305.2,1705.2,305.5,1704.8,305.5z
				 M1694.2,302.9l9.9,0.9l2.6-28.4c0-0.2,0.4-5.5-4.5-5.9c-4.9-0.4-5.4,4.8-5.5,5L1694.2,302.9z"/>
		</g>
	</g>
</g>
<g>
	<g>
		<g>
			<path class="st6" d="M1578.2,485l-153.2,8.9c-3.4,0.2-6.2-2.3-6.5-5.7L1407.8,302c-0.2-3.4,2.3-6.2,5.7-6.5l153.2-8.9
				c3.4-0.2,6.2,2.3,6.5,5.7l10.8,186.2C1584.2,481.9,1581.6,484.8,1578.2,485z"/>
		</g>
		<g>
			<path class="st7" d="M1424.7,494.8c-1.7,0-3.4-0.6-4.6-1.8c-1.3-1.3-2.2-2.9-2.3-4.8L1407,302c-0.1-1.8,0.5-3.6,1.8-5
				c1.3-1.4,2.9-2.2,4.8-2.3l153.2-8.9c1.8-0.1,3.6,0.5,5,1.8c1.3,1.3,2.2,2.9,2.3,4.8l10.8,186.2c0.1,1.8-0.5,3.6-1.8,5
				c-1.3,1.3-2.9,2.2-4.8,2.3l-153.2,8.9C1424.9,494.8,1424.9,494.8,1424.7,494.8z M1567.1,287.5c-0.1,0-0.2,0-0.3,0l-153.2,8.9
				c-2.9,0.2-5.1,2.7-5,5.5l10.8,186.2c0.1,1.4,0.7,2.7,1.8,3.6c1,0.9,2.3,1.4,3.8,1.3l153.2-8.9l0,0c1.4-0.1,2.7-0.7,3.6-1.8
				c0.9-1,1.4-2.4,1.3-3.8l-10.7-186.2c-0.1-1.4-0.7-2.7-1.8-3.6C1569.6,287.9,1568.4,287.5,1567.1,287.5z"/>
		</g>
	</g>
	<g>
		<g>
			<path class="st8" d="M1583.3,481.1l-155.9,9.1c-2.6,0.2-4.9-1.8-5-4.4l-11-188.9c-0.2-2.6,1.8-4.9,4.4-5l155.9-9.1
				c2.6-0.2,4.9,1.8,5,4.4l11,188.9C1587.9,478.7,1585.9,480.9,1583.3,481.1z"/>
		</g>
		<g>
			<path class="st7" d="M1427.1,491c-2.9,0-5.4-2.3-5.5-5.3l-11-188.9c-0.1-1.5,0.4-2.9,1.4-4s2.3-1.8,3.9-1.8l155.9-9.1
				c3.1-0.2,5.7,2.2,5.9,5.3l11,188.9c0.1,1.5-0.4,2.9-1.4,4s-2.3,1.8-3.9,1.8l-155.9,9.1C1427.4,491,1427.3,491,1427.1,491z
				 M1572,283.6c-0.1,0-0.2,0-0.3,0l-155.9,9.1c-1,0.1-2,0.5-2.7,1.3c-0.7,0.8-1,1.8-1,2.9l11,188.9c0.1,1,0.5,2,1.3,2.7
				c0.8,0.7,1.8,1,2.9,1l155.9-9.1l0,0c1-0.1,2-0.5,2.7-1.3s1-1.8,1-2.9l-11-188.9c-0.1-1-0.5-2-1.3-2.7
				C1574,284,1573,283.6,1572,283.6z"/>
		</g>
	</g>
	<g>
		<g class="st9">
			<g>
				<path class="st7" d="M1564.1,456.4l-112.8,6.5c-0.5,0-0.9-0.3-1-0.8l-0.5-8.8c0-0.5,0.3-0.9,0.8-1l112.8-6.5
					c0.5,0,0.9,0.3,1,0.8l0.5,8.8C1564.9,455.9,1564.6,456.4,1564.1,456.4z"/>
			</g>
		</g>
		<g>
			<g>
				<path class="st7" d="M1451.2,463.8c-0.4,0-0.8-0.2-1.2-0.4c-0.3-0.3-0.6-0.8-0.6-1.2l-0.5-8.8c0-0.5,0.2-0.9,0.4-1.3
					c0.3-0.3,0.8-0.6,1.2-0.6l112.8-6.5c0.5,0,0.9,0.2,1.3,0.4c0.3,0.3,0.6,0.8,0.6,1.2l0.5,8.8c0.1,1-0.7,1.8-1.7,1.8l0,0
					L1451.2,463.8L1451.2,463.8z M1563.5,446.6L1563.5,446.6l-112.8,6.5l-0.1,0.1l0.5,8.8l0.1,0.1l112.8-6.5l0.1-0.1L1563.5,446.6
					L1563.5,446.6z"/>
			</g>
		</g>
	</g>
	<g>
		<g>
			<g>
				<path class="st4" d="M1409.2,305.1c-3.4,0-6-1.3-6.1-3.2c-0.1-1.3,1-2.4,2.9-3.2c0.4-0.2,0.9,0,1.1,0.5c0.2,0.4-0.1,0.9-0.5,1.1
					c-1.3,0.5-1.8,1.2-1.8,1.6c0.1,0.8,2,1.8,5.1,1.6c1.4-0.1,2.8-0.4,3.8-0.9c0.8-0.4,1.2-0.8,1.2-1.3c0-0.3-0.3-0.6-0.7-0.8
					c-0.4-0.3-0.5-0.8-0.3-1.2s0.8-0.5,1.2-0.3c1.2,0.7,1.4,1.6,1.5,2.2c0.1,1.1-0.7,2.1-2,2.9c-1.2,0.7-2.8,1-4.4,1.2
					C1409.7,305.1,1409.4,305.1,1409.2,305.1z"/>
			</g>
		</g>
		<g>
			<g>
				<path class="st4" d="M1409.8,314.6c-3.4,0-6-1.3-6.1-3.2c-0.1-1.3,1-2.4,2.9-3.2c0.4-0.2,0.9,0,1.1,0.5c0.2,0.4-0.1,0.9-0.5,1.1
					c-1.3,0.5-1.8,1.2-1.8,1.6c0.1,0.8,2.1,1.8,5.1,1.6c1.4-0.1,2.8-0.4,3.8-0.9c0.8-0.4,1.2-0.8,1.2-1.3c0-0.3-0.3-0.6-0.7-0.8
					c-0.4-0.2-0.5-0.8-0.3-1.2s0.8-0.5,1.2-0.3c1.2,0.8,1.4,1.6,1.5,2.1c0.1,1.1-0.7,2.1-2,2.9c-1.2,0.7-2.8,1-4.4,1.2
					C1410.3,314.6,1410,314.6,1409.8,314.6z"/>
			</g>
		</g>
		<g>
			<g>
				<path class="st4" d="M1410.3,324c-1.4,0-2.7-0.3-3.8-0.7c-1.4-0.6-2.3-1.5-2.3-2.6c-0.1-1.3,1-2.4,2.9-3.2
					c0.4-0.2,0.9,0.1,1.1,0.5s-0.1,0.9-0.5,1.1c-1.3,0.5-1.8,1.2-1.8,1.6c0,0.3,0.5,0.8,1.3,1.1c1,0.4,2.4,0.6,3.9,0.5
					c1.4-0.1,2.8-0.4,3.8-0.9c0.8-0.4,1.2-0.8,1.2-1.3c0-0.3-0.3-0.6-0.7-0.8c-0.4-0.2-0.5-0.8-0.3-1.2c0.2-0.4,0.8-0.5,1.2-0.3
					c1.2,0.7,1.4,1.6,1.5,2.2c0.1,1.1-0.7,2.1-2,2.9c-1.2,0.7-2.8,1-4.4,1.2C1410.8,324,1410.5,324,1410.3,324z"/>
			</g>
		</g>
		<g>
			<g>
				<path class="st4" d="M1410.8,333.4c-1.4,0-2.7-0.3-3.8-0.7c-1.4-0.6-2.3-1.5-2.3-2.6c-0.1-1.3,1-2.4,2.9-3.2
					c0.4-0.2,0.9,0,1.1,0.5c0.2,0.4-0.1,0.9-0.5,1.1c-1.3,0.5-1.8,1.2-1.8,1.6c0,0.3,0.5,0.8,1.3,1.1c1,0.4,2.4,0.6,3.9,0.5
					c1.4-0.1,2.8-0.4,3.8-0.9c0.8-0.4,1.2-0.8,1.2-1.3c0-0.3-0.3-0.6-0.7-0.8c-0.4-0.3-0.5-0.8-0.3-1.2s0.8-0.5,1.2-0.3
					c1.2,0.7,1.4,1.6,1.5,2.2c0.1,1.1-0.7,2.1-2,2.9c-1.2,0.7-2.8,1-4.4,1.2C1411.4,333.4,1411.1,333.4,1410.8,333.4z"/>
			</g>
		</g>
		<g>
			<g>
				<path class="st4" d="M1411.4,342.9c-3.4,0-6-1.3-6.1-3.2c-0.1-1.3,1-2.4,2.9-3.2c0.4-0.2,0.9,0.1,1.1,0.5
					c0.2,0.4-0.1,0.9-0.5,1.1c-1.3,0.5-1.8,1.2-1.8,1.6c0.1,0.8,2.1,1.8,5.1,1.6c1.4-0.1,2.8-0.4,3.8-0.9c0.8-0.4,1.2-0.8,1.2-1.3
					c0-0.3-0.3-0.6-0.7-0.8c-0.4-0.3-0.5-0.8-0.3-1.2c0.2-0.4,0.8-0.5,1.2-0.3c1.2,0.7,1.4,1.6,1.5,2.2c0.1,1.1-0.7,2.1-2,2.9
					c-1.2,0.7-2.8,1-4.4,1.2C1411.9,342.9,1411.6,342.9,1411.4,342.9z"/>
			</g>
		</g>
		<g>
			<g>
				<path class="st4" d="M1411.9,352.3c-1.4,0-2.7-0.3-3.8-0.7c-1.4-0.6-2.3-1.5-2.3-2.6c-0.1-1.3,1-2.4,2.9-3.2
					c0.4-0.2,0.9,0.1,1.1,0.5s-0.1,0.9-0.5,1.1c-1.3,0.5-1.8,1.2-1.8,1.6c0,0.3,0.5,0.8,1.3,1.1c1,0.4,2.4,0.6,3.9,0.5
					c3.1-0.2,5-1.4,5-2.2c0-0.3-0.3-0.6-0.7-0.8c-0.4-0.3-0.5-0.8-0.3-1.2c0.3-0.4,0.8-0.5,1.2-0.3c1.2,0.7,1.4,1.6,1.5,2.1
					c0.1,2-2.7,3.8-6.5,3.9C1412.4,352.3,1412.2,352.3,1411.9,352.3z"/>
			</g>
		</g>
		<g>
			<g>
				<path class="st4" d="M1412.4,361.8c-1.4,0-2.7-0.3-3.8-0.7c-1.4-0.6-2.3-1.5-2.3-2.6c-0.1-1.3,1-2.4,2.9-3.2
					c0.4-0.2,0.9,0,1.1,0.5c0.2,0.4-0.1,0.9-0.5,1.1c-1.3,0.5-1.8,1.2-1.8,1.6c0,0.3,0.5,0.8,1.3,1.1c1,0.4,2.4,0.6,3.9,0.5
					c1.4-0.1,2.8-0.4,3.8-0.9c0.8-0.4,1.2-0.8,1.2-1.3c0-0.3-0.3-0.6-0.7-0.8c-0.4-0.3-0.5-0.8-0.3-1.2s0.8-0.5,1.2-0.3
					c1.2,0.7,1.4,1.6,1.5,2.1c0.1,1.1-0.7,2.1-2,2.9c-1.2,0.7-2.8,1-4.4,1.2C1413,361.7,1412.7,361.8,1412.4,361.8z"/>
			</g>
		</g>
		<g>
			<g>
				<path class="st4" d="M1413,371.2c-1.4,0-2.7-0.3-3.8-0.7c-1.4-0.6-2.3-1.5-2.3-2.6c-0.1-1.3,1-2.4,2.9-3.2
					c0.4-0.2,0.9,0,1.1,0.5c0.2,0.4-0.1,0.9-0.5,1.1c-1.3,0.5-1.8,1.2-1.8,1.6c0,0.3,0.5,0.8,1.3,1.1c1,0.4,2.4,0.6,3.9,0.5
					c1.4-0.1,2.8-0.4,3.8-0.9c0.8-0.4,1.2-0.8,1.2-1.3c0-0.3-0.3-0.6-0.7-0.8c-0.4-0.3-0.5-0.8-0.3-1.2c0.3-0.4,0.8-0.5,1.2-0.3
					c1.2,0.7,1.4,1.6,1.5,2.1c0.1,1.1-0.7,2.1-2,2.9c-1.2,0.7-2.8,1-4.4,1.2C1413.5,371.2,1413.3,371.2,1413,371.2z"/>
			</g>
		</g>
		<g>
			<g>
				<path class="st4" d="M1413.5,380.6c-3.4,0-6-1.3-6.1-3.2c-0.1-1.3,1-2.4,2.9-3.2c0.4-0.2,0.9,0,1.1,0.5c0.2,0.4-0.1,0.9-0.5,1.1
					c-1.3,0.5-1.8,1.2-1.8,1.6c0.1,0.8,2.1,1.8,5.1,1.6c3.1-0.2,5-1.4,5-2.2c0-0.3-0.3-0.6-0.7-0.8c-0.4-0.3-0.5-0.8-0.3-1.2
					s0.8-0.5,1.2-0.3c1.2,0.7,1.4,1.6,1.5,2.1c0.1,2-2.7,3.8-6.5,3.9C1414.1,380.6,1413.8,380.6,1413.5,380.6z"/>
			</g>
		</g>
		<g>
			<g>
				<path class="st4" d="M1414.1,390c-3.4,0-6-1.3-6.1-3.2c-0.1-1.3,1-2.4,2.9-3.2c0.4-0.2,0.9,0.1,1.1,0.5s-0.1,0.9-0.5,1.1
					c-1.3,0.5-1.8,1.2-1.8,1.6c0.1,0.8,2.1,1.8,5.1,1.6c3.1-0.2,5-1.4,5-2.2c0-0.3-0.3-0.6-0.7-0.8c-0.4-0.3-0.5-0.8-0.3-1.2
					c0.3-0.4,0.8-0.5,1.2-0.3c1.2,0.7,1.4,1.6,1.5,2.1c0.1,2-2.7,3.8-6.5,3.9C1414.6,390,1414.4,390,1414.1,390z"/>
			</g>
		</g>
		<g>
			<g>
				<path class="st4" d="M1414.7,399.4c-1.4,0-2.7-0.3-3.8-0.7c-1.4-0.6-2.3-1.5-2.3-2.6c-0.1-1.3,1-2.4,2.9-3.2
					c0.4-0.2,0.9,0.1,1.1,0.5s-0.1,0.9-0.5,1.1c-1.3,0.5-1.8,1.2-1.8,1.6c0,0.3,0.5,0.8,1.3,1.1c1,0.4,2.4,0.6,3.9,0.5
					c1.4-0.1,2.8-0.4,3.8-0.9c0.8-0.4,1.2-0.8,1.2-1.3c0-0.3-0.3-0.6-0.7-0.8c-0.4-0.3-0.5-0.8-0.3-1.2c0.3-0.4,0.8-0.5,1.2-0.3
					c1.2,0.7,1.4,1.6,1.5,2.2c0.1,1.1-0.7,2.1-2,2.9c-1.2,0.7-2.8,1-4.4,1.2C1415.2,399.4,1415,399.4,1414.7,399.4z"/>
			</g>
		</g>
		<g>
			<g>
				<path class="st4" d="M1415.2,408.8c-1.4,0-2.7-0.3-3.8-0.7c-1.4-0.6-2.3-1.5-2.3-2.6c-0.1-1.3,1-2.4,2.9-3.2
					c0.4-0.2,0.9,0.1,1.1,0.5c0.2,0.4-0.1,0.9-0.5,1.1c-1.3,0.5-1.8,1.2-1.8,1.6c0,0.3,0.5,0.8,1.3,1.1c1,0.4,2.4,0.6,3.9,0.5
					c1.4-0.1,2.8-0.4,3.8-0.9c0.8-0.4,1.2-0.8,1.2-1.3c0-0.3-0.3-0.6-0.7-0.8c-0.4-0.3-0.5-0.8-0.3-1.2c0.3-0.4,0.8-0.5,1.2-0.3
					c1.2,0.7,1.4,1.6,1.5,2.2c0.1,1.1-0.7,2.1-2,2.9c-1.2,0.7-2.8,1-4.4,1.2C1415.7,408.8,1415.5,408.8,1415.2,408.8z"/>
			</g>
		</g>
		<g>
			<g>
				<path class="st4" d="M1415.7,418.3c-3.4,0-6-1.3-6.1-3.2c-0.1-1.3,1-2.4,2.9-3.2c0.4-0.2,0.9,0.1,1.1,0.5s-0.1,0.9-0.5,1.1
					c-1.3,0.5-1.8,1.2-1.8,1.6c0.1,0.8,2.1,1.8,5.1,1.6c3.1-0.2,5-1.4,5-2.2c0-0.3-0.3-0.6-0.7-0.8c-0.4-0.3-0.5-0.8-0.3-1.2
					c0.3-0.4,0.8-0.5,1.2-0.3c1.2,0.7,1.4,1.6,1.5,2.2c0.1,2-2.7,3.8-6.5,3.9C1416.3,418.3,1416,418.3,1415.7,418.3z"/>
			</g>
		</g>
		<g>
			<g>
				<path class="st4" d="M1416.3,427.7c-3.4,0-6-1.3-6.1-3.2c-0.1-1.3,1-2.4,2.9-3.2c0.4-0.2,0.9,0,1.1,0.5c0.2,0.4-0.1,0.9-0.5,1.1
					c-1.3,0.5-1.8,1.2-1.8,1.6c0.1,0.8,2.1,1.8,5.1,1.6c3.1-0.2,5-1.4,5-2.2c0-0.3-0.3-0.6-0.7-0.8c-0.4-0.3-0.5-0.8-0.3-1.2
					c0.3-0.4,0.8-0.5,1.2-0.3c1.2,0.8,1.4,1.6,1.5,2.1c0.1,2-2.7,3.8-6.5,3.9C1416.8,427.7,1416.6,427.7,1416.3,427.7z"/>
			</g>
		</g>
		<g>
			<g>
				<path class="st4" d="M1416.9,437.2c-1.4,0-2.7-0.3-3.8-0.7c-1.4-0.6-2.3-1.5-2.3-2.6c-0.1-1.3,1-2.4,2.9-3.2
					c0.4-0.2,0.9,0,1.1,0.5c0.2,0.4-0.1,0.9-0.5,1.1c-1.3,0.5-1.8,1.2-1.8,1.6c0,0.3,0.5,0.8,1.3,1.1c1,0.4,2.4,0.6,3.9,0.5
					c1.4-0.1,2.8-0.4,3.8-0.9c0.8-0.4,1.2-0.8,1.2-1.3c0-0.3-0.3-0.6-0.7-0.8c-0.4-0.2-0.5-0.8-0.3-1.2c0.3-0.4,0.8-0.5,1.2-0.3
					c1.2,0.7,1.4,1.6,1.5,2.1c0.1,1.1-0.7,2.1-2,2.9c-1.2,0.7-2.8,1-4.4,1.2C1417.4,437.2,1417.1,437.2,1416.9,437.2z"/>
			</g>
		</g>
		<g>
			<g>
				<path class="st4" d="M1417.4,446.6c-1.4,0-2.7-0.3-3.8-0.7c-1.4-0.6-2.3-1.5-2.3-2.6c-0.1-1.3,1-2.4,2.9-3.2
					c0.4-0.2,0.9,0,1.1,0.5c0.2,0.4-0.1,0.9-0.5,1.1c-1.3,0.5-1.8,1.2-1.8,1.6c0,0.3,0.5,0.8,1.3,1.1c1,0.4,2.4,0.6,3.9,0.5
					s2.8-0.4,3.8-0.9c0.8-0.4,1.2-0.8,1.2-1.3c0-0.3-0.3-0.6-0.7-0.8c-0.4-0.3-0.5-0.8-0.3-1.2c0.3-0.4,0.8-0.5,1.2-0.3
					c1.2,0.7,1.4,1.6,1.5,2.1c0.1,1.1-0.7,2.1-2,2.9c-1.2,0.7-2.8,1-4.4,1.2C1417.9,446.6,1417.6,446.6,1417.4,446.6z"/>
			</g>
		</g>
		<g>
			<g>
				<path class="st4" d="M1418,456c-3.4,0-6-1.3-6.1-3.2c-0.1-1.3,1-2.4,2.9-3.2c0.4-0.2,0.9,0,1.1,0.5c0.2,0.4-0.1,0.9-0.5,1.1
					c-1.3,0.5-1.8,1.2-1.8,1.6c0.1,0.8,2.1,1.8,5.1,1.6c3.1-0.2,5-1.4,5-2.2c0-0.3-0.3-0.6-0.7-0.8c-0.4-0.2-0.5-0.8-0.3-1.2
					c0.3-0.4,0.8-0.5,1.2-0.3c1.2,0.7,1.4,1.6,1.5,2.1c0.1,2-2.7,3.8-6.5,3.9C1418.5,456,1418.2,456,1418,456z"/>
			</g>
		</g>
		<g>
			<g>
				<path class="st4" d="M1418.5,465.5c-3.4,0-6-1.3-6.1-3.2c-0.1-1.3,1-2.4,2.9-3.2c0.4-0.2,0.9,0.1,1.1,0.5
					c0.2,0.4-0.1,0.9-0.5,1.1c-1.3,0.5-1.8,1.2-1.8,1.6c0.1,0.8,2.1,1.8,5.1,1.6c3.1-0.2,5-1.4,5-2.2c0-0.3-0.3-0.6-0.7-0.8
					c-0.4-0.3-0.5-0.8-0.3-1.2c0.3-0.4,0.8-0.5,1.2-0.3c1.2,0.7,1.4,1.6,1.5,2.1c0.1,2-2.7,3.8-6.5,3.9
					C1419,465.5,1418.7,465.5,1418.5,465.5z"/>
			</g>
		</g>
		<g>
			<g>
				<path class="st4" d="M1419.1,474.9c-1.4,0-2.7-0.3-3.8-0.7c-1.4-0.6-2.3-1.5-2.3-2.6c-0.1-1.3,1-2.4,2.9-3.2
					c0.4-0.2,0.9,0.1,1.1,0.5s-0.1,0.9-0.5,1.1c-1.3,0.5-1.8,1.2-1.8,1.6c0,0.3,0.5,0.8,1.3,1.1c1,0.4,2.4,0.6,3.9,0.5
					s2.8-0.4,3.8-0.9c0.8-0.4,1.2-0.8,1.2-1.3c0-0.3-0.3-0.6-0.7-0.8c-0.4-0.3-0.5-0.8-0.3-1.2c0.2-0.4,0.8-0.5,1.2-0.3
					c1.2,0.7,1.4,1.6,1.5,2.1c0.1,1.1-0.7,2.1-2,2.9c-1.2,0.7-2.8,1-4.4,1.2C1419.6,474.9,1419.3,474.9,1419.1,474.9z"/>
			</g>
		</g>
		<g>
			<g>
				<path class="st4" d="M1419.6,484.4c-1.4,0-2.7-0.3-3.8-0.7c-1.4-0.6-2.3-1.5-2.3-2.6c-0.1-1.3,1-2.4,2.9-3.2
					c0.4-0.2,0.9,0.1,1.1,0.5s0,0.9-0.5,1.1c-1.3,0.5-1.8,1.2-1.8,1.6c0,0.3,0.5,0.8,1.3,1.1c1,0.4,2.4,0.6,3.9,0.5s2.8-0.4,3.8-0.9
					c0.8-0.4,1.2-0.8,1.2-1.3c0-0.3-0.3-0.6-0.7-0.8c-0.4-0.3-0.5-0.8-0.3-1.2c0.3-0.4,0.8-0.5,1.2-0.3c1.2,0.7,1.4,1.6,1.5,2.1
					c0.1,1.1-0.7,2.1-2,2.9c-1.2,0.7-2.8,1-4.4,1.2C1420.2,484.3,1419.8,484.4,1419.6,484.4z"/>
			</g>
		</g>
	</g>
	<g>
		<g>
			<g class="st9">
				<g>
					
						<rect x="1444.3" y="339.6" transform="matrix(0.9983 -5.803905e-02 5.803905e-02 0.9983 -18.3932 85.8711)" class="st7" width="49.5" height="39.9"/>
				</g>
			</g>
			<g>
				<g>
					<path class="st7" d="M1445.5,381.7c-0.2,0-0.4-0.1-0.6-0.3c-0.2-0.2-0.3-0.3-0.3-0.6l-2.3-39.9c0-0.5,0.3-0.8,0.8-0.9l49.4-2.9
						c0.4,0,0.8,0.3,0.9,0.8l2.3,39.9c0,0.3-0.1,0.4-0.3,0.6c-0.2,0.2-0.3,0.3-0.6,0.3L1445.5,381.7
						C1445.6,381.7,1445.6,381.7,1445.5,381.7z M1444.1,341.9l2.2,38.2l47.7-2.8l-2.2-38.2L1444.1,341.9z"/>
				</g>
			</g>
		</g>
		<g>
			<g>
				<path class="st7" d="M1495,378.9c-0.2,0-0.3-0.1-0.5-0.2l-51.8-36.9c-0.3-0.3-0.5-0.8-0.2-1.2c0.3-0.3,0.8-0.5,1.2-0.2
					l51.8,36.9c0.3,0.3,0.5,0.8,0.2,1.2C1495.5,378.8,1495.3,378.9,1495,378.9z"/>
			</g>
		</g>
		<g>
			<g>
				<path class="st7" d="M1445.5,381.7c-0.3,0-0.4-0.1-0.6-0.3c-0.3-0.3-0.3-0.8,0.1-1.2l47.2-42.7c0.3-0.3,0.8-0.3,1.2,0.1
					c0.3,0.3,0.3,0.8-0.1,1.2l-47.2,42.7C1445.9,381.7,1445.8,381.7,1445.5,381.7z"/>
			</g>
		</g>
		<g>
			<g>
				<path class="st7" d="M1510.9,373.7c-0.4,0-0.8-0.3-0.8-0.8s0.3-0.8,0.8-0.9l40.6-2.3c0.4,0,0.8,0.3,0.9,0.8
					c0,0.5-0.3,0.8-0.8,0.9L1510.9,373.7C1511,373.7,1511,373.7,1510.9,373.7z"/>
			</g>
		</g>
		<g>
			<g>
				<path class="st7" d="M1510.5,365.9c-0.4,0-0.8-0.3-0.8-0.8s0.3-0.8,0.8-0.9l48.9-2.9c0.4,0,0.8,0.3,0.9,0.8
					c0,0.5-0.3,0.8-0.8,0.9L1510.5,365.9L1510.5,365.9z"/>
			</g>
		</g>
		<g>
			<g>
				<path class="st7" d="M1509.2,342.4c-0.4,0-0.8-0.3-0.8-0.8s0.3-0.8,0.8-0.9l48.9-2.9c0.4,0,0.8,0.3,0.9,0.8
					c0,0.5-0.3,0.8-0.8,0.9L1509.2,342.4L1509.2,342.4z"/>
			</g>
		</g>
		<g>
			<g>
				<path class="st7" d="M1510,358c-0.4,0-0.8-0.3-0.8-0.8s0.3-0.8,0.8-0.9l44.8-2.6c0.4,0,0.8,0.3,0.9,0.8c0,0.5-0.3,0.8-0.8,0.9
					L1510,358C1510.1,358,1510.1,358,1510,358z"/>
			</g>
		</g>
		<g>
			<g>
				<path class="st7" d="M1509.6,350.2c-0.4,0-0.8-0.3-0.8-0.8s0.3-0.8,0.8-0.9l40.6-2.3c0.4,0,0.8,0.3,0.9,0.8
					c0,0.5-0.3,0.8-0.8,0.9L1509.6,350.2L1509.6,350.2z"/>
			</g>
		</g>
	</g>
	<g>
		<g>
			<g>
				<path class="st7" d="M1467.7,322.9c-0.4,0-0.8-0.3-0.8-0.8s0.3-0.8,0.8-0.9l20.3-1.1c0.4,0,0.8,0.3,0.9,0.8
					c0,0.5-0.3,0.8-0.8,0.9L1467.7,322.9L1467.7,322.9z"/>
			</g>
		</g>
		<g>
			<g>
				<path class="st7" d="M1467.3,316.6c-0.4,0-0.8-0.3-0.8-0.8s0.3-0.8,0.8-0.9l28-1.6c0.4,0,0.8,0.3,0.9,0.8c0,0.5-0.3,0.8-0.8,0.9
					L1467.3,316.6C1467.4,316.6,1467.3,316.6,1467.3,316.6z"/>
			</g>
		</g>
		<g>
			<g class="st9">
				<g>
					<circle class="st7" cx="1449.9" cy="319.9" r="7.9"/>
				</g>
			</g>
			<g>
				<g>
					<path class="st7" d="M1449.9,328.6c-2.1,0-4.2-0.8-5.8-2.2c-1.8-1.5-2.8-3.7-2.9-6c-0.2-2.3,0.7-4.5,2.2-6.3
						c1.5-1.8,3.7-2.8,6-2.9c2.3-0.2,4.5,0.7,6.3,2.2s2.8,3.7,2.9,6c0.2,2.3-0.7,4.5-2.2,6.3c-1.5,1.8-3.7,2.8-6,2.9
						C1450.2,328.6,1450,328.6,1449.9,328.6z M1449.9,312.9c-0.2,0-0.3,0-0.4,0c-1.8,0.1-3.6,0.9-4.9,2.3s-1.8,3.2-1.8,5.1
						c0.1,1.8,0.9,3.6,2.3,4.9c1.4,1.3,3.2,1.8,5.1,1.8c1.8-0.1,3.6-0.9,4.9-2.3c1.3-1.4,1.8-3.2,1.8-5.1c-0.1-1.8-0.9-3.6-2.3-4.9
						C1453.2,313.5,1451.6,312.9,1449.9,312.9z"/>
				</g>
			</g>
		</g>
	</g>
	<g>
		<g>
			<g>
				<g>
					<path class="st7" d="M1448.5,432.7c-0.2,0-0.4-0.1-0.6-0.3c-0.2-0.2-0.3-0.3-0.3-0.6l-1.9-33.8c0-0.5,0.3-0.8,0.8-0.9l31-1.8
						c0.4,0,0.8,0.3,0.9,0.8l1.9,33.8c0,0.5-0.3,0.8-0.8,0.9L1448.5,432.7L1448.5,432.7z M1447.4,398.8l1.8,32.1l29.3-1.7l-1.8-32.1
						L1447.4,398.8z"/>
				</g>
			</g>
			<g>
				<g>
					<path class="st7" d="M1447.1,408.9c-0.4,0-0.8-0.3-0.8-0.8s0.3-0.8,0.8-0.9l31-1.8c0.4,0,0.8,0.3,0.9,0.8
						c0,0.5-0.3,0.8-0.8,0.9L1447.1,408.9C1447.2,408.9,1447.1,408.9,1447.1,408.9z"/>
				</g>
			</g>
		</g>
		<g>
			<g>
				<g>
					<path class="st7" d="M1490.3,430.2c-0.2,0-0.4-0.1-0.6-0.3c-0.2-0.2-0.3-0.3-0.3-0.6l-1.9-33.7c0-0.5,0.3-0.8,0.8-0.9l31-1.8
						c0.3,0,0.4,0.1,0.6,0.3c0.2,0.2,0.3,0.3,0.3,0.6l1.9,33.8c0,0.5-0.3,0.8-0.8,0.9L1490.3,430.2
						C1490.4,430.2,1490.4,430.2,1490.3,430.2z M1489.3,396.3l1.8,32.1l29.3-1.7l-1.8-32.1L1489.3,396.3z"/>
				</g>
			</g>
			<g>
				<g>
					<path class="st7" d="M1489,406.5c-0.4,0-0.8-0.3-0.8-0.8s0.3-0.8,0.8-0.9l31-1.8c0.4,0,0.8,0.3,0.9,0.8c0,0.5-0.3,0.8-0.8,0.9
						L1489,406.5L1489,406.5z"/>
				</g>
			</g>
		</g>
		<g>
			<g>
				<g>
					<path class="st7" d="M1532.2,427.8c-0.4,0-0.8-0.3-0.8-0.8l-1.9-33.8c0-0.5,0.3-0.8,0.8-0.9l31-1.8c0.3,0,0.4,0.1,0.6,0.3
						s0.3,0.3,0.3,0.6l1.9,33.8c0,0.5-0.3,0.8-0.8,0.9L1532.2,427.8C1532.3,427.8,1532.2,427.8,1532.2,427.8z M1531.1,393.9
						l1.8,32.1l29.3-1.7l-1.8-32.1L1531.1,393.9z"/>
				</g>
			</g>
			<g>
				<g>
					<path class="st7" d="M1530.8,404.1c-0.4,0-0.8-0.3-0.8-0.8s0.3-0.8,0.8-0.9l31-1.8c0.4,0,0.8,0.3,0.9,0.8
						c0,0.5-0.3,0.8-0.8,0.9L1530.8,404.1L1530.8,404.1z"/>
				</g>
			</g>
		</g>
	</g>
</g>
<g>
	<g>
		<g class="st10">
			<path class="st7" d="M1700.5,544.1c-0.2,1.6-1.6,2.7-3.1,2.5l2.7,0.4l37.5,7.5c1.6,0.2,5.4-3.4,5.6-4.9l0.2-1.6l4.9-38.4
				l-42.7-5.4l-3.1,2.4L1700.5,544.1"/>
		</g>
		<g>
			<path class="st7" d="M1737.7,555.4c-0.1,0-0.2,0-0.2,0l-37.6-7.5l-2.7-0.4c-0.5-0.1-0.8-0.5-0.8-1s0.5-0.8,1-0.8l0,0l0,0
				c1,0.1,1.9-0.5,2.1-1.6l2-37.6c0-0.3,0.2-0.5,0.4-0.6l3.1-2.4c0.2-0.2,0.5-0.2,0.6-0.2l42.7,5.4c0.3,0,0.5,0.2,0.6,0.4
				c0.2,0.2,0.2,0.5,0.2,0.6l-5,39.9C1743.9,551.5,1739.9,555.4,1737.7,555.4z M1700.6,546l37.2,7.4c0.9,0.1,4.4-3,4.5-4.1l4.9-39
				l-41.4-5.2l-2.5,1.9l-1.9,37.1c0,0,0,0,0,0.1C1701.3,544.9,1701.1,545.6,1700.6,546z"/>
		</g>
	</g>
	<g>
		<g>
			<path class="st11" d="M1697.4,546.5c-0.2,1.6-1.6,2.7-3.1,2.5l2.7,0.4l38.1,4.9l1.8,0.3c1.6,0.2,2.9-0.9,3.1-2.5l0.2-1.6
				l4.9-38.4l-42.7-5.4L1697.4,546.5"/>
		</g>
		<g class="st12">
			<path class="st13" d="M1697.1,548.9c0,0.2-1.3,0.2-2.8-0.1l2.7,0.4l38.1,4.9l1.8,0.3c1.6,0.2,2.8,0.2,2.8,0.1v-0.2l0.5-4.2
				l-42.7-5.4L1697.1,548.9"/>
		</g>
		<g>
			<path class="st7" d="M1737.3,555.3c-0.2,0-0.3,0-0.5,0l-42.7-5.4c-0.5-0.1-0.8-0.5-0.8-1s0.5-0.8,1-0.8l0,0c1,0.1,2-0.6,2.1-1.6
				l5-39.9c0-0.3,0.2-0.5,0.4-0.6c0.2-0.2,0.5-0.2,0.6-0.2l42.7,5.4c0.5,0.1,0.8,0.5,0.8,1l-5,39.9
				C1740.8,553.9,1739.2,555.3,1737.3,555.3z M1697.6,548.4l39.6,5c1,0.2,2-0.6,2.1-1.6l4.9-39l-40.9-5.2l-4.9,39l0,0
				C1698.2,547.3,1697.9,547.9,1697.6,548.4z"/>
		</g>
	</g>
	<g>
		<line class="st14" x1="1745.2" y1="511.9" x2="1748.2" y2="509.6"/>
		<path class="st7" d="M1745.2,512.9c-0.3,0-0.5-0.1-0.7-0.4c-0.3-0.4-0.3-1,0.2-1.3l3.1-2.4c0.4-0.3,1-0.3,1.3,0.2
			c0.3,0.4,0.3,1-0.2,1.3l-3.1,2.4C1745.6,512.9,1745.4,512.9,1745.2,512.9z"/>
	</g>
</g>
<g>
	<g>
		<g>
			<path class="st11" d="M679.3,230.9c-0.2,1.6-1.6,2.6-3.2,2.4l2.7,0.4l38,5.2l1.8,0.3c1.6,0.2,2.9-0.8,3.2-2.4l0.2-1.6l5.2-38.4
				l-42.7-5.9L679.3,230.9"/>
		</g>
		<g class="st12">
			<path class="st13" d="M679,233.3c0,0.2-1.3,0.1-2.8-0.1l2.7,0.4l38,5.2l1.8,0.3c1.6,0.2,2.8,0.3,2.8,0.1V239l0.5-4.2l-42.7-5.9
				L679,233.3"/>
		</g>
		<g>
			<path class="st7" d="M719.2,240c-0.2,0-0.4,0-0.5,0l-42.7-5.9l0,0c-0.5-0.1-0.8-0.5-0.8-1s0.5-0.8,1-0.8l0,0
				c0.5,0.1,1-0.1,1.4-0.4c0.4-0.3,0.6-0.7,0.7-1.3l0,0l5.5-39.9c0.1-0.5,0.5-0.8,1-0.8l42.7,5.9c0.3,0,0.5,0.2,0.6,0.4
				s0.2,0.5,0.2,0.6l-5.5,39.9C722.7,238.6,721,240,719.2,240z M679.5,232.8l39.5,5.4c1,0.1,2-0.5,2.1-1.6l5.3-38.9l-40.9-5.6
				l-5.3,38.9l0,0C680.2,231.6,679.9,232.2,679.5,232.8z"/>
		</g>
	</g>
	<g>
		<path class="st5" d="M703.4,213.1l-2.7-0.4l-0.5,3.1c-0.1,0.4-0.4,0.6-0.7,0.5c-0.4-0.1-0.6-0.4-0.5-0.7l0.5-3.1l-2.7-0.4
			c-0.4,0-0.5-0.4-0.5-0.7c0-0.3,0.4-0.5,0.6-0.5l2.7,0.4l0.4-3c0.1-0.4,0.4-0.6,0.7-0.5c0.4,0.1,0.6,0.4,0.5,0.7l-0.4,3l2.7,0.4
			c0.3,0,0.5,0.4,0.5,0.6C704.1,212.9,703.8,213.2,703.4,213.1z"/>
		<path class="st5" d="M708.2,219.3c-0.5-0.1-1-0.6-0.9-1.2l1.1-8.2l-1.6,1.3c-0.2,0.2-0.4,0.2-0.6,0.2c-0.5-0.1-0.8-0.5-0.7-1
			c0-0.3,0.2-0.5,0.4-0.6l3-2.3c0.3-0.2,0.5-0.3,0.9-0.3c0.6,0.1,1.2,0.6,1.1,1.4l-1.3,9.8C709.3,219,708.7,219.4,708.2,219.3z"/>
	</g>
</g>
<g>
	<g>
		<g>
			<g>
				<g>
					<path class="st11" d="M1226.5,532.6c0,1.6-1.3,2.7-2.8,2.7h2.8l38.4,0.5h1.8c1.6,0,2.8-1.2,2.8-2.7v-1.6l0.5-38.7l-43.1-0.5
						L1226.5,532.6"/>
				</g>
			</g>
			<g>
				<g>
					<path class="st11" d="M1226.5,532.6c0,1.6-1.3,2.7-2.8,2.7h2.8l38.4,0.5h1.8c1.6,0,2.8-1.2,2.8-2.7v-1.6l0.5-38.7l-43.1-0.5
						L1226.5,532.6"/>
				</g>
			</g>
		</g>
		<g class="st12">
			<g>
				<path class="st13" d="M1226.5,535.1c0,0.2-1.3,0.3-2.8,0.3h2.8l38.4,0.5h1.8c1.6,0,2.8-0.1,2.8-0.3v-0.2l0.1-4.2l-43.1-0.5
					L1226.5,535.1"/>
			</g>
		</g>
		<g>
			<g>
				<path class="st7" d="M1266.8,536.8C1266.7,536.8,1266.7,536.8,1266.8,536.8l-43.1-0.5l0,0c-0.5,0-0.9-0.5-0.9-0.9
					c0-0.4,0.5-0.9,0.9-0.9l0,0l0,0c0.5,0,1-0.2,1.4-0.5s0.5-0.8,0.5-1.4l0,0l0.5-40.2c0-0.5,0.5-0.9,0.9-0.9l0,0l43.1,0.5
					c0.3,0,0.5,0.1,0.6,0.3c0.2,0.2,0.3,0.4,0.3,0.6l-0.5,40.2c0,1-0.4,1.9-1.1,2.7C1268.6,536.4,1267.7,536.8,1266.8,536.8z
					 M1226.9,534.5l39.9,0.5c0.5,0,1-0.2,1.4-0.5c0.4-0.4,0.5-0.8,0.5-1.4l0.5-39.3l-41.2-0.5l-0.5,39.3
					C1227.4,533.2,1227.2,533.9,1226.9,534.5z"/>
			</g>
		</g>
	</g>
	<g>
		<g>
			<path class="st11" d="M1256.1,540.2c0.1,1.6-1.1,2.9-2.6,3l2.8-0.2l38.3-2.7l1.8-0.1c1.6-0.1,2.7-1.5,2.6-3l-0.1-1.6l-2.7-38.6
				l-43,3L1256.1,540.2"/>
		</g>
		<g class="st12">
			<path class="st13" d="M1256.3,542.7c0,0.2-1.2,0.4-2.7,0.5l2.8-0.2l38.3-2.7l1.8-0.1c1.6-0.1,2.7-0.4,2.7-0.5v-0.2l-0.3-4.2
				l-43,3L1256.3,542.7"/>
		</g>
		<g>
			<path class="st7" d="M1253.5,544.1c-0.5,0-0.9-0.4-0.9-0.8c0-0.5,0.4-0.9,0.8-1l0,0c1-0.1,1.8-1,1.7-2l0,0l-2.8-40.1
				c0-0.5,0.4-0.9,0.8-1l43-3c0.3,0,0.5,0.1,0.6,0.2c0.2,0.1,0.3,0.4,0.3,0.6l2.8,40.1c0.1,1-0.3,1.9-0.9,2.7s-1.6,1.2-2.6,1.3
				L1253.5,544.1L1253.5,544.1L1253.5,544.1z M1257,540.1c0.1,0.7-0.1,1.4-0.4,1.9l39.8-2.8c1-0.1,1.8-1,1.7-2l-2.7-39.2l-41.1,2.9
				L1257,540.1z"/>
		</g>
	</g>
	<g>
		<circle class="st7" cx="1279.4" cy="533" r="2.7"/>
	</g>
	<g>
		<circle class="st7" cx="1289.7" cy="532" r="2.7"/>
	</g>
	<g>
		<path class="st7" d="M1261.6,511.3c-0.5,0-0.9-0.4-0.9-0.8c0-0.5,0.4-0.9,0.8-1l28.2-2.1c0.5,0,0.9,0.4,1,0.8c0,0.5-0.4,0.9-0.8,1
			L1261.6,511.3L1261.6,511.3z"/>
	</g>
	<g>
		<path class="st7" d="M1263.4,518.7c-0.5,0-0.9-0.4-0.9-0.8c0-0.5,0.4-0.9,0.8-1l16-1.1c0.5,0,0.9,0.4,1,0.8c0,0.5-0.4,0.9-0.8,1
			L1263.4,518.7L1263.4,518.7z"/>
	</g>
</g>
<g>
	<g>
		<path class="st5" d="M378.5,343.5l-0.7-4.2c0,0,19.5-10.7,23.4-13.9c5.6-4.5,14.8-16.6,14.8-16.6l17.3-3.1c0,0,10.5,7.5,16.6,9.4
			c5.5,1.8,29.9,5.8,29.9,5.8l0.7,4.2L378.5,343.5z"/>
		<path class="st4" d="M378.5,344.2c-0.3,0-0.6-0.2-0.7-0.5l-0.7-4.2c-0.1-0.3,0.1-0.5,0.3-0.7c0.2-0.1,19.5-10.8,23.4-13.8
			c5.5-4.4,14.6-16.4,14.7-16.5c0.1-0.1,0.3-0.2,0.4-0.3l17.3-3.1c0.2,0,0.3,0,0.5,0.1c0.1,0.1,10.5,7.4,16.4,9.3
			c5.4,1.8,29.5,5.8,29.8,5.8c0.3,0.1,0.5,0.3,0.5,0.5l0.7,4.2c0,0.2,0,0.3-0.1,0.5c-0.1,0.1-0.3,0.3-0.4,0.3L378.5,344.2
			C378.6,344.2,378.6,344.2,378.5,344.2z M378.5,339.7l0.5,3l100.8-18.1l-0.5-3c-3.5-0.6-24.4-4.1-29.5-5.8
			c-5.7-1.9-14.9-8.3-16.5-9.3l-16.8,3c-1.3,1.7-9.5,12.3-14.8,16.5C398,328.9,381.5,338.1,378.5,339.7z"/>
	</g>
	<g>
		
			<rect x="349.7" y="388.2" transform="matrix(0.1769 0.9842 -0.9842 0.1769 753.5884 -107.088)" class="st15" width="182.3" height="17.6"/>
		<path class="st4" d="M448.3,489c-0.3,0-0.6-0.2-0.7-0.5l-32.2-179.6c-0.1-0.3,0.2-0.7,0.5-0.8l17.3-3.1c0.2,0,0.3,0,0.5,0.1
			c0.1,0.1,0.3,0.3,0.3,0.4l32.2,179.6c0,0.2,0,0.3-0.1,0.5c-0.1,0.2-0.3,0.3-0.4,0.3l-17.3,3.1C448.3,489,448.3,489,448.3,489z
			 M416.8,309.4l32,178.2l16-2.9l-32-178.2L416.8,309.4z"/>
	</g>
	<g>
		<circle class="st16" cx="454.8" cy="475.2" r="3.2"/>
		<path class="st4" d="M454.8,479.1c-0.8,0-1.5-0.3-2.2-0.7c-0.9-0.6-1.4-1.5-1.6-2.5s0.1-2,0.6-2.9c0.6-0.9,1.5-1.4,2.5-1.6
			c1-0.2,2,0.1,2.9,0.6c0.9,0.6,1.4,1.5,1.6,2.5c0.2,1-0.1,2-0.6,2.9c-0.6,0.9-1.5,1.4-2.5,1.6l0,0
			C455.3,479,455.1,479.1,454.8,479.1z M454.9,472.7c-0.1,0-0.3,0-0.5,0.1c-0.7,0.1-1.2,0.5-1.6,1.1c-0.4,0.6-0.5,1.2-0.4,1.9
			c0.1,0.7,0.5,1.2,1.1,1.6c0.5,0.4,1.2,0.5,1.9,0.4l0,0c0.7-0.1,1.2-0.5,1.6-1.1c0.4-0.6,0.5-1.2,0.4-1.9c-0.1-0.7-0.5-1.2-1.1-1.6
			C455.9,472.9,455.4,472.7,454.9,472.7z"/>
	</g>
	<g>
		<path class="st4" d="M452.4,462.1c-0.3,0-0.6-0.2-0.7-0.5l-25.4-141.4c-0.1-0.3,0.2-0.7,0.5-0.8s0.7,0.2,0.8,0.5L453,461.3
			C453.1,461.6,452.8,462,452.4,462.1L452.4,462.1z"/>
	</g>
</g>
<g>
	<g>
		<g>
			<path class="st8" d="M940.3,671l-173.1-9.2c-4.4-0.2-7.8-4-7.6-8.4l7.1-134.8c0.2-4.4,4-7.8,8.4-7.6l173.1,9.2
				c4.4,0.2,7.8,4,7.6,8.4l-7.1,134.8C948.5,667.9,944.6,671.2,940.3,671z"/>
		</g>
		<g>
			<path class="st7" d="M940.6,672c-0.2,0-0.3,0-0.5,0l0,0L767,662.8c-5-0.3-8.8-4.5-8.5-9.5l7.1-134.8c0.1-2.4,1.1-4.6,3-6.2
				c1.9-1.6,4.1-2.4,6.5-2.3l173.1,9.2c2.4,0.1,4.6,1.1,6.2,3c1.6,1.9,2.4,4.1,2.3,6.5l-7.1,134.8C949.4,668.2,945.4,672,940.6,672z
				 M940.3,670.1c3.9,0.2,7.3-2.8,7.4-6.7l7.1-134.8c0.1-1.9-0.6-3.7-1.8-5.2c-1.2-1.4-3-2.2-4.9-2.3l-173-9.2
				c-1.9-0.1-3.7,0.6-5.2,1.8c-1.4,1.2-2.2,3-2.3,4.9l-7.1,134.8c-0.2,3.9,2.8,7.3,6.7,7.4L940.3,670.1z"/>
		</g>
	</g>
	<g>
		<g class="st9">
			<g>
				
					<rect x="763.8" y="531.5" transform="matrix(0.9986 5.267867e-02 -5.267867e-02 0.9986 31.591 -44.4228)" class="st7" width="189.4" height="91.2"/>
			</g>
		</g>
		<g>
			<g>
				<path class="st7" d="M950.6,628.5L950.6,628.5l-189.1-10c-0.6,0-1-0.5-0.9-1.1l4.8-91.1c0-0.3,0.1-0.5,0.3-0.7s0.5-0.3,0.7-0.3
					l189.1,9.9c0.6,0,1,0.5,0.9,1.1l-4.8,91.1c0,0.3-0.1,0.5-0.3,0.7C951,628.4,950.8,628.5,950.6,628.5z M762.5,616.7l187.2,9.8
					l4.7-89.2l-187.2-9.8L762.5,616.7z"/>
			</g>
		</g>
	</g>
	<g>
		<g>
			<g>
				<path class="st7" d="M779.3,521.8L779.3,521.8c-1.4-0.1-2.4-1.1-2.4-2.5c0.1-1.3,1.2-2.3,2.5-2.3c0.7,0,1.2,0.3,1.6,0.8
					c0.4,0.5,0.7,1.1,0.6,1.7l0,0C781.6,520.7,780.5,521.8,779.3,521.8z M779.3,518.9c-0.3,0-0.5,0.2-0.5,0.5c0,0.2,0.1,0.3,0.1,0.3
					c0,0.1,0.2,0.2,0.3,0.2c0.2,0,0.3-0.1,0.3-0.1c0.1-0.1,0.2-0.2,0.2-0.3l0,0c0-0.2-0.1-0.3-0.1-0.4S779.5,518.9,779.3,518.9
					L779.3,518.9z"/>
			</g>
		</g>
		<g>
			<g>
				<path class="st7" d="M785.2,522.1L785.2,522.1c-0.8,0-1.3-0.3-1.7-0.8s-0.7-1.1-0.6-1.7c0-0.7,0.3-1.2,0.8-1.6s1.1-0.7,1.7-0.6
					c1.3,0.1,2.3,1.1,2.2,2.5l0,0c0,0.7-0.3,1.2-0.8,1.6C786.4,521.9,785.8,522.1,785.2,522.1z M785.2,519.2c-0.2,0-0.3,0.1-0.3,0.1
					c-0.1,0-0.2,0.2-0.2,0.3c0,0.2,0.1,0.3,0.1,0.3c0.1,0.1,0.2,0.2,0.3,0.2c0.2,0,0.3-0.1,0.3-0.1c0.1,0,0.2-0.2,0.2-0.3l0,0
					c0-0.2-0.1-0.3-0.1-0.3C785.5,519.3,785.4,519.2,785.2,519.2L785.2,519.2z"/>
			</g>
		</g>
		<g>
			<g>
				<path class="st7" d="M791.1,522.4L791.1,522.4c-1.4-0.1-2.4-1.1-2.4-2.5c0-0.7,0.3-1.2,0.8-1.6c0.5-0.4,1.1-0.7,1.7-0.6
					c1.3,0.1,2.3,1.1,2.3,2.5l0,0C793.4,521.4,792.4,522.4,791.1,522.4z M791.1,519.5c-0.2,0-0.3,0.1-0.3,0.1
					c-0.1,0-0.2,0.2-0.2,0.3c0,0.3,0.2,0.5,0.5,0.5s0.5-0.2,0.5-0.5l0,0C791.6,519.8,791.4,519.6,791.1,519.5L791.1,519.5z"/>
			</g>
		</g>
	</g>
	<g>
		<g>
			<path class="st13" d="M884.4,591.8l-53.5-2.9c-2.7-0.1-4.8-2.4-4.6-5.2l0,0c0.1-2.7,2.4-4.8,5.2-4.6L885,582
				c2.7,0.1,4.8,2.4,4.6,5.2l0,0C889.4,589.9,887.1,592,884.4,591.8z"/>
		</g>
		<g>
			<path class="st7" d="M884.7,592.7c-0.1,0-0.2,0-0.3,0l-53.5-2.9c-3.2-0.2-5.6-2.9-5.5-6.1c0.1-1.5,0.8-3,1.9-4
				c1.1-1.1,2.7-1.5,4.2-1.5l53.5,2.9c1.5,0.1,3,0.8,4,1.9c1.1,1.1,1.5,2.7,1.5,4.2c-0.1,1.5-0.8,3-1.9,4
				C887.6,592.2,886.1,592.7,884.7,592.7z M831.2,580.2c-1,0-1.9,0.4-2.6,1c-0.8,0.7-1.2,1.6-1.2,2.7c-0.1,1.1,0.3,2,1,2.9
				c0.7,0.8,1.6,1.2,2.7,1.2l53.5,2.9l0,0c1.1,0.1,2-0.3,2.9-1c0.8-0.7,1.2-1.6,1.2-2.7c0.1-1.1-0.3-2-1-2.9
				c-0.7-0.8-1.6-1.2-2.7-1.2l-53.5-2.9C831.3,580.2,831.3,580.2,831.2,580.2z"/>
		</g>
	</g>
	<g>
		<g>
			<g>
				<path class="st7" d="M892.8,553.7C892.8,553.7,892.7,553.7,892.8,553.7l-66.1-3.4c-0.6,0-1-0.5-0.9-1.1c0-0.6,0.5-1,1.1-0.9
					l66,3.4c0.6,0,1,0.5,0.9,1.1C893.8,553.3,893.3,553.7,892.8,553.7z"/>
			</g>
		</g>
		<g>
			<g>
				<path class="st7" d="M886.8,567.1L886.8,567.1l-55.6-3c-0.6,0-1-0.5-0.9-1.1c0-0.6,0.5-1,1.1-0.9l55.5,3c0.6,0,1,0.5,0.9,1.1
					C887.7,566.7,887.4,567.1,886.8,567.1z"/>
			</g>
		</g>
		<g>
			<g>
				<path class="st7" d="M909.1,561.4L909.1,561.4l-99.5-5.3c-0.6,0-1-0.5-0.9-1.1c0-0.6,0.5-1,1.1-0.9l99.5,5.3
					c0.6,0,1,0.5,0.9,1.1C910.1,561,909.7,561.4,909.1,561.4z"/>
			</g>
		</g>
	</g>
</g>
<g>
	<g>
		<g>
			<g class="st17">
				<g>
					<path class="st5" d="M1199.8,243.8l-163.4,17c-4.2,0.5-8-2.6-8.3-6.8l-13.3-127.3c-0.5-4.2,2.6-8,6.8-8.3l163.5-17
						c4.2-0.5,8,2.6,8.3,6.8l13.2,127.3C1207,239.7,1204,243.4,1199.8,243.8z"/>
				</g>
			</g>
			<g>
				<g>
					<path class="st4" d="M1035.6,261.9c-4.3,0-8.1-3.3-8.5-7.6l-13.2-127.4c-0.3-2.3,0.5-4.5,1.9-6.2s3.4-2.9,5.7-3.1l163.5-17
						c2.3-0.3,4.5,0.5,6.2,1.9s2.9,3.4,3.1,5.7l13.2,127.3c0.5,4.7-2.9,8.9-7.6,9.3l0,0l-163.4,17
						C1036.2,261.8,1035.9,261.9,1035.6,261.9z M1185.8,102.3c-0.3,0-0.5,0-0.7,0l-163.4,17c-1.8,0.2-3.3,1.1-4.5,2.4
						c-1.1,1.4-1.6,3.2-1.4,4.9L1029,254c0.4,3.7,3.7,6.3,7.3,6l163.5-17c3.7-0.4,6.3-3.7,6-7.3l-13.2-127.3
						c-0.2-1.8-1.1-3.3-2.4-4.5C1188.8,102.8,1187.3,102.3,1185.8,102.3z"/>
				</g>
			</g>
		</g>
	</g>
	<g>
		<g>
			<path class="st13" d="M1047.4,201.6c-0.5,0-0.8-0.4-0.9-0.8c-0.1-0.5,0.4-0.9,0.8-1l62-6.3c0.5-0.1,0.9,0.4,1,0.8
				c0.1,0.5-0.4,0.9-0.8,1L1047.4,201.6L1047.4,201.6z"/>
		</g>
		<g>
			<path class="st13" d="M1051.4,241.2c-0.5,0-0.8-0.4-0.9-0.8c-0.1-0.5,0.4-0.9,0.8-1l28.7-3c0.5,0,0.9,0.4,1,0.8
				c0.1,0.5-0.4,0.9-0.8,1L1051.4,241.2L1051.4,241.2z"/>
		</g>
		<g>
			<path class="st13" d="M1088.4,237.5c-0.5,0-0.8-0.4-0.9-0.8c-0.1-0.5,0.4-0.9,0.8-1l9.8-1c0.5-0.1,0.9,0.4,1,0.8
				c0.1,0.5-0.4,0.9-0.8,1L1088.4,237.5L1088.4,237.5z"/>
		</g>
		<g>
			<path class="st13" d="M1107.8,235.5c-0.5,0-0.8-0.4-0.9-0.8c-0.1-0.5,0.4-0.9,0.8-1l23-2.4c0.5-0.1,0.9,0.4,1,0.8
				c0.1,0.5-0.4,0.9-0.8,1L1107.8,235.5C1107.9,235.5,1107.9,235.5,1107.8,235.5z"/>
		</g>
		<g>
			<g>
				<path class="st13" d="M1067.2,207.3c-0.5,0-0.8-0.4-0.9-0.8c-0.1-0.5,0.4-0.9,0.8-1l27-2.8c0.5,0,0.9,0.4,1,0.8
					c0.1,0.5-0.4,0.9-0.8,1L1067.2,207.3C1067.3,207.3,1067.3,207.3,1067.2,207.3z"/>
			</g>
			<g>
				<path class="st13" d="M1100.4,203.9c-0.5,0-0.8-0.4-0.9-0.8c-0.1-0.5,0.4-0.9,0.8-1l13.5-1.4c0.5,0,0.9,0.4,1,0.8
					c0.1,0.5-0.4,0.9-0.8,1L1100.4,203.9C1100.5,203.9,1100.4,203.9,1100.4,203.9z"/>
			</g>
			<g>
				<path class="st13" d="M1120.9,201.9c-0.5,0-0.8-0.4-0.9-0.8c-0.1-0.5,0.4-0.9,0.8-1l13.5-1.4c0.5-0.1,0.9,0.4,1,0.8
					c0.1,0.5-0.4,0.9-0.8,1L1120.9,201.9L1120.9,201.9z"/>
			</g>
		</g>
		<g>
			<g>
				<path class="st13" d="M1087.6,228.5c-0.5,0-0.8-0.4-0.9-0.8c-0.1-0.5,0.4-0.9,0.8-1l25-2.6c0.5-0.1,0.9,0.4,1,0.8
					c0.1,0.5-0.4,0.9-0.8,1L1087.6,228.5L1087.6,228.5z"/>
			</g>
			<g>
				<path class="st13" d="M1069.3,230.4c-0.5,0-0.8-0.4-0.9-0.8c-0.1-0.5,0.4-0.9,0.8-1l12.5-1.3c0.5,0,0.9,0.4,1,0.8
					c0.1,0.5-0.4,0.9-0.8,1L1069.3,230.4C1069.4,230.4,1069.4,230.4,1069.3,230.4z"/>
			</g>
			<g>
				<path class="st13" d="M1050.5,232.4c-0.5,0-0.8-0.4-0.9-0.8s0.4-0.9,0.8-1l12.5-1.3c0.5-0.1,0.9,0.4,1,0.8
					c0.1,0.5-0.4,0.9-0.8,1L1050.5,232.4L1050.5,232.4z"/>
			</g>
		</g>
		<g>
			<g>
				<path class="st13" d="M1068.8,222.6c-0.5,0-0.8-0.4-0.9-0.8c-0.1-0.5,0.4-0.9,0.8-1l13.5-1.4c0.5,0,0.9,0.4,1,0.8
					c0.1,0.4-0.4,0.9-0.8,1L1068.8,222.6C1068.9,222.6,1068.8,222.6,1068.8,222.6z"/>
			</g>
			<g>
				<path class="st13" d="M1089.3,220.5c-0.5,0-0.8-0.4-0.9-0.8c-0.1-0.5,0.4-0.9,0.8-1l13.5-1.4c0.5,0,0.9,0.4,1,0.8
					s-0.4,0.9-0.8,1L1089.3,220.5L1089.3,220.5z"/>
			</g>
		</g>
		<g>
			<g>
				<path class="st13" d="M1068,215c-0.5,0-0.8-0.4-0.9-0.8c-0.1-0.5,0.4-0.9,0.8-1l39.9-4.1c0.5-0.1,0.9,0.4,1,0.8
					c0.1,0.5-0.4,0.9-0.8,1L1068,215C1068.1,215,1068,215,1068,215z"/>
			</g>
			<g>
				<path class="st13" d="M1115.2,210.2c-0.5,0-0.8-0.4-0.9-0.8c-0.1-0.5,0.4-0.9,0.8-1l44.2-4.5c0.5-0.1,0.9,0.4,1,0.8
					c0.1,0.5-0.4,0.9-0.8,1L1115.2,210.2C1115.3,210.2,1115.2,210.2,1115.2,210.2z"/>
			</g>
		</g>
	</g>
</g>
</svg>
