<?xml version="1.0" encoding="utf-8"?>
<!-- Generator: Adobe Illustrator 19.1.0, SVG Export Plug-In . SVG Version: 6.00 Build 0)  -->
<svg version="1.1" id="Layer_1" xmlns="http://www.w3.org/2000/svg" xmlns:xlink="http://www.w3.org/1999/xlink" x="0px" y="0px"
	 width="310px" height="200px" viewBox="55 0 310 200" style="enable-background:new 55 0 310 200;" xml:space="preserve">
<style type="text/css">
	.st0{fill:#F7F7F7;}
	.st1{fill:#FFFFFF;stroke:#007AA5;stroke-width:2;stroke-linecap:round;stroke-linejoin:round;stroke-miterlimit:10;}
	
		.st2{fill:#0081BA;fill-opacity:0.67;stroke:#007AA5;stroke-width:2;stroke-linecap:round;stroke-linejoin:round;stroke-miterlimit:10;}
	.st3{fill:none;stroke:#C2E1EF;stroke-width:2;stroke-linecap:round;stroke-linejoin:round;stroke-miterlimit:10;}
</style>
<g id="Layer_1_1_">
	<rect x="55" class="st0" width="310" height="200"/>
</g>
<g>
	<path class="st1" d="M269.4,69.1H150.6V60c0-2.7,2.2-5,5-5h108.8c2.7,0,5,2.2,5,5V69.1z"/>
	<path class="st2" d="M264.4,145H155.6c-2.7,0-5-2.2-5-5v-71h118.8v71C269.4,142.8,267.2,145,264.4,145z"/>
	<g>
		<line class="st3" x1="167.4" y1="92.2" x2="207.7" y2="92.2"/>
		<line class="st3" x1="167.4" y1="128.6" x2="186.1" y2="128.6"/>
		<line class="st3" x1="191.4" y1="128.6" x2="197.8" y2="128.6"/>
		<line class="st3" x1="204" y1="128.6" x2="218.9" y2="128.6"/>
		<g>
			<line class="st3" x1="179.8" y1="99.2" x2="197.4" y2="99.2"/>
			<line class="st3" x1="201.4" y1="99.2" x2="210.1" y2="99.2"/>
			<line class="st3" x1="214.6" y1="99.2" x2="223.4" y2="99.2"/>
		</g>
		<g>
			<line class="st3" x1="207.7" y1="120.4" x2="191.5" y2="120.4"/>
			<line class="st3" x1="187.8" y1="120.4" x2="179.7" y2="120.4"/>
			<line class="st3" x1="175.5" y1="120.4" x2="167.4" y2="120.4"/>
		</g>
		<g>
			<line class="st3" x1="179.8" y1="113.3" x2="188.6" y2="113.3"/>
			<line class="st3" x1="193.1" y1="113.3" x2="201.9" y2="113.3"/>
		</g>
		<g>
			<line class="st3" x1="179.8" y1="106.3" x2="205.8" y2="106.3"/>
			<line class="st3" x1="210.5" y1="106.3" x2="239.2" y2="106.3"/>
		</g>
		<g>
			<line class="st3" x1="167.4" y1="85.2" x2="180.7" y2="85.2"/>
			<line class="st3" x1="186.1" y1="85.2" x2="226.4" y2="85.2"/>
			<line class="st3" x1="232.6" y1="85.2" x2="240.8" y2="85.2"/>
		</g>
	</g>
	<g>
		<circle class="st1" cx="160.6" cy="62.3" r="1.6"/>
		<circle class="st1" cx="167.3" cy="62.3" r="1.6"/>
		<circle class="st1" cx="174" cy="62.3" r="1.6"/>
	</g>
</g>
</svg>
