<?xml version="1.0" encoding="utf-8"?>
<!-- Generator: Adobe Illustrator 19.1.0, SVG Export Plug-In . SVG Version: 6.00 Build 0)  -->
<svg version="1.1" id="Layer_1" xmlns="http://www.w3.org/2000/svg" xmlns:xlink="http://www.w3.org/1999/xlink" x="0px" y="0px"
	 width="310px" height="200px" viewBox="55 0 310 200" style="enable-background:new 55 0 310 200;" xml:space="preserve">
<style type="text/css">
	.st0{fill:#F7F7F7;}
	.st1{fill:none;stroke:#0081BA;stroke-width:2;stroke-linecap:round;stroke-linejoin:round;stroke-miterlimit:10;}
	.st2{fill:#FFFFFF;stroke:#0081BA;stroke-width:2;stroke-linecap:round;stroke-linejoin:round;stroke-miterlimit:10;}
	.st3{fill:#99CBE1;stroke:#0081BA;stroke-width:2;stroke-linecap:round;stroke-linejoin:round;stroke-miterlimit:10;}
</style>
<g id="Layer_1_1_">
	<rect x="55" class="st0" width="310" height="200"/>
</g>
<g id="Layer_2">
</g>
<g>
	<g>
		<line class="st1" x1="147.2" y1="66.3" x2="208.1" y2="66.3"/>
		<line class="st1" x1="147.2" y1="59" x2="218.5" y2="59"/>
	</g>
	<g>
		<path class="st2" d="M201.4,92.6h-50.8c-1.9,0-3.4-1.5-3.4-3.4v-4.5c0-1.9,1.5-3.4,3.4-3.4h50.8c1.9,0,3.4,1.5,3.4,3.4v4.5
			C204.8,91.1,203.3,92.6,201.4,92.6z"/>
		<path class="st2" d="M201.4,112.2h-50.8c-1.9,0-3.4-1.5-3.4-3.4v-4.5c0-1.9,1.5-3.4,3.4-3.4h50.8c1.9,0,3.4,1.5,3.4,3.4v4.5
			C204.8,110.7,203.3,112.2,201.4,112.2z"/>
		<path class="st2" d="M269.4,112.2h-50.8c-1.9,0-3.4-1.5-3.4-3.4v-4.5c0-1.9,1.5-3.4,3.4-3.4h50.8c1.9,0,3.4,1.5,3.4,3.4v4.5
			C272.8,110.7,271.3,112.2,269.4,112.2z"/>
		<path class="st2" d="M268.6,92.6h-50.8c-1.9,0-3.4-1.5-3.4-3.4v-4.5c0-1.9,1.5-3.4,3.4-3.4h50.8c1.9,0,3.4,1.5,3.4,3.4v4.5
			C272,91.1,270.5,92.6,268.6,92.6z"/>
		<line class="st1" x1="154.9" y1="88.9" x2="154.9" y2="84.8"/>
	</g>
	<g>
		<path class="st3" d="M266,141H153.2c-3.3,0-6-2.7-6-6v0c0-3.3,2.7-6,6-6H266c3.3,0,6,2.7,6,6v0C272,138.3,269.3,141,266,141z"/>
	</g>
</g>
</svg>
