<?xml version="1.0" encoding="utf-8"?>
<!-- Generator: Adobe Illustrator 19.1.0, SVG Export Plug-In . SVG Version: 6.00 Build 0)  -->
<svg version="1.1" id="Layer_1" xmlns="http://www.w3.org/2000/svg" xmlns:xlink="http://www.w3.org/1999/xlink" x="0px" y="0px"
	 width="310px" height="200px" viewBox="55 0 310 200" style="enable-background:new 55 0 310 200;" xml:space="preserve">
<style type="text/css">
	.st0{fill:#F7F7F7;}
	.st1{opacity:0.2;}
	.st2{clip-path:url(#SVGID_2_);fill:#0081BA;}
	
		.st3{fill:#0081BA;fill-opacity:0.2;stroke:#007AA5;stroke-width:2;stroke-linecap:round;stroke-linejoin:round;stroke-miterlimit:10;}
</style>
<g id="Layer_1_1_">
	<rect x="55" class="st0" width="310" height="200"/>
</g>
<g class="st1">
	<g>
		<defs>
			<path id="SVGID_1_" d="M195.2,99.9v-7.6c0-3.8-7.3-5.3-9.5-6c0,0,0.9-5.2,6.9-5.7c6-0.4,7.2-0.5,7.2-0.5l11.3-7.8
				c0,0,4-3.6,8-3.2s7.5-0.9,7.5-0.9l16.1-11.3c0,0,6.5,2.1,0.1,10.9c-2.8,2.8-5.2,7.3-5.2,7.3l0.9,1.1l8.2-5.8l1.7-4.1
				c0,0,6,4-3,11.1c-1.5,1.2-4,2.9-5.2,4.4c-2.6,2.9-4,8.8-5.5,12.5c-1.6,3.6-2.7,7.4-2.4,11.3c0.3,3.5,1.5,5.8-0.9,9.1
				c-2.7,3.4-5.9,9.5-5.9,9.5l-7.6,20.8l-3.5-6.4l-7.8,5.8l-3.5-9.8l-11,5.4v-10l-12.5,2.1l2-7.9h-9.7l8.3-8.3l4.3-8.9l5.7-10.1"/>
		</defs>
		<clipPath id="SVGID_2_">
			<use xlink:href="#SVGID_1_"  style="overflow:visible;"/>
		</clipPath>
		<polygon id="XMLID_644_" class="st2" points="164.8,146.2 163.2,57.4 250.5,57.4 250.5,144.6 		"/>
	</g>
</g>
<path id="XMLID_196_" class="st3" d="M197.7,100.2l-4.7-9.8c0-3.8-7.3-5.3-9.5-6c0,0,0.9-5.2,6.9-5.7c6-0.4,7.2-0.5,7.2-0.5
	l11.3-7.8c0,0,4-3.6,8-3.2s7.5-0.9,7.5-0.9l16-11.3c0,0,6.5,2.1,0.1,10.9c-5.1,4.9-5.2,7.3-5.2,7.3l0.9,1.1l8.2-5.8l3.4-4.3
	c0,0,4.4,4.1-4.6,11.3c-1.5,1.2-4,2.9-5.2,4.4c-2.6,2.9-4,8.8-5.5,12.5c-1.6,3.6-2.7,7.4-2.4,11.3c0.3,3.5,1.5,5.8-0.9,9.1
	c-2.7,3.4-5.9,9.5-5.9,9.5l-7.6,20.8l-3.5-6.4l-7.8,5.8l-3.6-9.8l-11,5.4v-10l-12.5,2.1l2-7.9h-9.7l8.3-8.3l4.3-8.9l5.7-10.1"/>
</svg>
