<?xml version="1.0" encoding="utf-8"?>
<!-- Generator: Adobe Illustrator 19.1.0, SVG Export Plug-In . SVG Version: 6.00 Build 0)  -->
<svg version="1.1" id="Layer_1" xmlns="http://www.w3.org/2000/svg" xmlns:xlink="http://www.w3.org/1999/xlink" x="0px" y="0px"
	 width="310px" height="200px" viewBox="55 0 310 200" style="enable-background:new 55 0 310 200;" xml:space="preserve">
<style type="text/css">
	.st0{fill:#F7F7F7;}
	.st1{fill:#FFFFFF;stroke:#0081BA;stroke-width:2;stroke-linecap:round;stroke-linejoin:round;stroke-miterlimit:10;}
	
		.st2{fill:#0081BA;fill-opacity:0.3;stroke:#0081BA;stroke-width:2;stroke-linecap:round;stroke-linejoin:round;stroke-miterlimit:10;}
	.st3{fill:none;stroke:#0081BA;stroke-width:2;stroke-linecap:round;stroke-linejoin:round;stroke-miterlimit:10;}
	.st4{fill:#99CBE1;stroke:#0081BA;stroke-width:2;stroke-linecap:round;stroke-linejoin:round;stroke-miterlimit:10;}
	.st5{fill:#CCE6F1;stroke:#0081BA;stroke-width:2;stroke-linecap:round;stroke-linejoin:round;stroke-miterlimit:10;}
	.st6{fill:#0081BA;stroke:#0081BA;stroke-width:2;stroke-linecap:round;stroke-linejoin:round;stroke-miterlimit:10;}
</style>
<g id="Layer_1_1_">
	<rect x="55" class="st0" width="310" height="200"/>
</g>
<g id="Layer_2">
</g>
<g>
	<path class="st1" d="M-17,99l-181.3-9.6c-4.6-0.2-8.2-4.2-8-8.8l7.4-141.2c0.2-4.6,4.2-8.2,8.8-8L-8.7-59c4.6,0.2,8.2,4.2,8,8.8
		L-8.2,91C-8.4,95.7-12.4,99.2-17,99z"/>
	
		<rect x="-201.9" y="-47.2" transform="matrix(0.9986 5.267745e-02 -5.267745e-02 0.9986 -0.1124 5.4121)" class="st2" width="198.4" height="95.5"/>
	<g>
		<circle class="st3" cx="-185.6" cy="-59.8" r="1.5"/>
		<circle class="st3" cx="-179.4" cy="-59.5" r="1.5"/>
		<circle class="st3" cx="-173.2" cy="-59.2" r="1.5"/>
	</g>
	<path class="st4" d="M-75.5,16l-56-3c-2.8-0.1-5-2.5-4.8-5.4v0c0.1-2.8,2.5-5,5.4-4.8l56,3c2.8,0.1,5,2.5,4.8,5.4v0
		C-70.3,14-72.7,16.2-75.5,16z"/>
	<g>
		<line class="st3" x1="-135.9" y1="-28.5" x2="-66.7" y2="-24.9"/>
		<line class="st3" x1="-131.1" y1="-13.9" x2="-73" y2="-10.8"/>
		<line class="st3" x1="-153.8" y1="-22.3" x2="-49.6" y2="-16.8"/>
	</g>
</g>
<g>
	<polygon class="st5" points="212.8,142.3 207.4,142.3 207.4,67.2 212.8,66.8 	"/>
	<g>
		<path class="st5" d="M214.3,132.2h-8.4c-1.9,0-3.4,1.5-3.4,3.4v2.1h15.2v-2.1C217.7,133.7,216.2,132.2,214.3,132.2z"/>
		<path class="st5" d="M224.7,137h-29.3c-3,0-5.5,2.5-5.5,5.5l0,0h40.3l0,0C230.2,139.5,227.8,137,224.7,137z"/>
	</g>
</g>
<polygon class="st3" points="143.3,115.7 163.9,77 184.6,115.7 "/>
<path class="st2" d="M184.6,115.7c0,2.7-9.2,5.8-20.5,5.8s-20.5-3.1-20.5-5.8H184.6z"/>
<polygon class="st3" points="235.4,97.5 256.1,58.7 276.7,97.5 "/>
<path class="st2" d="M276.7,97.5c0,2.7-9.2,5.8-20.5,5.8c-11.3,0-20.5-3.1-20.5-5.8H276.7z"/>
<polygon class="st6" points="256.2,58.9 163.9,77 163.9,75.6 256.2,57.5 "/>
<circle class="st6" cx="210.1" cy="65.6" r="2.2"/>
<path class="st1" d="M260.9,87.5l-4.6,4.6l-0.9,0.9c-0.1,0.1-0.3,0.2-0.4,0.2c-0.2,0-0.3-0.1-0.4-0.2l-0.9-0.9l-2.3-2.3
	c-0.1-0.1-0.2-0.3-0.2-0.4c0-0.2,0.1-0.3,0.2-0.4l0.9-0.9c0.1-0.1,0.3-0.2,0.4-0.2c0.2,0,0.3,0.1,0.4,0.2l1.9,1.9l4.2-4.2
	c0.1-0.1,0.3-0.2,0.4-0.2c0.2,0,0.3,0.1,0.4,0.2l0.9,0.9c0.1,0.1,0.2,0.3,0.2,0.4S261,87.4,260.9,87.5z"/>
<g>
	<path class="st1" d="M167.6,109.5l-0.9,0.9c-0.1,0.1-0.3,0.2-0.4,0.2c-0.2,0-0.3-0.1-0.4-0.2l-1.9-1.9l-1.9,1.9
		c-0.1,0.1-0.3,0.2-0.4,0.2c-0.2,0-0.3-0.1-0.4-0.2l-0.9-0.9c-0.1-0.1-0.2-0.3-0.2-0.4c0-0.2,0.1-0.3,0.2-0.4l1.9-1.9l-1.9-1.9
		c-0.1-0.1-0.2-0.3-0.2-0.4c0-0.2,0.1-0.3,0.2-0.4l0.9-0.9c0.1-0.1,0.3-0.2,0.4-0.2c0.2,0,0.3,0.1,0.4,0.2l1.9,1.9l1.9-1.9
		c0.1-0.1,0.3-0.2,0.4-0.2c0.2,0,0.3,0.1,0.4,0.2l0.9,0.9c0.1,0.1,0.2,0.3,0.2,0.4c0,0.2-0.1,0.3-0.2,0.4l-1.9,1.9l1.9,1.9
		c0.1,0.1,0.2,0.3,0.2,0.4C167.8,109.2,167.7,109.4,167.6,109.5z"/>
</g>
</svg>
