<?xml version="1.0" encoding="utf-8"?>
<!-- Generator: Adobe Illustrator 19.0.1, SVG Export Plug-In . SVG Version: 6.00 Build 0)  -->
<svg version="1.1" id="Layer_1" xmlns="http://www.w3.org/2000/svg" xmlns:xlink="http://www.w3.org/1999/xlink" x="0px" y="0px"
	 width="942px" height="240px" viewBox="421 -70 942 240" enable-background="new 421 -70 942 240" xml:space="preserve">
<rect x="421" y="-70" fill="#42B872" width="314" height="240"/>
<rect x="735" y="-70" fill="#F7F7F7" width="314" height="240"/>
<rect x="1049" y="-70" fill="#464E5A" width="314" height="240"/>
<g>
	<path fill="#FFFFFF" d="M564.2,37.3h-14c-0.4,0-0.7,0.3-0.8,0.6c-0.1,0.4,0.1,0.8,0.4,1l14,8.2c0.1,0.1,0.3,0.1,0.4,0.1
		c0.1,0,0.3,0,0.4-0.1c0.3-0.2,0.4-0.4,0.4-0.8v-8.2C565.1,37.7,564.7,37.3,564.2,37.3z M563.3,44.9l-9.9-5.8h9.9V44.9z"/>
	<path fill="#FFFFFF" d="M628,50.5c0-0.1,0-0.1,0-0.2l-0.8-22.7c0-0.3-0.2-0.5-0.4-0.7s-0.5-0.2-0.8-0.1l-5.4,2.3V-1.7
		c0-0.3-0.2-0.6-0.4-0.7c-0.3-0.2-0.6-0.2-0.8,0l-25.1,12.9h-32.4L536.7-2.5c-0.3-0.1-0.6-0.1-0.8,0c-0.3,0.2-0.4,0.4-0.4,0.7v30.8
		l-5.4-2.3c-0.3-0.1-0.6-0.1-0.8,0.1c-0.2,0.2-0.4,0.4-0.4,0.7L528,50.4c0,0.1,0,0.2,0,0.2c0,0,0,0,0,0l2.5,9.2
		c0,0.1,0.1,0.2,0.1,0.3l10,14.4l-1.4,12c0,0.3,0.1,0.6,0.3,0.8c0.1,0.1,0.2,0.1,0.2,0.1c0,0,0,0,0.1,0c0.1,0,0.2,0,0.2,0
		c0,0,0,0,0,0c0,0,0,0,0,0c0.1,0,0.1,0,0.2,0l16.3-4.5l6.8,11.8c0.1,0.1,0.2,0.3,0.3,0.3l13.8,7.3c0.1,0.1,0.3,0.1,0.4,0.1
		c0.1,0,0.3,0,0.4-0.1l13.8-7.3c0,0,0,0,0,0c0.1,0,0.1-0.1,0.2-0.1c0,0,0,0,0,0c0.1-0.1,0.1-0.1,0.1-0.2c0,0,0,0,0,0l6.8-11.8
		l16.3,4.5c0.1,0,0.1,0,0.2,0c0,0,0,0,0,0c0,0,0,0,0,0c0.1,0,0.2,0,0.2,0c0,0,0,0,0.1,0c0.1,0,0.2-0.1,0.2-0.1
		c0.2-0.2,0.3-0.5,0.3-0.8l-1.4-12l10-14.4c0.1-0.1,0.1-0.2,0.1-0.3l2.5-9.1C628,50.7,628,50.6,628,50.5z M620.6,45.9l0-14.9
		l4.9-2.1l0.7,20.1L620.6,45.9z M537.1-0.3L561.2,12c0.1,0.1,0.3,0.1,0.4,0.1h32.8c0.1,0,0.3,0,0.4-0.1l24.1-12.3v29.2l-26.7-15.3
		c-0.3-0.2-0.6-0.2-0.9,0L578,21.2l-13.4-7.6c-0.3-0.2-0.6-0.2-0.9,0l-26.7,15.3V-0.3z M604,22.3l-26,14.8l-26-14.8l12.2-7l13.4,7.6
		c0.3,0.2,0.6,0.2,0.9,0l13.4-7.6L604,22.3z M535.4,31l0,14.9l-5.6,3.1l0.7-20.1L535.4,31z M532.2,59.3l-2.3-8.4l6.4-3.5l13,7.5
		v28.4l-8.2,2.2l1.3-11.1c0-0.2,0-0.4-0.2-0.6L532.2,59.3z M578,100.7L565.1,94l0-14l12.5,7.1c0.1,0.1,0.3,0.1,0.4,0.1
		c0.1,0,0.3,0,0.4-0.1l12.5-7.1v14L578,100.7z M578,70.5l-12.9-7.4V56l12.5,7.1c0.3,0.2,0.6,0.2,0.9,0l12.5-7.1v7.2L578,70.5z
		 M578,72.5l11.9,6L578,85.3L566,78.5L578,72.5z M599.1,81.2c-0.4-0.1-0.8,0.1-1,0.4l-5.5,9.6V78.5c0,0,0,0,0,0c0,0,0,0,0,0
		c0,0,0,0,0,0c0-0.1,0-0.1,0-0.2c0,0,0,0,0-0.1c0-0.1,0-0.1-0.1-0.2c0,0,0,0,0,0c0-0.1-0.1-0.1-0.1-0.2c0,0,0,0,0,0
		c0,0-0.1-0.1-0.1-0.1c0,0,0,0,0,0l-12.3-6.2l12.4-7.1c0.3-0.2,0.4-0.4,0.4-0.8v-9.2c0-0.3-0.2-0.6-0.4-0.8c-0.3-0.2-0.6-0.2-0.9,0
		L578,61.3l-13.4-7.6c-0.3-0.2-0.6-0.2-0.9,0c-0.3,0.2-0.4,0.4-0.4,0.8v9.2c0,0.3,0.2,0.6,0.4,0.8l12.4,7.1l-12.3,6.2c0,0,0,0,0,0
		c0,0-0.1,0.1-0.1,0.1c0,0,0,0,0,0c-0.1,0-0.1,0.1-0.1,0.2c0,0,0,0,0,0c0,0.1-0.1,0.1-0.1,0.2c0,0,0,0,0,0.1c0,0.1,0,0.1,0,0.2
		c0,0,0,0,0,0c0,0,0,0,0,0c0,0,0,0,0,0l0,12.8l-5.5-9.7c-0.2-0.3-0.6-0.5-1-0.4l-5.8,1.6V54.4c0-0.3-0.2-0.6-0.4-0.8l-13.4-7.8l0-15
		l13.1-7.5l27.3,15.6c0.1,0.1,0.3,0.1,0.4,0.1c0.1,0,0.3,0,0.4-0.1l27.3-15.6l13.1,7.5l0,15l-13.4,7.8c-0.3,0.2-0.4,0.4-0.4,0.8
		v28.4L599.1,81.2z M613.7,73.8c-0.1,0.2-0.2,0.4-0.2,0.6l1.3,11.1l-8.2-2.2V54.9l13-7.5l6.4,3.5l-2.3,8.4L613.7,73.8z"/>
	<path fill="#FFFFFF" d="M606.6,38c-0.1-0.4-0.4-0.6-0.8-0.6h-14c-0.5,0-0.9,0.4-0.9,0.9v8.2c0,0.3,0.2,0.6,0.4,0.8
		c0.1,0.1,0.3,0.1,0.4,0.1c0.2,0,0.3,0,0.4-0.1l14-8.2C606.5,38.7,606.7,38.3,606.6,38z M592.6,44.9v-5.8h9.9L592.6,44.9z"/>
</g>
<g>
	<path fill="#42B872" d="M878.2,37.3h-14c-0.4,0-0.7,0.3-0.8,0.6c-0.1,0.4,0.1,0.8,0.4,1l14,8.2c0.1,0.1,0.3,0.1,0.4,0.1
		c0.1,0,0.3,0,0.4-0.1c0.3-0.2,0.4-0.4,0.4-0.8v-8.2C879.1,37.7,878.7,37.3,878.2,37.3z M877.3,44.9l-9.9-5.8h9.9V44.9z"/>
	<path fill="#42B872" d="M942,50.5c0-0.1,0-0.1,0-0.2l-0.8-22.7c0-0.3-0.2-0.5-0.4-0.7s-0.5-0.2-0.8-0.1l-5.4,2.3V-1.7
		c0-0.3-0.2-0.6-0.4-0.7c-0.3-0.2-0.6-0.2-0.8,0l-25.1,12.9h-32.4L850.7-2.5c-0.3-0.1-0.6-0.1-0.8,0c-0.3,0.2-0.4,0.4-0.4,0.7v30.8
		l-5.4-2.3c-0.3-0.1-0.6-0.1-0.8,0.1c-0.2,0.2-0.4,0.4-0.4,0.7L842,50.4c0,0.1,0,0.2,0,0.2c0,0,0,0,0,0l2.5,9.2
		c0,0.1,0.1,0.2,0.1,0.3l10,14.4l-1.4,12c0,0.3,0.1,0.6,0.3,0.8c0.1,0.1,0.2,0.1,0.2,0.1c0,0,0,0,0.1,0c0.1,0,0.2,0,0.2,0
		c0,0,0,0,0,0c0,0,0,0,0,0c0.1,0,0.1,0,0.2,0l16.3-4.5l6.8,11.8c0.1,0.1,0.2,0.3,0.3,0.3l13.8,7.3c0.1,0.1,0.3,0.1,0.4,0.1
		c0.1,0,0.3,0,0.4-0.1l13.8-7.3c0,0,0,0,0,0c0.1,0,0.1-0.1,0.2-0.1c0,0,0,0,0,0c0.1-0.1,0.1-0.1,0.1-0.2c0,0,0,0,0,0l6.8-11.8
		l16.3,4.5c0.1,0,0.1,0,0.2,0c0,0,0,0,0,0c0,0,0,0,0,0c0.1,0,0.2,0,0.2,0c0,0,0,0,0.1,0c0.1,0,0.2-0.1,0.2-0.1
		c0.2-0.2,0.3-0.5,0.3-0.8l-1.4-12l10-14.4c0.1-0.1,0.1-0.2,0.1-0.3l2.5-9.1C942,50.7,942,50.6,942,50.5z M934.6,45.9l0-14.9
		l4.9-2.1l0.7,20.1L934.6,45.9z M851.1-0.3L875.2,12c0.1,0.1,0.3,0.1,0.4,0.1h32.8c0.1,0,0.3,0,0.4-0.1l24.1-12.3v29.2l-26.7-15.3
		c-0.3-0.2-0.6-0.2-0.9,0L892,21.2l-13.4-7.6c-0.3-0.2-0.6-0.2-0.9,0l-26.7,15.3V-0.3z M918,22.3l-26,14.8l-26-14.8l12.2-7l13.4,7.6
		c0.3,0.2,0.6,0.2,0.9,0l13.4-7.6L918,22.3z M849.4,31l0,14.9l-5.6,3.1l0.7-20.1L849.4,31z M846.2,59.3l-2.3-8.4l6.4-3.5l13,7.5
		v28.4l-8.2,2.2l1.3-11.1c0-0.2,0-0.4-0.2-0.6L846.2,59.3z M892,100.7L879.1,94l0-14l12.5,7.1c0.1,0.1,0.3,0.1,0.4,0.1
		s0.3,0,0.4-0.1l12.5-7.1v14L892,100.7z M892,70.5l-12.9-7.4V56l12.5,7.1c0.3,0.2,0.6,0.2,0.9,0l12.5-7.1v7.2L892,70.5z M892,72.5
		l11.9,6L892,85.3L880,78.5L892,72.5z M913.1,81.2c-0.4-0.1-0.8,0.1-1,0.4l-5.5,9.6V78.5c0,0,0,0,0,0c0,0,0,0,0,0c0,0,0,0,0,0
		c0-0.1,0-0.1,0-0.2c0,0,0,0,0-0.1c0-0.1,0-0.1-0.1-0.2c0,0,0,0,0,0c0-0.1-0.1-0.1-0.1-0.2c0,0,0,0,0,0c0,0-0.1-0.1-0.1-0.1
		c0,0,0,0,0,0l-12.3-6.2l12.4-7.1c0.3-0.2,0.4-0.4,0.4-0.8v-9.2c0-0.3-0.2-0.6-0.4-0.8c-0.3-0.2-0.6-0.2-0.9,0L892,61.3l-13.4-7.6
		c-0.3-0.2-0.6-0.2-0.9,0c-0.3,0.2-0.4,0.4-0.4,0.8v9.2c0,0.3,0.2,0.6,0.4,0.8l12.4,7.1l-12.3,6.2c0,0,0,0,0,0c0,0-0.1,0.1-0.1,0.1
		c0,0,0,0,0,0c-0.1,0-0.1,0.1-0.1,0.2c0,0,0,0,0,0c0,0.1-0.1,0.1-0.1,0.2c0,0,0,0,0,0.1c0,0.1,0,0.1,0,0.2c0,0,0,0,0,0c0,0,0,0,0,0
		c0,0,0,0,0,0l0,12.8l-5.5-9.7c-0.2-0.3-0.6-0.5-1-0.4l-5.8,1.6V54.4c0-0.3-0.2-0.6-0.4-0.8l-13.4-7.8l0-15l13.1-7.5l27.3,15.6
		c0.1,0.1,0.3,0.1,0.4,0.1s0.3,0,0.4-0.1l27.3-15.6l13.1,7.5l0,15l-13.4,7.8c-0.3,0.2-0.4,0.4-0.4,0.8v28.4L913.1,81.2z M927.7,73.8
		c-0.1,0.2-0.2,0.4-0.2,0.6l1.3,11.1l-8.2-2.2V54.9l13-7.5l6.4,3.5l-2.3,8.4L927.7,73.8z"/>
	<path fill="#42B872" d="M920.6,38c-0.1-0.4-0.4-0.6-0.8-0.6h-14c-0.5,0-0.9,0.4-0.9,0.9v8.2c0,0.3,0.2,0.6,0.4,0.8
		c0.1,0.1,0.3,0.1,0.4,0.1c0.2,0,0.3,0,0.4-0.1l14-8.2C920.5,38.7,920.7,38.3,920.6,38z M906.6,44.9v-5.8h9.9L906.6,44.9z"/>
</g>
<g>
	<path fill="#42B872" d="M1192.2,37.3h-14c-0.4,0-0.7,0.3-0.8,0.6c-0.1,0.4,0.1,0.8,0.4,1l14,8.2c0.1,0.1,0.3,0.1,0.4,0.1
		c0.1,0,0.3,0,0.4-0.1c0.3-0.2,0.4-0.4,0.4-0.8v-8.2C1193.1,37.7,1192.7,37.3,1192.2,37.3z M1191.3,44.9l-9.9-5.8h9.9V44.9z"/>
	<path fill="#42B872" d="M1256,50.5c0-0.1,0-0.1,0-0.2l-0.8-22.7c0-0.3-0.2-0.5-0.4-0.7c-0.2-0.2-0.5-0.2-0.8-0.1l-5.4,2.3V-1.7
		c0-0.3-0.2-0.6-0.4-0.7c-0.3-0.2-0.6-0.2-0.8,0l-25.1,12.9h-32.4l-25.1-12.9c-0.3-0.1-0.6-0.1-0.8,0c-0.3,0.2-0.4,0.4-0.4,0.7v30.8
		l-5.4-2.3c-0.3-0.1-0.6-0.1-0.8,0.1c-0.2,0.2-0.4,0.4-0.4,0.7l-0.8,22.9c0,0.1,0,0.2,0,0.2c0,0,0,0,0,0l2.5,9.2
		c0,0.1,0.1,0.2,0.1,0.3l10,14.4l-1.4,12c0,0.3,0.1,0.6,0.3,0.8c0.1,0.1,0.2,0.1,0.2,0.1c0,0,0,0,0.1,0c0.1,0,0.2,0,0.2,0
		c0,0,0,0,0,0c0,0,0,0,0,0c0.1,0,0.1,0,0.2,0l16.3-4.5l6.8,11.8c0.1,0.1,0.2,0.3,0.3,0.3l13.8,7.3c0.1,0.1,0.3,0.1,0.4,0.1
		s0.3,0,0.4-0.1l13.8-7.3c0,0,0,0,0,0c0.1,0,0.1-0.1,0.2-0.1c0,0,0,0,0,0c0.1-0.1,0.1-0.1,0.1-0.2c0,0,0,0,0,0l6.8-11.8l16.3,4.5
		c0.1,0,0.1,0,0.2,0c0,0,0,0,0,0c0,0,0,0,0,0c0.1,0,0.2,0,0.2,0c0,0,0,0,0.1,0c0.1,0,0.2-0.1,0.2-0.1c0.2-0.2,0.3-0.5,0.3-0.8
		l-1.4-12l10-14.4c0.1-0.1,0.1-0.2,0.1-0.3l2.5-9.1C1256,50.7,1256,50.6,1256,50.5z M1248.6,45.9l0-14.9l4.9-2.1l0.7,20.1
		L1248.6,45.9z M1165.1-0.3l24.1,12.3c0.1,0.1,0.3,0.1,0.4,0.1h32.8c0.1,0,0.3,0,0.4-0.1l24.1-12.3v29.2l-26.7-15.3
		c-0.3-0.2-0.6-0.2-0.9,0l-13.4,7.6l-13.4-7.6c-0.3-0.2-0.6-0.2-0.9,0l-26.7,15.3V-0.3z M1232,22.3l-26,14.8l-26-14.8l12.2-7
		l13.4,7.6c0.3,0.2,0.6,0.2,0.9,0l13.4-7.6L1232,22.3z M1163.4,31l0,14.9l-5.6,3.1l0.7-20.1L1163.4,31z M1160.2,59.3l-2.3-8.4
		l6.4-3.5l13,7.5v28.4l-8.2,2.2l1.3-11.1c0-0.2,0-0.4-0.2-0.6L1160.2,59.3z M1206,100.7l-12.9-6.8l0-14l12.5,7.1
		c0.1,0.1,0.3,0.1,0.4,0.1s0.3,0,0.4-0.1l12.5-7.1v14L1206,100.7z M1206,70.5l-12.9-7.4V56l12.5,7.1c0.3,0.2,0.6,0.2,0.9,0l12.5-7.1
		v7.2L1206,70.5z M1206,72.5l11.9,6l-11.9,6.8l-11.9-6.8L1206,72.5z M1227.1,81.2c-0.4-0.1-0.8,0.1-1,0.4l-5.5,9.6V78.5c0,0,0,0,0,0
		c0,0,0,0,0,0c0,0,0,0,0,0c0-0.1,0-0.1,0-0.2c0,0,0,0,0-0.1c0-0.1,0-0.1-0.1-0.2c0,0,0,0,0,0c0-0.1-0.1-0.1-0.1-0.2c0,0,0,0,0,0
		c0,0-0.1-0.1-0.1-0.1c0,0,0,0,0,0l-12.3-6.2l12.4-7.1c0.3-0.2,0.4-0.4,0.4-0.8v-9.2c0-0.3-0.2-0.6-0.4-0.8c-0.3-0.2-0.6-0.2-0.9,0
		l-13.4,7.6l-13.4-7.6c-0.3-0.2-0.6-0.2-0.9,0c-0.3,0.2-0.4,0.4-0.4,0.8v9.2c0,0.3,0.2,0.6,0.4,0.8l12.4,7.1l-12.3,6.2c0,0,0,0,0,0
		c0,0-0.1,0.1-0.1,0.1c0,0,0,0,0,0c-0.1,0-0.1,0.1-0.1,0.2c0,0,0,0,0,0c0,0.1-0.1,0.1-0.1,0.2c0,0,0,0,0,0.1c0,0.1,0,0.1,0,0.2
		c0,0,0,0,0,0c0,0,0,0,0,0c0,0,0,0,0,0l0,12.8l-5.5-9.7c-0.2-0.3-0.6-0.5-1-0.4l-5.8,1.6V54.4c0-0.3-0.2-0.6-0.4-0.8l-13.4-7.8l0-15
		l13.1-7.5l27.3,15.6c0.1,0.1,0.3,0.1,0.4,0.1s0.3,0,0.4-0.1l27.3-15.6l13.1,7.5l0,15l-13.4,7.8c-0.3,0.2-0.4,0.4-0.4,0.8v28.4
		L1227.1,81.2z M1241.7,73.8c-0.1,0.2-0.2,0.4-0.2,0.6l1.3,11.1l-8.2-2.2V54.9l13-7.5l6.4,3.5l-2.3,8.4L1241.7,73.8z"/>
	<path fill="#42B872" d="M1234.6,38c-0.1-0.4-0.4-0.6-0.8-0.6h-14c-0.5,0-0.9,0.4-0.9,0.9v8.2c0,0.3,0.2,0.6,0.4,0.8
		c0.1,0.1,0.3,0.1,0.4,0.1c0.2,0,0.3,0,0.4-0.1l14-8.2C1234.5,38.7,1234.7,38.3,1234.6,38z M1220.6,44.9v-5.8h9.9L1220.6,44.9z"/>
</g>
</svg>
