<?xml version="1.0" encoding="utf-8"?>
<!-- Generator: Adobe Illustrator 19.0.1, SVG Export Plug-In . SVG Version: 6.00 Build 0)  -->
<svg version="1.1" id="Layer_1" xmlns="http://www.w3.org/2000/svg" xmlns:xlink="http://www.w3.org/1999/xlink" x="0px" y="0px"
	 width="942px" height="240.4px" viewBox="421 -70.4 942 240.4" enable-background="new 421 -70.4 942 240.4" xml:space="preserve">
<rect x="735" y="-70.6" fill="#464E5A" width="314" height="240.7"/>
<g>
	<g>
		<path fill="#42B872" d="M886.7,57.2c-2.5,2.6-5.2,3.8-8.4,3.8c-5.9,0-10.6-5-10.6-11.2v-0.2c0-6.3,4.6-11.2,10.5-11.2
			c4.1,0,6.5,1.8,8.3,3.6l0.1,0.1l1-1.1l-0.1-0.1c-2.5-2.2-5-3.7-9.3-3.7c-6.7,0-12,5.5-12,12.5v0.1c0,7,5.3,12.5,12,12.5
			c3.7,0,6.7-1.3,9.5-4.2l0.1-0.1L886.7,57.2L886.7,57.2z"/>
		<path fill="#42B872" d="M878.2,62.6c-6.9,0-12.2-5.6-12.2-12.8v-0.1c0-7.1,5.4-12.7,12.2-12.7c4.3,0,6.9,1.5,9.5,3.8l0.3,0.3
			l-1.3,1.5l-0.3-0.3c-1.7-1.7-4.1-3.5-8.1-3.5c-5.7,0-10.2,4.8-10.2,11v0.2c0,6,4.6,11,10.3,11c3.2,0,5.8-1.2,8.2-3.7l0.2-0.2
			l1.5,1.1l-0.3,0.3C885.1,61.2,882,62.6,878.2,62.6z M878.2,37.5c-6.6,0-11.8,5.4-11.8,12.2v0.1c0,6.9,5.2,12.2,11.8,12.2
			c3.6,0,6.5-1.3,9.2-4l-0.7-0.5c-2.5,2.5-5.2,3.7-8.4,3.7c-6,0-10.8-5.1-10.8-11.5v-0.2c0-6.4,4.7-11.5,10.8-11.5
			c4.2,0,6.6,1.8,8.4,3.6l0.7-0.7C884.7,38.8,882.3,37.5,878.2,37.5z"/>
	</g>
	<g>
		<polygon fill="#42B872" points="918.5,37.6 916.6,37.6 900.6,53.5 900.6,37.6 899.2,37.6 899.2,61.9 900.6,61.9 900.6,55.2 
			906.8,49.1 917,61.8 917,61.9 918.8,61.9 907.9,48.1 		"/>
		<path fill="#42B872" d="M919.3,62.1h-2.6v-0.3l-10-12.4l-5.9,5.8v6.8H899V37.4h1.9v15.5l15.6-15.5h2.6l-10.9,10.8L919.3,62.1z
			 M917.2,61.6h1.1l-10.7-13.6l10.3-10.2h-1.2l-16.4,16.3V37.9h-0.9v23.8h0.9v-6.6l6.5-6.4l0.2,0.2L917.2,61.6z"/>
	</g>
	<g>
		<path fill="#42B872" d="M980.1,37.6v13.8c0,6-3,9.5-8.4,9.5c-5.3,0-8.5-3.6-8.5-9.6V37.6h-1.4v13.8c0,6.8,3.7,10.9,9.9,10.9
			s9.9-4.1,9.9-11V37.6H980.1z"/>
		<path fill="#42B872" d="M971.7,62.6c-6.4,0-10.2-4.2-10.2-11.2v-14h1.9v14c0,5.9,3.1,9.3,8.2,9.3c5.2,0,8.1-3.4,8.1-9.2v-14h2v14
			C981.8,58.3,978.1,62.6,971.7,62.6z M962,37.9v13.5c0,6.7,3.6,10.7,9.7,10.7c6,0,9.6-4,9.6-10.8V37.9h-1v13.5
			c0,6.2-3.2,9.8-8.6,9.8c-5.5,0-8.8-3.7-8.8-9.8V37.9H962z"/>
	</g>
	<g>
		<rect x="820" y="37.6" fill="#42B872" width="1.4" height="24.3"/>
		<path fill="#42B872" d="M821.6,62.1h-1.9V37.4h1.9V62.1z M820.2,61.6h0.9V37.9h-0.9V61.6z"/>
	</g>
	<g>
		<rect x="802.4" y="37.6" fill="#42B872" width="1.4" height="24.3"/>
		<path fill="#42B872" d="M804,62.1h-1.9V37.4h1.9V62.1z M802.6,61.6h0.9V37.9h-0.9V61.6z"/>
	</g>
	<g>
		<polygon fill="#42B872" points="845.7,37.4 844.4,37.4 832.9,61.9 834.4,61.9 845.1,39.2 851.9,53.8 851.9,53.8 852.3,54.6 
			852.3,54.6 855.7,61.8 855.7,61.8 855.7,61.9 857.3,61.9 845.7,37.5 		"/>
		<path fill="#42B872" d="M857.7,62.1h-2.2v-0.3l-3.8-7.9l-6.6-14.1l-10.5,22.4h-2.1l11.7-25h1.7v0.3L857.7,62.1z M855.9,61.6h1
			l-11.4-24h-0.9l-11.3,24h0.9l10.9-23l7.4,15.9L855.9,61.6z"/>
	</g>
	<g>
		<path fill="#42B872" d="M944.3,49.5c2.5-0.9,4-3,4-5.7v-0.1c0-1.6-0.5-2.9-1.6-4c-1.4-1.4-3.7-2.2-6.4-2.2h-10v1.3h9.9
			c4,0,6.6,1.8,6.6,4.9v0.1c0,2.5-1.6,5.1-6.3,5.1h-10.3v1.3H941c4.4,0,7.1,1.9,7.1,5.1v0.1c0,3.2-2.7,5.1-7.2,5.1h-10.6v1.3h10.6
			c5.5,0,8.7-2.4,8.7-6.5v-0.1C949.7,52.4,947.7,50.2,944.3,49.5z"/>
		<path fill="#42B872" d="M940.9,62.1H930v-1.8h10.9c4.4,0,6.9-1.8,6.9-4.9v-0.1c0-3-2.6-4.9-6.8-4.9h-11v-1.8h10.5
			c5.6,0,6-3.7,6-4.8v-0.1c0-2.9-2.4-4.6-6.3-4.6H930v-1.8h10.2c2.7,0,5.1,0.8,6.6,2.3c1.1,1.1,1.7,2.5,1.7,4.2v0.1
			c0,2.5-1.3,4.6-3.5,5.6c3.1,0.9,4.9,3,4.8,5.8v0.1C949.8,59.5,946.5,62.1,940.9,62.1z M930.5,61.6h10.4c5.4,0,8.4-2.3,8.4-6.2
			v-0.1c0.1-2.7-1.9-4.8-5.1-5.5l-0.9-0.2l0.8-0.3c2.4-0.9,3.8-2.9,3.8-5.5v-0.1c0-1.6-0.5-2.8-1.5-3.8c-1.4-1.4-3.6-2.1-6.2-2.1
			h-9.8v0.8h9.7c4.2,0,6.8,2,6.8,5.1v0.1c0,1.3-0.5,5.3-6.5,5.3h-10v0.8H941c4.6,0,7.3,2,7.3,5.4v0.1c0,3.4-2.8,5.4-7.4,5.4h-10.4
			V61.6z"/>
	</g>
</g>
<rect x="421" y="-70.3" fill="#F7F7F7" width="314" height="240.7"/>
<g>
	<g>
		<path fill="#42B872" d="M573.3,57.2c-2.5,2.6-5.2,3.8-8.4,3.8c-5.9,0-10.6-5-10.6-11.2v-0.1c0-6.3,4.6-11.2,10.5-11.2
			c4.1,0,6.5,1.8,8.3,3.6l0.1,0.1l1-1.1l-0.1-0.1c-2.5-2.2-5-3.7-9.3-3.7c-6.7,0-12,5.5-12,12.5v0.1c0,7,5.3,12.5,12,12.5
			c3.7,0,6.7-1.3,9.5-4.2l0.1-0.1L573.3,57.2L573.3,57.2z"/>
		<path fill="#42B872" d="M564.8,62.6c-6.9,0-12.2-5.6-12.2-12.8v-0.1c0-7.1,5.4-12.8,12.2-12.8c4.3,0,6.9,1.5,9.5,3.8l0.3,0.3
			l-1.3,1.5l-0.3-0.3c-1.7-1.7-4.1-3.5-8.1-3.5c-5.7,0-10.2,4.8-10.2,10.9v0.1c0,6,4.6,11,10.4,11c3.2,0,5.8-1.2,8.2-3.7l0.2-0.2
			l1.5,1.2l-0.3,0.3C571.7,61.3,568.6,62.6,564.8,62.6z M564.8,37.6c-6.6,0-11.8,5.4-11.8,12.2v0.1c0,6.9,5.2,12.2,11.8,12.2
			c3.6,0,6.5-1.3,9.2-4l-0.7-0.6c-2.5,2.5-5.2,3.7-8.4,3.7c-6,0-10.9-5.1-10.9-11.5v-0.1c0-6.4,4.7-11.4,10.8-11.4
			c4.2,0,6.6,1.8,8.4,3.6l0.7-0.7C571.3,38.9,568.9,37.6,564.8,37.6z"/>
	</g>
	<g>
		<polygon fill="#42B872" points="605.1,37.7 603.2,37.7 587.2,53.6 587.2,37.7 585.8,37.7 585.8,62 587.2,62 587.2,55.3 
			593.5,49.1 603.6,61.9 603.6,62 605.5,62 594.6,48.2 		"/>
		<path fill="#42B872" d="M606,62.3h-2.7V62l-9.9-12.5l-6,5.9v6.8h-1.9V37.5h1.9V53l15.6-15.5h2.6l-10.8,10.8L606,62.3z M603.8,61.8
			h1.2l-10.7-13.6L604.5,38h-1.2L587,54.2V38H586v23.8h0.9v-6.6l6.6-6.5L603.8,61.8z"/>
	</g>
	<g>
		<path fill="#42B872" d="M666.7,37.7v13.8c0,6-3,9.5-8.4,9.5c-5.3,0-8.5-3.6-8.5-9.6V37.7h-1.4v13.8c0,6.8,3.7,10.9,9.9,10.9
			s9.9-4.1,9.9-11V37.7C668.2,37.7,666.7,37.7,666.7,37.7z"/>
		<path fill="#42B872" d="M658.3,62.6c-6.4,0-10.1-4.2-10.1-11.1V37.5h1.9v13.9c0,5.9,3.1,9.4,8.2,9.4c5.2,0,8.2-3.4,8.2-9.2V37.5h2
			v13.9C668.5,58.4,664.7,62.6,658.3,62.6z M648.6,38v13.6c0,6.7,3.6,10.6,9.6,10.6c6,0,9.7-4,9.7-10.8V38h-1v13.6
			c0,6.2-3.2,9.8-8.7,9.8c-5.5,0-8.8-3.7-8.8-9.9V38H648.6z"/>
	</g>
	<g>
		<rect x="506.7" y="37.7" fill="#42B872" width="1.4" height="24.3"/>
		<path fill="#42B872" d="M508.4,62.3h-1.9V37.5h1.9V62.3z M507,61.8h0.9V38H507V61.8z"/>
	</g>
	<g>
		<rect x="489.1" y="37.7" fill="#42B872" width="1.4" height="24.3"/>
		<path fill="#42B872" d="M490.8,62.3h-1.9V37.5h1.9V62.3z M489.4,61.8h0.9V38h-0.9V61.8z"/>
	</g>
	<g>
		<polygon fill="#42B872" points="532.4,37.5 531.1,37.5 519.5,62 521,62 531.7,39.3 538.5,53.9 538.5,53.9 538.9,54.7 538.9,54.7 
			542.3,61.9 542.3,61.9 542.3,62 543.9,62 532.4,37.6 		"/>
		<path fill="#42B872" d="M544.3,62.3H542V62l-3.8-7.9l-6.6-14.1l-10.5,22.4h-2.1l11.8-25h1.7v0.3L544.3,62.3z M542.5,61.8h1
			l-11.3-24h-0.9l-11.4,24h0.9l10.9-23l7.4,15.9L542.5,61.8z"/>
	</g>
	<g>
		<path fill="#42B872" d="M630.9,49.6c2.5-0.9,4-3,4-5.7v-0.1c0-1.6-0.5-2.9-1.6-4c-1.4-1.4-3.7-2.2-6.4-2.2h-10v1.3h9.9
			c4,0,6.6,1.8,6.6,4.9v0.1c0,2.5-1.6,5.1-6.3,5.1h-10.3v1.3h10.7c4.4,0,7.1,1.9,7.1,5.1v0.1c0,3.2-2.7,5.1-7.2,5.1h-10.6v1.3h10.6
			c5.5,0,8.7-2.4,8.7-6.5v-0.1C636.3,52.5,634.3,50.3,630.9,49.6z"/>
		<path fill="#42B872" d="M627.4,62.1h-10.9v-1.8h10.9c4.4,0,7-1.8,7-4.8v-0.1c0-3-2.6-4.8-6.9-4.8h-11v-1.8h10.6c5.6,0,6-3.7,6-4.9
			v-0.1c0-2.9-2.4-4.7-6.4-4.7h-10.1v-1.8h10.2c2.7,0,5.1,0.8,6.6,2.3c1.1,1.1,1.7,2.5,1.7,4.2v0.1c0,2.5-1.3,4.6-3.5,5.6
			c3.1,0.9,4.9,3,4.7,5.8l0,0.1C636.4,59.6,633,62.1,627.4,62.1z M617,61.6h10.4c5.4,0,8.5-2.3,8.5-6.2v-0.1c0.2-2.7-1.7-4.8-5-5.5
			l-0.9-0.2l0.8-0.3c2.4-0.9,3.8-2.9,3.8-5.5v-0.1c0-1.6-0.5-2.8-1.5-3.8c-1.4-1.4-3.6-2.1-6.2-2.1h-9.8v0.8h9.6
			c4.2,0,6.9,2,6.9,5.2v0.1c0,1.3-0.5,5.4-6.5,5.4H617v0.8h10.5c4.6,0,7.4,2,7.4,5.3v0.1c0,3.3-2.8,5.3-7.5,5.3H617V61.6z"/>
	</g>
</g>
<rect x="1049" y="-70.7" fill="#42B872" width="314" height="240.7"/>
<g>
	<g>
		<path fill="#FFFFFF" d="M1201,56.5c-2.3,2.4-4.8,3.5-7.8,3.5c-5.5,0-9.8-4.6-9.8-10.4v-0.1c0-5.8,4.3-10.4,9.7-10.4
			c3.8,0,6,1.7,7.7,3.3l0.1,0.1l0.9-1l-0.1-0.1c-2.3-2-4.6-3.4-8.6-3.4c-6.2,0-11.1,5.1-11.1,11.6v0.1c0,6.5,4.9,11.6,11.1,11.6
			c3.4,0,6.2-1.2,8.8-3.9l0.1-0.1L1201,56.5L1201,56.5z"/>
		<path fill="#FFFFFF" d="M1193.1,61.6c-6.4,0-11.3-5.2-11.3-11.9v-0.1c0-6.6,5-11.9,11.3-11.9c4,0,6.3,1.3,8.8,3.5l0.3,0.3
			l-1.2,1.4l-0.3-0.3c-1.8-1.7-3.9-3.2-7.5-3.2c-5.3,0-9.4,4.5-9.4,10.1v0.1c0,5.7,4.2,10.2,9.5,10.2c3,0,5.4-1.1,7.6-3.4l0.2-0.2
			l1.4,1.1l-0.3,0.3C1199.5,60.3,1196.6,61.6,1193.1,61.6z M1193.1,38.2c-6.1,0-10.8,5-10.8,11.4v0.1c0,6.4,4.8,11.4,10.8,11.4
			c3.3,0,6-1.2,8.5-3.7l-0.6-0.5c-2.3,2.3-4.8,3.4-7.8,3.4c-5.6,0-10-4.7-10-10.7v-0.1c0-6,4.4-10.6,9.9-10.6c3.7,0,5.9,1.6,7.8,3.3
			l0.6-0.6C1199.1,39.5,1196.9,38.2,1193.1,38.2z"/>
	</g>
	<g>
		<polygon fill="#FFFFFF" points="1230.6,38.3 1228.8,38.3 1214,53.1 1214,38.3 1212.7,38.3 1212.7,60.9 1214,60.9 1214,54.7 
			1219.8,49 1229.2,60.8 1229.2,60.9 1230.9,60.9 1220.8,48.1 		"/>
		<path fill="#FFFFFF" d="M1231.4,61.1h-2.5v-0.3l-9.2-11.5l-5.5,5.4v6.3h-1.8V38.1h1.8v14.4l14.4-14.4h2.5l-10.1,10.1L1231.4,61.1z
			 M1229.4,60.6h1l-9.9-12.6l9.5-9.5h-1.1l-15.2,15.2V38.6h-0.8v22.1h0.8v-6.1l6.1-6L1229.4,60.6z"/>
	</g>
	<g>
		<path fill="#FFFFFF" d="M1287.6,38.3v12.8c0,5.6-2.8,8.8-7.8,8.8c-4.9,0-7.9-3.3-7.9-8.9V38.3h-1.3v12.8c0,6.3,3.4,10.1,9.2,10.1
			c5.7,0,9.2-3.8,9.2-10.2V38.3L1287.6,38.3L1287.6,38.3z"/>
		<path fill="#FFFFFF" d="M1279.8,61.4c-5.9,0-9.5-3.9-9.5-10.3v-13h1.8v13c0,5.4,2.9,8.6,7.6,8.6c4.9,0,7.5-3,7.5-8.5v-13h1.9v13
			C1289.2,57.5,1285.7,61.4,1279.8,61.4z M1270.8,38.6v12.5c0,6.2,3.3,9.8,9,9.8s9-3.7,9-9.9V38.6h-0.9v12.5c0,5.8-2.9,9-8,9
			c-5.1,0-8.1-3.4-8.1-9.1V38.6H1270.8z"/>
	</g>
	<g>
		<rect x="1139.3" y="38.3" fill="#FFFFFF" width="1.3" height="22.5"/>
		<path fill="#FFFFFF" d="M1140.8,61.1h-1.8v-23h1.8V61.1z M1139.5,60.6h0.8v-22h-0.8V60.6z"/>
	</g>
	<g>
		<rect x="1123" y="38.3" fill="#FFFFFF" width="1.3" height="22.5"/>
		<path fill="#FFFFFF" d="M1124.5,61.1h-1.8v-23h1.8V61.1z M1123.2,60.6h0.8v-22h-0.8V60.6z"/>
	</g>
	<g>
		<polygon fill="#FFFFFF" points="1163.1,38.1 1161.9,38.1 1151.2,60.9 1152.6,60.9 1162.5,39.9 1168.8,53.4 1168.8,53.4 
			1169.2,54.1 1169.2,54.1 1172.3,60.8 1172.3,60.8 1172.3,60.9 1173.8,60.9 1163.1,38.2 		"/>
		<path fill="#FFFFFF" d="M1174.2,61.1h-2.1v-0.3l-3.1-6.7l-0.4-0.7l-6.1-13l-9.7,20.7h-2l10.9-23.3h1.6v0.3L1174.2,61.1z
			 M1172.5,60.6h0.9l-10.5-22.3h-0.8l-10.5,22.3h0.8l10.1-21.3l6.5,14l0.4,0.7L1172.5,60.6z"/>
	</g>
	<g>
		<path fill="#FFFFFF" d="M1254.5,49.4c2.3-0.8,3.7-2.8,3.7-5.3V44c0-1.5-0.5-2.7-1.5-3.7c-1.3-1.3-3.4-2-5.9-2h-9.3v1.2h9.2
			c3.7,0,6.1,1.7,6.1,4.5v0.1c0,2.3-1.5,4.7-5.8,4.7h-9.5V50h9.9c4.1,0,6.6,1.8,6.6,4.7v0.1c0,3-2.5,4.7-6.7,4.7h-9.8v1.2h9.8
			c5.1,0,8.1-2.2,8.1-6v-0.1C1259.5,52.1,1257.6,50.1,1254.5,49.4z"/>
		<path fill="#FFFFFF" d="M1251.3,60.9h-10v-1.7h10c4.1,0,6.5-1.6,6.5-4.5v-0.1c0-2.7-2.4-4.4-6.3-4.4h-10.2v-1.7h9.8
			c5.1,0,5.5-3.4,5.5-4.5V44c0-2.6-2.2-4.2-5.8-4.2h-9.5v-1.7h9.5c2.6,0,4.7,0.7,6.1,2.1c1.1,1.1,1.6,2.3,1.6,3.9v0.1
			c0,2.3-1.2,4.3-3.2,5.2c2.8,0.9,4.5,2.8,4.4,5.3v0.1C1259.7,58.6,1256.5,60.9,1251.3,60.9z M1241.8,60.4h9.5c5,0,7.9-2.1,7.9-5.8
			v-0.1c0.1-2.4-1.7-4.3-4.7-5l-0.9-0.2l0.8-0.3c2.2-0.8,3.5-2.7,3.5-5.1V44c0-1.4-0.5-2.6-1.4-3.5c-1.2-1.2-3.3-1.9-5.7-1.9h-9v0.7
			h9c3.9,0,6.3,1.8,6.3,4.8v0.1c0,2.4-1.6,5-6,5h-9.2v0.7h9.7c4.2,0,6.8,1.9,6.8,4.9v0.1c0,3.1-2.6,5-7,5h-9.5V60.4z"/>
	</g>
</g>
</svg>
