<?xml version="1.0" encoding="utf-8"?>
<!-- Generator: Adobe Illustrator 19.1.0, SVG Export Plug-In . SVG Version: 6.00 Build 0)  -->
<svg version="1.1" id="Layer_1" xmlns="http://www.w3.org/2000/svg" xmlns:xlink="http://www.w3.org/1999/xlink" x="0px" y="0px"
	 width="489px" height="295.4px" viewBox="-961 2735.1 489 295.4" style="enable-background:new -961 2735.1 489 295.4;"
	 xml:space="preserve">
<style type="text/css">
	.st0{fill:#FFFFFF;}
</style>
<g>
	<g>
		<path class="st0" d="M-880.5,2853c8.5-27.6,22.5-60,45.4-60c9.9,0,16.5,3.1,16.5,9.7c0,4-2.7,6.7-7.6,6.7c-1.6,0-4.5-0.9-5.8-2.2
			c1.5-3,2.2-5.5,2.2-7.5c0-3.4-1.9-5.2-5.2-5.2c-11.7,0-15.6,25.5-24.1,58.5h27.1c-0.8,1.5-3.6,2.2-14.2,2.2h-13.5
			c-1,4-2.2,8.2-3.4,12.6c-14.7,50.1-36.1,82.6-69.9,82.6c-14.7,0-28-6.3-28-21.7c0-11.7,9.6-21.7,24.7-21.7
			c6.9,0,12.4,2.7,16.3,6.9c4.9-1.5,9.6-0.9,10.2,0.5c-1.9-0.5-5.5-0.5-9.4,0.6c3.1,3.7,4.8,8.4,4.8,13.2c0,6.4-3.1,11.8-9.6,11.8
			c-4,0-8.5-3.1-8.5-10c0-8.7,5.4-13.3,10.9-15.4c-3.3-3.6-8.2-6-14.7-6c-15.7-0.1-21.7,10.4-21.7,20.1c0,14.8,12,20.2,24.1,20.2
			c23.2,0,32.8-22.6,49.2-81.7c1-3.7,2.2-7.8,3.4-12h-7.7c0-1.8,3.4-2.2,6.1-2.2C-882.9,2853-880.5,2853-880.5,2853z M-920.7,2915.4
			c-5.2,1.8-10.3,6-10.3,14.5c0,6.3,3.9,8.5,7.2,8.5c5.4,0,8.1-4.6,8.1-10.3C-915.7,2923.9-917.4,2919.1-920.7,2915.4z"/>
		<path class="st0" d="M-829.9,2874c5.8-16,11.1-22.5,19.5-22.5c5.2,0,9.9,3.4,9.9,9.4c0,6.3-4.6,11.4-13.2,11.4
			c0-3.6-2.8-5.4-5.4-5.4c-5.5,0-9.7,2.8-17.4,31c-4.9,1-7.8,1.5-11.7,1.5c-5.8,0-7.8-2.8-7.8-7.5c0-9,6.3-28.3,12.7-35.2
			c3.6-3.9,16.3-5.2,22.2-5.2c-3.9,6.7-8.1,15-9.6,22.5H-829.9L-829.9,2874z"/>
		<path class="st0" d="M-756.6,2887.2c-5.1,9.6-14.4,12.3-23.2,12.3c-12.6,0-22.9-6-22.9-19.2c0-12,11.1-28.8,34.3-28.8
			c9.3,0,14.4,4.6,14.4,11.2c0,14.2-18.9,15.4-25.9,15.4c0.1,11.1,5.7,14.4,11.8,14.4C-764.1,2892.6-760.1,2890.8-756.6,2887.2z
			 M-780,2876.5c11.2-5.7,14.2-12.9,14.2-19.3c0-2.7-0.9-4.2-2.7-4.2C-774,2853-779.7,2862-780,2876.5z"/>
		<path class="st0" d="M-707.6,2882.2c0,9.7-8.8,17.2-27,17.2c-16.5,0-19.5-7.6-19.5-13.5c0-7,5.1-9.6,8.5-9.6
			c-1.5,2.4-2.5,6.7-2.5,9.6c0,6.7,3.4,12,11.2,12c5.7,0,8.2-3.7,8.2-7.5c0-9.1-18.7-8.4-18.7-23.2c0-9.4,7.9-15.7,24-15.7
			c11.5,0,19.5,3.1,19.5,9.7c0,4-2.7,6.7-7.6,6.7c-1.6,0-4.5-0.9-5.8-2.2c1.5-3,2.2-5.5,2.2-7.5c0-3.4-2.5-5.2-6.6-5.2
			c-3.6,0-5.4,2.5-5.4,5.4C-727.1,2866.8-707.6,2867.8-707.6,2882.2z"/>
		<path class="st0" d="M-595.2,2747.4c6.4-8.3,22.1-12.3,29.6-12.3c28.3,0,49.2,15.7,49.2,40.3c0,24.6-16.8,41.7-43.9,41.7
			c-39.1,0-67.6-49-109.3-49c-19.3,0-35.7,11.5-35.7,28.3c0,13,10.5,23.7,24.7,27.9c9-17.5,21.1-31.3,36-31.3
			c5.4,0,10.5,3.1,10.5,9.7c0,10.3-12.7,22.6-28.8,24.6c-4.8,16.2-8.8,34.8-12.6,46.6h0.8c5.8-16,13.6-22.5,23.2-22.5
			c5.2,0,9.7,3.1,9.7,10.3c0,10.5-6,18.6-6,26.4c0,2.8,1.6,3.7,3.6,3.7c3.7,0,8.2-4,12.3-15c0,10.5-10.9,22.5-28,22.5
			c-6.7,0-11.1-3.6-11.1-8.7c0-7.9,6.7-18,6.7-24.4c0-1.5-0.5-2.8-2.2-2.8c-4.5,0-11.4,21.6-14.8,34.5c-4.9,1-7.8,1.5-11.7,1.5
			c-5.8,0-7.8-2.8-7.8-7.5c0-9.1,6.7-41.1,19.5-66.3c-15-4.5-25.5-16-25.5-29.2c0-17.1,16.3-29.8,37.2-29.8c40.9,0,72.1,49,109.3,49
			c25.9,0,40.9-15.9,40.9-40.2s-19.3-38.8-46.2-38.8c-6.4,0-18.4,2.4-29.4,11.1L-595.2,2747.4z M-662.3,2825.8
			c14.7-2.2,26.7-13.6,26.7-23.1c0-5.7-4.5-7.9-7.9-7.9C-651,2794.8-657.2,2808.7-662.3,2825.8z"/>
	</g>
	<g>
		<path class="st0" d="M-836.9,2950.9c4.1-10.9,9.3-25.9,23-25.9c8.6,0,14.5,5.9,14.5,19c0,3.8-0.5,7.6-1.6,10.9
			c6.7-3.1,13-7.6,17.1-14.5c-2.6,8.6-9.7,13.8-18,17.3c-5.2,13.8-17.6,22.6-29.2,22.6c-6.4,0-9-2.9-9-6.2c0-5.7,5.5-8.3,13.5-10.7
			c0.9-4.5,1.6-10,1.6-16.4c0-3.5-1.2-5.9-3.5-5.9c-4.7,0-7.6,11.9-12.4,28.9c-2.9,10-8.6,28.7-22.3,42.7
			c16.4,7.4,33.4,14.3,47.4,14.3s28.7-4,30.8-22.1c1.9,8.5-6.9,25.6-30.8,25.6c-14.7,0-32.5-7.6-49.6-15.7
			c-9.9,9.2-23.3,15.7-42.4,15.7c-14.2,0-26.8-7.4-26.8-20.6c0-10.7,7.4-15.7,18.8-15.7c10.4,0,23.9,5.5,38.2,12.1
			c2.8-6.6,5.2-14.3,7.8-23.7c7.4-27.3,10-43.6,17.5-51.5c4.1-4.5,12.3-6.1,25.6-6.1c-4.5,7.8-9.3,17.3-11.1,25.9H-836.9z
			 M-878.6,3008.5c-14.4-6.9-27.7-12.6-37.4-12.6c-9.3,0-16.9,4.8-16.9,13.3c0,13.8,13.8,19.5,24.9,19.5
			C-893.1,3028.7-884.8,3022.2-878.6,3008.5z M-827.3,2965.5c-6.1,1.9-10.2,4-10.2,7.8c0,0.9,0.5,2.2,2.6,2.2
			C-831.9,2975.5-829,2971.9-827.3,2965.5z"/>
		<path class="st0" d="M-726.8,2947.3c-1.2,13.7-14.3,33-38.4,33c-14.5,0-26.5-6.9-26.5-22.1c0-13.8,12.8-33.2,39.6-33.2
			c10.7,0,16.4,5.5,16.4,13.1c0,16.4-21.6,17.6-29.7,17.6c0.2,12.8,6.6,16.6,13.7,16.6C-742.2,2972.4-731.1,2963.4-726.8,2947.3z
			 M-765.4,2953.9c13-6.6,16.4-14.9,16.4-22.3c0-3.1-1-4.8-3.1-4.8C-758.5,2926.7-765,2937.1-765.4,2953.9z"/>
		<path class="st0" d="M-704.7,2950.9c4.1-10.9,9.3-25.9,23-25.9c8.6,0,14.5,5.9,14.5,19c0,3.8-0.5,7.6-1.6,10.9
			c6.7-3.1,13-7.6,17.1-14.5c-2.6,8.6-9.7,13.8-18,17.3c-5.2,13.8-17.6,22.6-29.2,22.6c-6.4,0-9-2.9-9-6.2c0-5.7,5.5-8.3,13.5-10.7
			c0.9-4.5,1.6-10,1.6-16.4c0-3.5-1.2-5.9-3.5-5.9c-4.7,0-7.4,11.6-12.4,28.9l-6.7,23.7c-8,27.8-13.5,36.8-27.1,36.8
			c-5.5,0-12.4-1.7-14.5-3.5c7.8-6.2,11.6-13.8,19.5-44.4c7.1-27,10-43.6,17.5-51.5c4.1-4.5,12.3-6.1,25.6-6.1
			c-4.5,7.8-9.3,17.3-11.1,25.9H-704.7L-704.7,2950.9z M-695,2965.5c-6.1,1.9-10.2,4-10.2,7.8c0,0.9,0.5,2.2,2.6,2.2
			C-699.7,2975.5-696.7,2971.9-695,2965.5z"/>
		<path class="st0" d="M-633.8,2950.9c4.1-10.9,9.3-25.9,23-25.9c8.6,0,14.5,5.9,14.5,19c0,3.8-0.5,7.6-1.6,10.9
			c6.7-3.1,13-7.6,17.1-14.5c-2.6,8.6-9.7,13.8-18,17.3c-5.2,13.8-17.6,22.6-29.2,22.6c-6.4,0-9-2.9-9-6.2c0-5.7,5.5-8.3,13.5-10.7
			c0.9-4.5,1.6-10,1.6-16.4c0-3.5-1.2-5.9-3.5-5.9c-4.7,0-7.4,11.6-12.4,28.9l-6.7,23.7c-8,27.8-13.5,36.8-27.1,36.8
			c-5.5,0-12.4-1.7-14.5-3.5c7.8-6.2,11.6-13.8,19.5-44.4c7.1-27,10-43.6,17.5-51.5c4.1-4.5,12.3-6.1,25.6-6.1
			c-4.5,7.8-9.3,17.3-11.1,25.9H-633.8L-633.8,2950.9z M-624.1,2965.5c-6.1,1.9-10.2,4-10.2,7.8c0,0.9,0.5,2.2,2.6,2.2
			C-628.8,2975.5-625.9,2971.9-624.1,2965.5z"/>
		<path class="st0" d="M-472,2954.4c0,11.2-12.3,25.9-32.8,25.9c-9.7,0-14-4.1-14-10c0-14.9,11.1-26.3,11.1-36.7
			c0-1.7-0.3-3.3-7.8-3.3c-8.8,22.8-17.1,50-46.5,50c-14.5,0-26.5-6.9-26.5-22.1c0-13.8,12.8-33.2,39.6-33.2
			c10.7,0,16.4,5.5,16.4,13.1c0,16.4-21.6,17.6-29.7,17.6c0.2,12.8,6.6,16.6,13.7,16.6c16.1,0,25.2-24.5,31.3-42
			c-7.8-0.7-12.4-6.1-12.4-11.4c0-6.1,5.7-12.1,19.2-12.1c0,6.9-2.2,16.4-4.3,22c7.8,0,11.2-3.8,20.2-3.8c6.1,0,11.2,2.8,11.2,11.1
			c0,12.1-9.5,23.2-9.5,31.3c0,3.3,1.6,5.2,5,5.2C-483.4,2972.5-476.3,2967.2-472,2954.4z M-562.2,2953.9
			c13-6.6,16.4-14.9,16.4-22.3c0-3.1-1-4.8-3.1-4.8C-555.3,2926.7-561.9,2937.1-562.2,2953.9z"/>
	</g>
</g>
</svg>
