<?xml version="1.0" encoding="utf-8"?>
<!-- Generator: Adobe Illustrator 19.1.0, SVG Export Plug-In . SVG Version: 6.00 Build 0)  -->
<svg version="1.1" id="Layer_1" xmlns="http://www.w3.org/2000/svg" xmlns:xlink="http://www.w3.org/1999/xlink" x="0px" y="0px"
	 width="99.1px" height="60px" viewBox="-141.1 -51.4 99.1 60" style="enable-background:new -141.1 -51.4 99.1 60;"
	 xml:space="preserve">
<style type="text/css">
	.st0{fill:#FD6B58;}
</style>
<g>
	<g>
		<path class="st0" d="M-124.8-27.5c1.7-5.6,4.6-12.2,9.2-12.2c2,0,3.4,0.6,3.4,2c0,0.9-0.5,1.4-1.6,1.4c-0.3,0-0.9-0.2-1.2-0.4
			c0.3-0.6,0.4-1.1,0.4-1.6c0-0.7-0.4-1-1-1c-2.4,0-3.2,5.2-4.9,11.9h5.5c-0.2,0.3-0.7,0.4-2.9,0.4h-2.8c-0.2,0.9-0.4,1.6-0.7,2.6
			c-2.9,10.1-7.2,16.6-14.1,16.6c-2.9,0-5.7-1.3-5.7-4.4c0-2.4,2-4.4,5-4.4c1.4,0,2.5,0.5,3.3,1.4c1-0.3,2-0.2,2.1,0.1
			c-0.4-0.1-1.1-0.1-1.9,0.1c0.6,0.8,0.9,1.7,0.9,2.7c0,1.3-0.6,2.4-2,2.4c-0.9,0-1.7-0.6-1.7-2.1c0-1.7,1.1-2.7,2.2-3.1
			c-0.7-0.7-1.6-1.2-3-1.2c-3.2,0-4.4,2.2-4.4,4.1c0,3,2.4,4.1,4.9,4.1c4.7,0,6.6-4.6,10-16.6c0.2-0.8,0.4-1.6,0.7-2.4h-1.6
			c0-0.3,0.7-0.4,1.2-0.4L-124.8-27.5L-124.8-27.5z M-132.9-14.8c-1,0.3-2.1,1.2-2.1,2.9c0,1.3,0.8,1.7,1.5,1.7
			c1.1,0,1.6-0.9,1.6-2.1C-131.9-13.1-132.3-14.1-132.9-14.8z"/>
		<path class="st0" d="M-114.6-23.2c1.2-3.3,2.2-4.6,4-4.6c1,0,2,0.7,2,1.9c0,1.3-0.9,2.3-2.7,2.3c0-0.7-0.6-1.1-1.1-1.1
			c-1.1,0-2,0.6-3.5,6.3c-1,0.2-1.6,0.3-2.4,0.3c-1.2,0-1.6-0.6-1.6-1.6c0-1.8,1.3-5.8,2.6-7.2c0.7-0.8,3.3-1,4.5-1
			c-0.7,1.4-1.6,3-1.9,4.6H-114.6z"/>
		<path class="st0" d="M-99.7-20.5c-1,2-2.9,2.5-4.7,2.5c-2.6,0-4.7-1.2-4.7-3.9c0-2.4,2.2-5.9,7-5.9c1.9,0,2.9,0.9,2.9,2.2
			c0,2.9-3.8,3.1-5.3,3.1c0,2.2,1.1,2.9,2.4,2.9C-101.2-19.5-100.4-19.8-99.7-20.5z M-104.4-22.7c2.2-1.1,2.9-2.6,2.9-3.9
			c0-0.5-0.2-0.9-0.5-0.9C-103.2-27.5-104.4-25.7-104.4-22.7z"/>
		<path class="st0" d="M-89.8-21.6c0,2-1.8,3.5-5.4,3.5c-3.4,0-4-1.6-4-2.8c0-1.5,1-2,1.7-2c-0.3,0.5-0.5,1.4-0.5,2
			c0,1.4,0.7,2.4,2.2,2.4c1.1,0,1.6-0.8,1.6-1.6c0-1.9-3.8-1.7-3.8-4.7c0-1.9,1.6-3.2,4.8-3.2c2.3,0,4,0.6,4,2
			c0,0.9-0.5,1.4-1.6,1.4c-0.3,0-0.9-0.2-1.2-0.4c0.3-0.6,0.4-1.1,0.4-1.6c0-0.7-0.5-1-1.4-1c-0.7,0-1.1,0.5-1.1,1.1
			C-93.7-24.7-89.8-24.5-89.8-21.6z"/>
		<path class="st0" d="M-67-48.9c1.3-1.6,4.5-2.5,6-2.5c5.8,0,10,3.2,10,8.2s-3.4,8.4-8.9,8.4c-8,0-13.8-9.9-22.2-9.9
			c-3.9,0-7.2,2.3-7.2,5.8c0,2.7,2.2,4.8,5,5.7c1.8-3.5,4.3-6.4,7.3-6.4c1.1,0,2.2,0.6,2.2,2c0,2.1-2.6,4.6-5.9,5
			c-0.9,3.3-1.8,7.1-2.6,9.5h0.2c1.2-3.3,2.8-4.6,4.7-4.6c1,0,2,0.6,2,2.1c0,2.2-1.2,3.8-1.2,5.3c0,0.6,0.3,0.8,0.7,0.8
			c0.8,0,1.6-0.9,2.5-3c0,2.2-2.2,4.6-5.7,4.6c-1.4,0-2.2-0.7-2.2-1.7c0-1.6,1.4-3.6,1.4-4.9c0-0.3-0.1-0.6-0.4-0.6
			c-0.9,0-2.3,4.4-3,7c-1,0.2-1.6,0.3-2.4,0.3c-1.2,0-1.6-0.6-1.6-1.6c0-1.9,1.4-8.4,4-13.4c-3-0.9-5.2-3.3-5.2-5.9
			c0-3.4,3.3-6,7.5-6c8.3,0,14.7,9.9,22.2,9.9c5.3,0,8.3-3.2,8.3-8.2S-55.5-51-61-51C-62.3-51-64.7-50.6-67-48.9L-67-48.9z
			 M-80.5-33c3-0.4,5.4-2.8,5.4-4.7c0-1.1-0.9-1.6-1.6-1.6C-78.3-39.3-79.6-36.5-80.5-33z"/>
	</g>
	<g>
		<path class="st0" d="M-116-7.6c0.9-2.2,1.9-5.3,4.7-5.3c1.7,0,2.9,1.2,2.9,3.9c0,0.8-0.1,1.6-0.3,2.2c1.4-0.6,2.6-1.6,3.4-2.9
			c-0.5,1.7-2,2.8-3.6,3.5c-1,2.8-3.5,4.6-5.9,4.6c-1.3,0-1.8-0.6-1.8-1.3c0-1.1,1.1-1.7,2.8-2.2c0.2-0.9,0.3-2.1,0.3-3.4
			c0-0.7-0.3-1.2-0.7-1.2c-0.9,0-1.6,2.4-2.5,5.9c-0.6,2.1-1.7,5.8-4.5,8.6c3.4,1.5,6.7,2.9,9.6,2.9s5.8-0.8,6.2-4.5
			c0.3,1.7-1.4,5.2-6.2,5.2c-3,0-6.6-1.6-10.1-3.2c-2,1.9-4.7,3.2-8.6,3.2c-2.8,0-5.4-1.5-5.4-4.1c0-2.2,1.5-3.2,3.8-3.2
			c2.1,0,4.8,1.1,7.8,2.4c0.6-1.3,1-2.9,1.6-4.8c1.5-5.5,2.1-8.8,3.5-10.4c0.9-0.9,2.5-1.2,5.2-1.2c-0.9,1.6-1.9,3.5-2.2,5.3
			L-116-7.6L-116-7.6z M-124.4,4.1c-2.9-1.4-5.6-2.6-7.6-2.6c-1.9,0-3.4,0.9-3.4,2.7c0,2.8,2.8,4,5.1,4
			C-127.3,8.2-125.7,6.8-124.4,4.1z M-114-4.7c-1.2,0.3-2.1,0.8-2.1,1.6c0,0.2,0.1,0.4,0.5,0.4C-114.9-2.7-114.4-3.4-114-4.7z"/>
		<path class="st0" d="M-93.6-8.4c-0.3,2.8-2.9,6.7-7.8,6.7c-2.9,0-5.3-1.4-5.3-4.5c0-2.8,2.6-6.7,8-6.7c2.2,0,3.4,1.1,3.4,2.7
			c0,3.4-4.4,3.5-6,3.5c0,2.6,1.3,3.4,2.8,3.4C-96.7-3.3-94.5-5.1-93.6-8.4z M-101.5-7.1c2.6-1.3,3.4-3,3.4-4.5
			c0-0.6-0.2-0.9-0.6-0.9C-100.1-12.5-101.4-10.4-101.5-7.1z"/>
		<path class="st0" d="M-89.2-7.6c0.9-2.2,1.9-5.3,4.7-5.3c1.7,0,2.9,1.2,2.9,3.9c0,0.8-0.1,1.6-0.3,2.2c1.4-0.6,2.6-1.6,3.4-2.9
			c-0.5,1.7-2,2.8-3.6,3.5c-1,2.8-3.5,4.6-5.9,4.6c-1.3,0-1.8-0.6-1.8-1.3c0-1.1,1.1-1.7,2.8-2.2c0.2-0.9,0.3-2.1,0.3-3.4
			c0-0.7-0.3-1.2-0.7-1.2c-0.9,0-1.5,2.3-2.5,5.9l-1.4,4.8c-1.6,5.6-2.8,7.5-5.5,7.5c-1.1,0-2.5-0.3-2.9-0.7c1.6-1.3,2.3-2.8,4-9
			c1.5-5.4,2.1-8.8,3.5-10.4c0.9-0.9,2.5-1.2,5.2-1.2c-0.9,1.6-1.9,3.5-2.2,5.3h0.2V-7.6z M-87.2-4.7c-1.2,0.3-2.1,0.8-2.1,1.6
			c0,0.2,0.1,0.4,0.5,0.4C-88.1-2.7-87.6-3.4-87.2-4.7z"/>
		<path class="st0" d="M-74.8-7.6c0.9-2.2,1.9-5.3,4.7-5.3c1.7,0,2.9,1.2,2.9,3.9c0,0.8-0.1,1.6-0.3,2.2c1.4-0.6,2.6-1.6,3.4-2.9
			c-0.5,1.7-2,2.8-3.6,3.5c-1,2.8-3.5,4.6-5.9,4.6c-1.3,0-1.8-0.6-1.8-1.3c0-1.1,1.1-1.7,2.8-2.2c0.2-0.9,0.3-2.1,0.3-3.4
			c0-0.7-0.3-1.2-0.7-1.2c-0.9,0-1.5,2.3-2.5,5.9L-77,1.1c-1.6,5.6-2.8,7.5-5.5,7.5c-1.1,0-2.5-0.3-2.9-0.7c1.6-1.3,2.3-2.8,4-9
			c1.5-5.4,2.1-8.8,3.5-10.4c0.9-0.9,2.5-1.2,5.2-1.2c-0.9,1.6-1.9,3.5-2.2,5.3h0.2V-7.6z M-72.9-4.7c-1.2,0.3-2.1,0.8-2.1,1.6
			c0,0.2,0.1,0.4,0.5,0.4C-73.8-2.7-73.2-3.4-72.9-4.7z"/>
		<path class="st0" d="M-42-6.9c0,2.2-2.5,5.3-6.6,5.3c-2,0-2.8-0.9-2.8-2.1c0-3,2.2-5.3,2.2-7.4c0-0.3-0.1-0.7-1.6-0.7
			c-1.8,4.7-3.4,10.1-9.4,10.1c-2.9,0-5.3-1.4-5.3-4.5c0-2.8,2.6-6.7,8-6.7c2.2,0,3.4,1.1,3.4,2.7c0,3.4-4.4,3.5-6,3.5
			c0,2.6,1.3,3.4,2.8,3.4c3.3,0,5.1-5,6.4-8.5c-1.6-0.2-2.5-1.2-2.5-2.3c0-1.2,1.1-2.4,3.9-2.4c0,1.4-0.4,3.4-0.9,4.5
			c1.6,0,2.2-0.8,4.1-0.8c1.2,0,2.2,0.6,2.2,2.2c0,2.4-1.9,4.7-1.9,6.4c0,0.7,0.3,1,1,1C-44.3-3.3-42.9-4.3-42-6.9z M-60.3-7.1
			c2.6-1.3,3.4-3,3.4-4.5c0-0.6-0.2-0.9-0.6-0.9C-58.9-12.5-60.2-10.4-60.3-7.1z"/>
	</g>
</g>
</svg>
