<?xml version="1.0" encoding="utf-8"?>
<!-- Generator: Adobe Illustrator 19.0.1, SVG Export Plug-In . SVG Version: 6.00 Build 0)  -->
<svg version="1.1" id="Layer_1" xmlns="http://www.w3.org/2000/svg" xmlns:xlink="http://www.w3.org/1999/xlink" x="0px" y="0px"
	 width="115px" height="69.5px" viewBox="0 0 115 69.5" enable-background="new 0 0 115 69.5" xml:space="preserve">
<g>
	<g>
		<path fill="#FD6B58" d="M18.9,27.7c2-6.5,5.3-14.1,10.7-14.1c2.3,0,3.9,0.7,3.9,2.3c0,1-0.6,1.6-1.8,1.6c-0.4,0-1.1-0.2-1.4-0.5
			c0.4-0.7,0.5-1.3,0.5-1.8c0-0.8-0.5-1.2-1.2-1.2c-2.8,0-3.7,6-5.7,13.8h6.4c-0.2,0.4-0.8,0.5-3.4,0.5h-3.2c-0.2,1-0.5,1.9-0.8,3
			C19.5,43,14.5,50.6,6.6,50.6c-3.4,0-6.6-1.5-6.6-5.1c0-2.8,2.3-5.1,5.8-5.1c1.6,0,2.9,0.6,3.8,1.6c1.2-0.4,2.3-0.2,2.4,0.1
			c-0.5-0.1-1.3-0.1-2.2,0.1c0.7,0.9,1.1,2,1.1,3.1c0,1.5-0.7,2.8-2.3,2.8c-1,0-2-0.7-2-2.4c0-2,1.3-3.1,2.6-3.6
			c-0.8-0.8-1.9-1.4-3.5-1.4c-3.7,0-5.1,2.5-5.1,4.8c0,3.5,2.8,4.8,5.7,4.8c5.5,0,7.7-5.3,11.6-19.2c0.2-0.9,0.5-1.8,0.8-2.8h-1.8
			c0-0.4,0.8-0.5,1.4-0.5H18.9z M9.5,42.4c-1.2,0.4-2.4,1.4-2.4,3.4c0,1.5,0.9,2,1.7,2c1.3,0,1.9-1.1,1.9-2.4
			C10.7,44.4,10.3,43.3,9.5,42.4z"/>
		<path fill="#FD6B58" d="M30.8,32.7c1.4-3.8,2.6-5.3,4.6-5.3c1.2,0,2.3,0.8,2.3,2.2c0,1.5-1.1,2.7-3.1,2.7c0-0.8-0.7-1.3-1.3-1.3
			c-1.3,0-2.3,0.7-4.1,7.3c-1.2,0.2-1.8,0.4-2.8,0.4c-1.4,0-1.8-0.7-1.8-1.8c0-2.1,1.5-6.7,3-8.3c0.8-0.9,3.8-1.2,5.2-1.2
			C32,29,31,30.9,30.6,32.7H30.8z"/>
		<path fill="#FD6B58" d="M48.1,35.8c-1.2,2.3-3.4,2.9-5.5,2.9c-3,0-5.4-1.4-5.4-4.5c0-2.8,2.6-6.8,8.1-6.8c2.2,0,3.4,1.1,3.4,2.6
			c0,3.4-4.4,3.6-6.1,3.6c0,2.6,1.3,3.4,2.8,3.4C46.3,37,47.3,36.6,48.1,35.8z M42.6,33.3c2.6-1.3,3.4-3,3.4-4.5c0-0.6-0.2-1-0.6-1
			C44,27.7,42.6,29.8,42.6,33.3z"/>
		<path fill="#FD6B58" d="M59.6,34.6c0,2.3-2.1,4.1-6.3,4.1c-3.9,0-4.6-1.8-4.6-3.2c0-1.7,1.2-2.3,2-2.3c-0.4,0.6-0.6,1.6-0.6,2.3
			c0,1.6,0.8,2.8,2.6,2.8c1.3,0,1.9-0.9,1.9-1.8c0-2.2-4.4-2-4.4-5.5c0-2.2,1.9-3.7,5.6-3.7c2.7,0,4.6,0.7,4.6,2.3
			c0,1-0.6,1.6-1.8,1.6c-0.4,0-1.1-0.2-1.4-0.5c0.4-0.7,0.5-1.3,0.5-1.8c0-0.8-0.6-1.2-1.6-1.2c-0.8,0-1.3,0.6-1.3,1.3
			C55,31,59.6,31.2,59.6,34.6z"/>
		<path fill="#FD6B58" d="M86,2.9C87.5,1,91.2,0,93,0c6.7,0,11.6,3.7,11.6,9.5c0,5.8-3.9,9.8-10.3,9.8C85,19.3,78.3,7.8,68.5,7.8
			c-4.5,0-8.4,2.7-8.4,6.7c0,3.1,2.5,5.6,5.8,6.6c2.1-4.1,5-7.4,8.5-7.4c1.3,0,2.5,0.7,2.5,2.3c0,2.4-3,5.3-6.8,5.8
			c-1.1,3.8-2.1,8.2-3,11h0.2c1.4-3.8,3.2-5.3,5.5-5.3c1.2,0,2.3,0.7,2.3,2.4c0,2.5-1.4,4.4-1.4,6.2c0,0.7,0.4,0.9,0.8,0.9
			c0.9,0,1.9-1,2.9-3.5c0,2.5-2.6,5.3-6.6,5.3c-1.6,0-2.6-0.8-2.6-2c0-1.9,1.6-4.2,1.6-5.7c0-0.4-0.1-0.7-0.5-0.7
			c-1.1,0-2.7,5.1-3.5,8.1c-1.2,0.2-1.8,0.4-2.8,0.4c-1.4,0-1.8-0.7-1.8-1.8c0-2.2,1.6-9.7,4.6-15.6c-3.5-1.1-6-3.8-6-6.9
			c0-4,3.8-7,8.7-7c9.6,0,17,11.5,25.7,11.5c6.1,0,9.6-3.7,9.6-9.5S99.3,0.4,93,0.4C91.5,0.4,88.7,0.9,86,2.9L86,2.9z M70.3,21.3
			c3.5-0.5,6.3-3.2,6.3-5.4c0-1.3-1.1-1.9-1.9-1.9C72.9,14,71.4,17.3,70.3,21.3z"/>
	</g>
	<g>
		<path fill="#FD6B58" d="M29.2,50.8c1-2.6,2.2-6.1,5.4-6.1c2,0,3.4,1.4,3.4,4.5c0,0.9-0.1,1.8-0.4,2.6c1.6-0.7,3-1.8,4-3.4
			c-0.6,2-2.3,3.3-4.2,4.1c-1.2,3.3-4.1,5.3-6.9,5.3c-1.5,0-2.1-0.7-2.1-1.5c0-1.3,1.3-2,3.2-2.5c0.2-1.1,0.4-2.4,0.4-3.9
			c0-0.8-0.3-1.4-0.8-1.4c-1.1,0-1.8,2.8-2.9,6.8c-0.7,2.4-2,6.7-5.2,10c3.9,1.7,7.8,3.4,11.1,3.4s6.7-0.9,7.2-5.2
			c0.4,2-1.6,6-7.2,6c-3.5,0-7.6-1.8-11.7-3.7c-2.3,2.2-5.5,3.7-10,3.7c-3.3,0-6.3-1.7-6.3-4.8c0-2.5,1.7-3.7,4.4-3.7
			c2.4,0,5.6,1.3,9,2.8c0.7-1.5,1.2-3.4,1.8-5.6c1.7-6.4,2.4-10.2,4.1-12.1c1-1.1,2.9-1.4,6-1.4c-1.1,1.8-2.2,4.1-2.6,6.1H29.2z
			 M19.4,64.3c-3.4-1.6-6.5-3-8.8-3c-2.2,0-4,1.1-4,3.1c0,3.3,3.3,4.6,5.9,4.6C16,69.1,17.9,67.5,19.4,64.3z M31.5,54.2
			c-1.4,0.4-2.4,0.9-2.4,1.8c0,0.2,0.1,0.5,0.6,0.5C30.4,56.5,31,55.7,31.5,54.2z"/>
		<path fill="#FD6B58" d="M55.1,49.9c-0.3,3.2-3.4,7.8-9,7.8c-3.4,0-6.2-1.6-6.2-5.2c0-3.3,3-7.8,9.3-7.8c2.5,0,3.9,1.3,3.9,3.1
			c0,3.9-5.1,4.1-7,4.1c0,3,1.5,3.9,3.2,3.9C51.5,55.8,54.1,53.7,55.1,49.9z M46,51.4c3-1.5,3.9-3.5,3.9-5.2c0-0.7-0.2-1.1-0.7-1.1
			C47.6,45.1,46.1,47.5,46,51.4z"/>
		<path fill="#FD6B58" d="M60.3,50.8c1-2.6,2.2-6.1,5.4-6.1c2,0,3.4,1.4,3.4,4.5c0,0.9-0.1,1.8-0.4,2.6c1.6-0.7,3-1.8,4-3.4
			c-0.6,2-2.3,3.3-4.2,4.1c-1.2,3.3-4.1,5.3-6.9,5.3c-1.5,0-2.1-0.7-2.1-1.5c0-1.3,1.3-2,3.2-2.5c0.2-1.1,0.4-2.4,0.4-3.9
			c0-0.8-0.3-1.4-0.8-1.4c-1.1,0-1.7,2.7-2.9,6.8l-1.6,5.6c-1.9,6.5-3.2,8.7-6.4,8.7c-1.3,0-2.9-0.4-3.4-0.8
			c1.8-1.5,2.7-3.3,4.6-10.4c1.7-6.3,2.4-10.2,4.1-12.1c1-1.1,2.9-1.4,6-1.4c-1.1,1.8-2.2,4.1-2.6,6.1H60.3z M62.6,54.2
			c-1.4,0.4-2.4,0.9-2.4,1.8c0,0.2,0.1,0.5,0.6,0.5C61.5,56.5,62.1,55.7,62.6,54.2z"/>
		<path fill="#FD6B58" d="M76.9,50.8c1-2.6,2.2-6.1,5.4-6.1c2,0,3.4,1.4,3.4,4.5c0,0.9-0.1,1.8-0.4,2.6c1.6-0.7,3-1.8,4-3.4
			c-0.6,2-2.3,3.3-4.2,4.1c-1.2,3.3-4.1,5.3-6.9,5.3c-1.5,0-2.1-0.7-2.1-1.5c0-1.3,1.3-2,3.2-2.5c0.2-1.1,0.4-2.4,0.4-3.9
			c0-0.8-0.3-1.4-0.8-1.4c-1.1,0-1.7,2.7-2.9,6.8l-1.6,5.6c-1.9,6.5-3.2,8.7-6.4,8.7c-1.3,0-2.9-0.4-3.4-0.8
			c1.8-1.5,2.7-3.3,4.6-10.4c1.7-6.3,2.4-10.2,4.1-12.1c1-1.1,2.9-1.4,6-1.4c-1.1,1.8-2.2,4.1-2.6,6.1H76.9z M79.2,54.2
			c-1.4,0.4-2.4,0.9-2.4,1.8c0,0.2,0.1,0.5,0.6,0.5C78.1,56.5,78.8,55.7,79.2,54.2z"/>
		<path fill="#FD6B58" d="M115,51.6c0,2.6-2.9,6.1-7.7,6.1c-2.3,0-3.3-1-3.3-2.4c0-3.5,2.6-6.2,2.6-8.6c0-0.4-0.1-0.8-1.8-0.8
			c-2.1,5.4-4,11.7-10.9,11.7c-3.4,0-6.2-1.6-6.2-5.2c0-3.3,3-7.8,9.3-7.8c2.5,0,3.9,1.3,3.9,3.1c0,3.9-5.1,4.1-7,4.1
			c0,3,1.5,3.9,3.2,3.9c3.8,0,5.9-5.8,7.4-9.9c-1.8-0.2-2.9-1.4-2.9-2.7c0-1.4,1.3-2.8,4.5-2.8c0,1.6-0.5,3.9-1,5.2
			c1.8,0,2.6-0.9,4.8-0.9c1.4,0,2.6,0.7,2.6,2.6c0,2.8-2.2,5.4-2.2,7.4c0,0.8,0.4,1.2,1.2,1.2C112.3,55.8,114,54.6,115,51.6z
			 M93.8,51.4c3-1.5,3.9-3.5,3.9-5.2c0-0.7-0.2-1.1-0.7-1.1C95.4,45.1,93.9,47.5,93.8,51.4z"/>
	</g>
</g>
</svg>
