<?xml version="1.0" encoding="utf-8"?>
<!-- Generator: Adobe Illustrator 19.1.0, SVG Export Plug-In . SVG Version: 6.00 Build 0)  -->
<svg version="1.1" id="Layer_1" xmlns="http://www.w3.org/2000/svg" xmlns:xlink="http://www.w3.org/1999/xlink" x="0px" y="0px"
	 width="1200px" height="630px" viewBox="0 0 1200 630" style="enable-background:new 0 0 1200 630;" xml:space="preserve">
<style type="text/css">
	.st0{fill:#F26B5A;}
	.st1{fill:#FFFFFF;}
</style>
<rect class="st0" width="1200" height="630"/>
<g id="Layer_2">
	<g>
		<g>
			<path class="st1" d="M600,443.7c-71,0-128.7-57.7-128.7-128.7c0-71,57.7-128.7,128.7-128.7c71,0,128.7,57.7,128.7,128.7
				C728.7,386,671,443.7,600,443.7z M600,188.2c-69.9,0-126.8,56.9-126.8,126.8c0,69.9,56.9,126.8,126.8,126.8
				c69.9,0,126.8-56.9,126.8-126.8C726.8,245.1,669.9,188.2,600,188.2z"/>
		</g>
		<g>
			<g>
				<path class="st1" d="M503.3,276.1l4.9-10.6l2.4,1l-3.7,8.1l3.9,1.8l3.3-7.3l2.4,1l-3.3,7.3l5.7,2.8l-1.2,2.6L503.3,276.1z"/>
			</g>
			<g>
				<path class="st1" d="M513.5,256.8l4.3-5.5c1.2-1.6,2.6-2.4,3.9-2.6c1.2-0.2,2.4,0.2,3.5,1l0,0c2,1.6,2.4,3.7,1.6,5.9l7.3,0.2
					l-2,2.6l-6.7-0.2l-2.2,2.8l4.3,3.3l-1.8,2.2L513.5,256.8z M523.7,256c1.2-1.6,1.2-3.1-0.2-4.1l0,0c-1.4-1-2.8-0.6-4.1,1
					l-2.4,3.1l4.1,3.1L523.7,256z"/>
			</g>
			<g>
				<path class="st1" d="M528.7,239.1l8.8-7.5l1.6,2l-6.7,5.7l2.6,3.1l6.1-5.1l1.6,2l-6.1,5.1l2.8,3.1l6.9-5.9l1.6,2l-9,7.5
					L528.7,239.1z"/>
			</g>
			<g>
				<path class="st1" d="M551.5,238.2l0.6-2.6c2,0.4,3.5,0.4,5.3-0.6c1.6-0.8,2-2,1.6-3.1l0,0c-0.6-1-1.4-1.2-4.3-0.4
					c-3.3,0.8-5.5,1-6.9-1.6l0,0c-1.2-2.4-0.2-5.1,2.6-6.5c2-1.2,3.9-1.4,5.9-1l-0.4,2.6c-1.8-0.2-3.3,0-4.5,0.6
					c-1.4,0.8-1.8,2-1.4,2.9l0,0c0.6,1,1.4,1.2,4.5,0.4c3.3-0.8,5.3-0.6,6.7,1.6l0,0c1.4,2.6,0.2,5.3-2.8,6.9
					C556.4,238.4,554,238.7,551.5,238.2z"/>
			</g>
			<g>
				<path class="st1" d="M565.4,216.7l2.6-0.8l1.8,6.3l7.3-2l-1.8-6.5l2.6-0.8l4.3,15.1l-2.6,0.8l-1.8-6.3l-7.3,2l1.8,6.3l-2.6,0.8
					L565.4,216.7z"/>
			</g>
			<g>
				<path class="st1" d="M601.6,210.8l6.1,0.4c3.7,0.2,5.9,2.6,5.5,5.7l0,0c-0.2,3.5-3.1,5.1-6.7,4.9l-2.9-0.2l-0.4,5.1l-2.8-0.2
					L601.6,210.8z M606.9,219.3c2.2,0.2,3.5-1,3.5-2.6l0,0c0.2-1.8-1.2-2.9-3.1-2.9l-3.1-0.2l-0.4,5.7
					C603.7,219.3,606.9,219.3,606.9,219.3z"/>
			</g>
			<g>
				<path class="st1" d="M623.4,213.4l11.2,3.1l-0.6,2.4l-8.5-2.4l-1.2,3.9l7.7,2.2l-0.6,2.4l-7.7-2.2l-1.2,4.1l8.6,2.6l-0.6,2.4
					l-11.2-3.1L623.4,213.4z"/>
			</g>
			<g>
				<path class="st1" d="M644,220.7l5.5,2.9c3.1,1.8,4.3,4.7,2.8,7.5l0,0c-1.6,3.1-5.1,3.3-8.1,1.8l-2.8-1.4l-2.4,4.5l-2.4-1.4
					L644,220.7z M645.6,230.7c1.8,1,3.5,0.6,4.3-0.8l0,0c0.8-1.6,0.2-3.1-1.6-4.1l-2.8-1.6l-2.8,4.9L645.6,230.7z"/>
			</g>
			<g>
				<path class="st1" d="M662.9,231.9l4.7,3.9c2.8,2.4,3.1,5.5,1.2,7.9l0,0c-2.4,2.8-5.7,2.4-8.3,0l-2.4-2l-3.3,3.9l-2.2-1.8
					L662.9,231.9z M662.1,242.1c1.6,1.4,3.3,1.4,4.3,0l0,0c1.2-1.4,0.8-2.9-0.8-4.3l-2.4-2.2l-3.7,4.3L662.1,242.1z"/>
			</g>
			<g>
				<path class="st1" d="M678.8,247l7.1,9.2l-2,1.6l-5.5-7.1l-3.1,2.6l4.9,6.3l-2,1.6l-4.9-6.3l-3.3,2.6l5.5,7.1l-2,1.6l-7.3-9.2
					L678.8,247z"/>
			</g>
			<g>
				<path class="st1" d="M691.4,265.1l2.9,6.3c0.8,1.8,1,3.3,0.6,4.7c-0.4,1.2-1.2,2-2.6,2.6l0,0c-2.4,1.2-4.3,0.4-5.9-1.4l-3.5,6.3
					l-1.4-2.9l3.3-5.9l-1.6-3.1l-4.9,2.4l-1.2-2.6L691.4,265.1z M687.3,274.5c0.8,1.8,2.4,2.6,3.7,1.8l0,0c1.6-0.8,1.8-2.2,1-4.1
					l-1.8-3.5l-4.7,2.2L687.3,274.5z"/>
			</g>
		</g>
		<g>
			<g>
				<path class="st1" d="M499,344.5l2.4,1.2c-0.8,1.2-1.2,2.4-0.8,3.5c0.6,1.4,1.8,2,3.7,1.4l9.6-3.3l1,2.8l-9.8,3.5
					c-1.8,0.6-3.3,0.6-4.5,0s-2-1.6-2.6-3.1C497.4,347.8,498,346.1,499,344.5z"/>
			</g>
			<g>
				<path class="st1" d="M510.4,361.6l7.7-4.7l1.4,2.4l-7.7,4.7c-2.6,1.6-2.9,3.5-1.8,5.7c1.2,2.2,3.3,2.6,5.7,1.2l7.7-4.7l1.4,2.4
					l-7.3,4.5c-3.9,2.4-7.5,1.4-9.4-2.2C505.9,367.3,506.4,363.9,510.4,361.6z"/>
			</g>
			<g>
				<path class="st1" d="M530,374.4l2,2l-9.6,9l5.7,5.9l-1.8,1.8l-7.7-8.1L530,374.4z"/>
			</g>
			<g>
				<path class="st1" d="M543,386.9l9.4,6.7l-1.4,2l-7.3-5.1l-2.4,3.3l6.5,4.7l-1.4,2l-6.5-4.5l-2.4,3.5l7.3,5.1l-1.4,2l-9.6-6.7
					L543,386.9z"/>
			</g>
			<g>
				<path class="st1" d="M552.8,409.1l2.4-1.2c0.8,1.8,2,3.1,3.7,3.7c1.6,0.6,2.9,0.4,3.3-0.8l0,0c0.4-1,0.2-1.8-2.4-3.5
					c-2.8-2-4.1-3.7-2.9-6.3l0,0c1-2.6,3.9-3.3,6.7-2.2c2.2,1,3.5,2.2,4.5,4.1l-2.2,1.4c-0.8-1.6-2-2.6-3.3-3.1
					c-1.6-0.6-2.8-0.2-3.1,0.8l0,0c-0.4,1.2,0,2,2.6,3.7c2.8,2,3.7,3.7,2.8,6.3l0,0c-1.2,2.8-3.9,3.3-7.1,2.2
					C555.6,413.1,554,411.5,552.8,409.1z"/>
			</g>
			<g>
				<path class="st1" d="M587.2,406l11.6,1l-0.2,2.6l-8.8-0.8l-0.4,4.3l7.9,0.6l-0.2,2.6l-7.9-0.6l-0.6,6.3l-2.8-0.2L587.2,406z"/>
			</g>
			<g>
				<path class="st1" d="M606.3,414.6L606.3,414.6c-0.6-4.3,2.2-8.6,6.9-9.2c4.7-0.8,8.6,2.4,9.2,6.9l0,0c0.6,4.3-2.2,8.5-7.1,9.2
					C610.8,422.3,606.9,419.2,606.3,414.6z M619.7,412.9L619.7,412.9c-0.4-3.1-2.9-5.3-6.1-4.7c-3.1,0.4-4.9,3.1-4.5,6.3l0,0
					c0.4,2.9,2.9,5.1,6.1,4.7C618.3,418.6,620,415.8,619.7,412.9z"/>
			</g>
			<g>
				<path class="st1" d="M628.5,402.5l6.5-2.6c1.8-0.8,3.5-0.8,4.7-0.2c1.2,0.4,2,1.4,2.6,2.8l0,0c1,2.4,0.2,4.3-1.8,5.9l6.1,3.9
					l-2.9,1.2l-5.7-3.7l-3.1,1.4l2,5.1l-2.6,1L628.5,402.5z M637.7,407.2c1.8-0.8,2.6-2.2,2-3.7l0,0c-0.6-1.6-2.2-2-3.9-1.2
					l-3.7,1.6l2,4.9L637.7,407.2z"/>
			</g>
			<g>
				<path class="st1" d="M647,394l5.7-3.9c1.6-1.2,3.1-1.6,4.5-1.2c1.2,0.2,2.2,1,2.9,2l0,0c1.4,2.2,1,4.3-0.4,6.1l6.9,2.6l-2.8,1.8
					l-6.3-2.4l-2.8,2l3.1,4.5l-2.4,1.6L647,394z M657,396.6c1.6-1.2,2.2-2.8,1.2-3.9l0,0c-1-1.4-2.6-1.4-4.1-0.4l-3.3,2.4l2.9,4.3
					L657,396.6z"/>
			</g>
			<g>
				<path class="st1" d="M663.3,381.6l7.9-8.5l1.8,1.8l-6.1,6.5l2.9,2.8l5.3-5.7l1.8,1.8l-5.3,5.7l3.1,2.9l6.1-6.5l1.8,1.8l-8.1,8.6
					L663.3,381.6z"/>
			</g>
			<g>
				<path class="st1" d="M686.5,374.9l-0.8-2.4c2-0.6,3.3-1.6,4.3-3.1c1-1.4,0.8-2.8-0.2-3.3l0,0c-1-0.6-1.8-0.4-3.9,1.8
					c-2.4,2.4-4.3,3.5-6.7,2l0,0c-2.4-1.4-2.8-4.3-1.2-6.9c1.2-2,2.8-3.1,4.7-3.7l1,2.4c-1.6,0.6-2.9,1.6-3.5,2.8
					c-0.8,1.4-0.6,2.6,0.2,3.1l0,0c1,0.6,2,0.4,4.1-2c2.4-2.4,4.3-3.3,6.5-2l0,0c2.6,1.6,2.8,4.3,1,7.3
					C690.8,372.8,689,374.4,686.5,374.9z"/>
			</g>
			<g>
				<path class="st1" d="M688,348.6l-1.8,4.7l-2.4-0.8l4.3-12l2.4,0.8l-1.8,4.7l12.4,4.5l-1,2.6L688,348.6z"/>
			</g>
		</g>
		<g>
			<circle class="st1" cx="586.8" cy="360.4" r="2"/>
		</g>
		<g>
			<circle class="st1" cx="600" cy="360.4" r="2"/>
		</g>
		<g>
			<circle class="st1" cx="613.2" cy="360.4" r="2"/>
		</g>
		<g>
			<circle class="st1" cx="600" cy="376.3" r="2"/>
		</g>
		<g>
			<circle class="st1" cx="606.7" cy="368.5" r="2"/>
		</g>
		<g>
			<circle class="st1" cx="593.3" cy="368.5" r="2"/>
		</g>
		<g>
			<g>
				<path class="st1" d="M585.5,274.3c-0.2,0.2-0.6,0.8-0.6,1.4c0,1.6,4.1,5.3,4.1,8.5c0,7.9-7.1,13.4-7.1,27.1c0,0,0,6.1,2,8.1
					c3.9,0.8,9.2,1.2,15.9,1.2s12-0.6,15.9-1.2c2-2,2-8.1,2-8.1c0-13.8-7.1-19.3-7.1-27.1c0-3.1,4.1-6.9,4.1-8.5
					c0-0.6-0.2-1.2-0.6-1.4c-4.9,0.8-10.4,1-14.5,1C596.1,275.3,590.6,274.9,585.5,274.3z"/>
			</g>
			<g>
				<path class="st1" d="M600,261c6.3,0,11.4-0.4,15.3-1.2c-1.8-1-4.5-1.8-7.3-2.2c-2.9,0.2-5.7,0.4-8.1,0.4s-5.1,0-8.1-0.4
					c-2.8,0.6-5.3,1.2-7.3,2.2C588.6,260.6,593.7,261,600,261z"/>
			</g>
			<g>
				<path class="st1" d="M617.1,326.2c2.9-2,2-3.7,0.8-4.9c-5.7,1.2-13,1.6-17.9,1.6s-12.2-0.4-17.9-1.6c-1.4,1.2-2.2,3.1,0.8,4.9
					c0,0-2.9,3.1-0.8,5.5c4.1,0.8,10,1.6,17.9,1.6s14-0.8,17.9-1.6C620,329.5,617.1,326.2,617.1,326.2z"/>
			</g>
			<g>
				<path class="st1" d="M582.5,261.5c-0.2,0.4-0.4,0.6-0.4,1c0,2.9,0,6.5,2.4,9.2c3.9,0.6,9,1.2,15.5,1.2s11.6-0.4,15.5-1.2
					c2.4-2.8,2.4-6.3,2.4-9.2c0-0.4-0.2-0.8-0.4-1c-5.5,1.2-12.8,1.6-17.5,1.6C595.1,263.1,588,262.7,582.5,261.5z"/>
			</g>
			<g>
				<path class="st1" d="M600,335.4c-5.1,0-12.6-0.4-18.3-1.6c-0.4,1-0.8,2.9-0.8,6.3c0,0,3.5,3.7,18.1,3.7h1.6
					c14.7,0,18.1-3.7,18.1-3.7c0-3.3-0.4-5.3-0.8-6.3C612.6,335,605.1,335.4,600,335.4z"/>
			</g>
			<g>
				<path class="st1" d="M600,255.8c1,0,2,0,2.9,0v-2.6l0,0c-0.2-0.8-1.4-1.4-2.9-1.4s-2.8,0.6-2.9,1.4l0,0v2.6
					C598,255.8,599,255.8,600,255.8z"/>
			</g>
		</g>
		<g>
			<g>
				<circle class="st1" cx="500.2" cy="312.8" r="3.9"/>
			</g>
			<g>
				<circle class="st1" cx="699.8" cy="312.8" r="3.9"/>
			</g>
		</g>
	</g>
</g>
</svg>
